<?xml version="1.0" encoding="UTF-8"?>
<!-- Generator: Adobe Illustrator 22.0.1, SVG Export Plug-In . SVG Version: 6.00 Build 0)  -->
<svg version="1.1" id="svg2" inkscape:export-filename="/home/mschwarz/Documents/OutOfOrder/shirt/spectre.svg.png" inkscape:export-xdpi="807.59918" inkscape:export-ydpi="807.59918" inkscape:version="0.91 r13725" sodipodi:docname="spectre.svg" xmlns:cc="http://creativecommons.org/ns#" xmlns:dc="http://purl.org/dc/elements/1.1/" xmlns:inkscape="http://www.inkscape.org/namespaces/inkscape" xmlns:rdf="http://www.w3.org/1999/02/22-rdf-syntax-ns#" xmlns:sodipodi="http://sodipodi.sourceforge.net/DTD/sodipodi-0.dtd" xmlns:svg="http://www.w3.org/2000/svg" xmlns="http://www.w3.org/2000/svg" xmlns:xlink="http://www.w3.org/1999/xlink" x="0px" y="0px" viewBox="0 0 702.1 835.8" style="enable-background:new 0 0 702.1 835.8;" xml:space="preserve">
<style type="text/css">
	.st0{fill:#06B2FA;}
	.st1{fill:none;stroke:#06B2FA;stroke-width:14.4734;stroke-linecap:round;stroke-miterlimit:10;}
	.st2{fill:none;stroke:#06B2FA;stroke-width:14.4734;stroke-linecap:round;stroke-linejoin:round;stroke-miterlimit:10;}
</style>
<g id="g60" transform="translate(-65.664003,-87.075322)">
	<path id="path64" inkscape:connector-curvature="0" class="st0" d="M342.5,88.8c41.7-6,85.1,3.8,121.1,26.8   c31,19.6,56.5,48.7,73.4,82.5c15.3,30.4,23.6,64.6,24.4,99c0.1,1.9,0.4,3.8,0.4,5.6v220.6c0,2.2-0.1,4.4,0.2,6.6   c0.5,3.9,0,7.8,0.8,11.7c1.1,5.3,2.5,10.7,5.1,15.4c7.2,14.2,21,23.8,35.6,27c3,0.7,6.5,0.6,8.8,3.2c3.6,3.5,3.2,10.5-0.9,13.4   c-2,1.2-3.2,3.5-4.8,5.2c-12.7,15.1-31.5,23.8-50.4,24.6c-21.4,1.4-43.3-7.3-58-24c-2.4,4.1-5,8.1-8.3,11.7   c-3.2,3.8-7.1,6.7-10.9,9.5c-3,1.5-5.8,3.5-9,4.7c-8.8,3.9-18.6,4.7-28,3.7c-13.5-1.8-26-9-35.1-19.7c-10.2,16.4-28.4,26.8-47,26.4   c-5.3,0.3-10.5-1.1-15.5-2.2c-12.1-3.7-22.9-11.9-30.2-22.7c-7.8,10.9-19.4,18.4-31.9,21.4c-9.7,2.2-20,1.9-29.5-1.4   c-7.6-2.5-14.5-6.8-20.4-12.4c-2-1.7-3.5-4.1-5.5-5.9c-12.2,11.4-28.2,18.2-44.5,19.1c-18.4,1.3-37.3-4.6-51.6-17.1   c-4.3-3.6-8-7.8-11.4-12.4c-1.3-1.8-1.6-4.1-2.9-6c-2.5-3.8-1.3-9.4,2.3-11.9c2.4-1.9,5.6-1.5,8.4-1.9c10.6-1.5,20.8-6.3,28.9-13.6   c9.6-8.7,16.2-21.7,16.3-35.2c0.5-12.7,0.1-25.4,0.2-38.1v-199c0.2-2.8-0.5-5.7-0.4-8.5c1.1-30.3,7.9-60.4,20.2-87.8   c13.7-30.6,34.2-57.8,59.6-78.3C278.5,107.4,309.8,93.3,342.5,88.8 M356.9,105c-25.6,1.6-50.8,9.6-73.2,22.8   c-21.4,12.6-40.3,30.1-55.2,50.7c-23.3,31.9-36.9,71.5-39.1,111.8c0.3,8.3,0.1,16.7,0.2,25v148.9c-0.1,25.6,0.2,51.2-0.1,76.7   c-0.4,11.7-3.8,23.2-9.9,33c-9.3,15.5-24.7,26.3-41.3,30.9c5.3,5.1,11.4,9.2,18.1,11.9c8.7,3.7,18.3,4.7,27.6,3.9   c12.8-1.1,25.2-7,34.4-16.5c1.6-1.4,1.4-3.9,2.8-5.5c2.5-3.5,7.7-4.4,11.1-1.9c2.1,1.4,3.1,4,4.4,6.1c1.8,2.8,3.8,5.5,6,7.9   c5.2,5.7,12.1,9.4,19.4,11.1c3.8,0.9,7.7,0.8,11.5,0.7c14.2-0.9,27.4-10.7,33-24.6c2.2-6.4,11.3-8.1,15.4-3c1.7,2,2.1,4.8,3.4,7.2   c4.9,10.1,13.7,17.9,23.9,21.1c4.2,1,8.5,1.9,12.8,1.6c14-0.3,27.5-9.2,33.7-22.5c1.6-2.8,2-6.3,4-8.9c2.7-3.6,8.3-4.1,11.6-1.2   c1.7,1.3,2.3,3.6,3.6,5.2c1.4,1.8,2.5,3.8,3.9,5.6c7.6,9.7,19.2,16,31.2,15.5c6.3,0.1,12.8-1.4,18.3-4.8c5.8-3.3,11-8.1,14.7-14   c1.8-2.8,2.7-6.1,4.3-9c1.1-1.7,0.6-4,1.6-5.7c1.7-3.9,6.2-5.9,10-4.4c3.1,1,4.8,4.1,6.8,6.7c3.4,5.7,8,10.6,13.2,14.6   c17.1,13,40.9,14.7,59.8,5.1c4.4-2.2,8.4-5.3,12.3-8.5c-10.3-3.9-19.6-10.3-27.3-18.5c-6.7-7.4-12-16.5-14.7-26.4   c-1.9-6-2.4-12.4-3-18.7V308.1c0-1.9-0.4-3.8-0.4-5.7c-0.1-18.8-2.5-37.6-7.4-55.7c-10.3-39.1-32.1-74.8-61.8-100.5   c-13.8-11.7-29.2-21.7-45.7-28.3C407,107.7,381.8,103.4,356.9,105L356.9,105z"/>
	<path id="path66" inkscape:connector-curvature="0" class="st0" d="M441.4,296.9c-9.5,3.3-20,3.8-29.8,1.1   c-11.6-3.1-22-10.4-28.7-20.4c-6.3-9.2-9.4-20.5-8.7-31.6c0.6-11,5-21.8,12.3-30.2c0.5-0.6,1.2-0.9,1.9-1.1   c16.7-4.6,33.4-9.3,50.1-14c1.3-0.4,2.6,0.4,3.9,0.8c12,4.4,22.1,13.5,27.7,24.9c4.2,8.5,6,18.2,5,27.6c-1.1,11.1-6.1,21.9-13.9,30   C455.8,289.9,448.9,294.3,441.4,296.9z"/>
	<path id="path68" inkscape:connector-curvature="0" class="st0" d="M300.2,299.4c-11.6-1.2-22.6-6.5-30.8-14.9   c-12.2-12.3-17.4-31.1-12.9-47.9c4.1-16.7,17.4-30.9,33.9-35.8c17.1,4.3,34.1,9.1,51.2,13.6c1.6,0.2,2.5,1.7,3.4,2.8   c4.9,6.1,8.4,13.2,10,20.9c2.4,10.3,1.3,21.5-3,31.2c-4.2,9.8-11.6,18.1-20.8,23.4C322,298.2,310.9,300.6,300.2,299.4L300.2,299.4z   "/>
	<path id="path70" inkscape:connector-curvature="0" class="st1" d="M282.8,345.2c0,0,78,36.2,163.2,0"/>
	<path id="path72" inkscape:connector-curvature="0" class="st2" d="M149.3,428.8c0,0-30.6-18.5-57.3,10.4   c-15.1,20.6-19.1,43.6-19.1,43.6l23.5-13.9l3.9,26.3l18.3-15l10.4,21.1c0,0,9.7-34.1,19-31.7C157.4,471.9,163.3,441,149.3,428.8z"/>
	<path id="path74" inkscape:connector-curvature="0" class="st2" d="M647.6,389.2c0,0-15.9-34.1-41.2-30.8   c-25.4,3.4-9.4,19.3-9.4,19.3s-24.8,6-9.8,20.6c0,0-17,5.3-4.9,17.7c12.1,12.4,19.2,23.3,41,20.2   C623.2,436.3,659.2,428,647.6,389.2L647.6,389.2z"/>
	<path id="path76" inkscape:connector-curvature="0" class="st0" d="M742.1,226.3c8.8-22.8,22.9-53.1,23-53.4c1.4-3.1,0.1-6.7-3-8.1   c-3.1-1.4-6.7-0.1-8.1,3c-0.1,0.2-6.9,14.8-14,31.4L729.7,179c-1.5-3-5.2-4.2-8.2-2.7s-4.2,5.2-2.7,8.2l14.7,28.8   c0.1,0.2,0.2,0.4,0.4,0.6c-1.1,2.7-2.2,5.4-3.2,8c-6.3,16.3-7.9,26.7-8.2,32.7l-32.9,38l-4.4-25.9c-0.6-3.3-3.8-5.6-7.1-5   s-5.6,3.7-5,7.1l6.1,35.8l-49.8,57.6c-1.1,1.3-1.6,2.9-1.5,4.6c0.2,1.7,1,3.2,2.3,4.2l6.7,5.3c1.3,1,2.9,1.5,4.5,1.3s3.1-1,4.1-2.3   L731.6,265l32.7-16.3c3-1.5,4.3-5.2,2.8-8.2s-5.2-4.3-8.2-2.8L736.2,249l-0.7-0.5C736.4,243.4,738.3,236.1,742.1,226.3L742.1,226.3   z"/>
	<path id="path78" inkscape:connector-curvature="0" class="st0" d="M587.3,421.3l-10.8,14.9c-1.1,1.3-1.6,2.9-1.5,4.6   c0.2,1.7,1,3.2,2.3,4.2l6.7,5.3c1.3,1,2.9,1.5,4.5,1.3s3.1-1,4.1-2.3l13.8-17.6h-11.6L587.3,421.3z"/>
	<g id="flowRoot4221" transform="matrix(2.310084,0,0,2.3100842,341.65388,-818.31607)">
		<path id="path4189" class="st0" d="M-83.5,683.7l4.3,0.6l3.4,2l2.1,4l0.9,9l-4.4,0.5l-1.9-0.5l-1.3-1.7l-1-4.9h-5.9l-0.5,9.3    l0.3,1.9l0.9,2.2l2,3.2l3,2.7l1.6,2.2l1.9,1.3l1.7,1.7l1.9,4.5l1,4.5l0.6,1.8v10.3l-2,8.4l-0.7,0.7l-1.6,2.6l-4.1,2.7l-3.3,0.6    l-6.1-0.5l-4.9-3.4l-1.7-6.2l-0.5-3.3l-0.4-7.7l5.3-1.1h1.7l2,12.1l3.2,0.7l3.9-0.5v-5.2l0.6-4.3l-0.1-2.2l-1-5l-1-2.4l-4.1-4.6    l-5.1-4.8l-1.3-2.4l-2.1-5.5l-0.4-8.5l0.4-3.2l0.6-2.8l1.8-3.7l2.8-2.7l2.6-1.7L-83.5,683.7L-83.5,683.7z"/>
		<path id="path4191" class="st0" d="M-58.1,684.7l1.9-0.1l2.2-0.5l5.9,1.3l5,1.8l0.9,0.6l2,2.3l1.2,3.1l1,4.5l0.6,1.4L-38,704v5    l-1,5.1l-0.6,2.1l-3.5,4.9l-6,2.8l-4.9,0.5l-0.9,1l-0.5,12l0.1,2.7l-0.4,8.5l0.4,3.2l-4.9,0.4l-3.4-0.1l-2.4-0.5l0.6-15.5    l-0.2-1.1l0.6-3.1v-9.5l0.4-2.8l0.2-4.4l0.4-2.8l0.2-6.1L-64,703l0.5-4.7l0.3-10.2l0.8-3.3L-58.1,684.7L-58.1,684.7z M-53.5,694.2    l-0.4,4.2l0.3,1.3l-0.5,4.9l0.3,1.4l-0.7,9.5l4.5,0.1l2.2-1.3l1.3-6.2v-10.3l-1.1-3.1l-3.6-0.5L-53.5,694.2L-53.5,694.2z"/>
		<path id="path4193" class="st0" d="M-25.6,684.9l4.4-0.5l3.1,0.3h4.5l2.2,0.5h2.6l-0.1,4.1l0.3,4.8h-11.2l-0.5,4.6l0.5,5l-0.8,7.8    l4.2,0.5l5.2-0.4l-1.4,9l-3.4,0.5h-5.2v4.9l-0.4,3.4l0.4,6.8l-0.4,3.2l0.4,3.7l3.6-0.4l7.7,0.8v3.1l-0.5,5.5l-2.8,0.1l-1.4,0.5    l-4.3-0.8l-4,0.3h-5.7l-3.8-0.3l0.6-5.5v-11.6l0.6-5.5l-0.2-2.3l0.9-8.5l0.3-6.9l0.4-1.3v-3.7l-0.4-3.2l0.9-5.5l-0.1-1.6l0.5-8.9    l0.5-2.3L-25.6,684.9L-25.6,684.9z"/>
		<path id="path4195" class="st0" d="M12.6,692.1l-3.9,1.8v7.4L7.7,711l-0.8,4.3l1.2,10.4v5.1l0.5,2.5v5l1.1,3.9l1.7,1.6l3-0.7    l1.6-1.7l0.8-2.4l0.3-10.5l2.9,0.1l5.5,0.7l0.4,3.3l-1.2,7.5l-0.2,3.2l-2,4.8l-1.8,2.2l-4.3,2.7h-1.1l-3.8,0.9l-3.1-0.3l-2.2-0.8    l-4.1-2.5l-1.7-3.6l-0.3-1.3l-1.4-3.3l-0.3-11.8l0.8-13v-10.2l-0.4-2.6l1.5-9v-1.4l2.3-4.4l2.8-3.2l1.7-0.9l2.8-0.8h11.1l2.2,1    l2.7,3.8l1.1,10.2v7.4l-4.8,0.3l-4.2-1l-0.6-6.9l-0.7-5l-2.1-1.4L12.6,692.1L12.6,692.1z"/>
		<path id="path4197" class="st0" d="M44.5,684.8l1.9-0.5l4,0.4l5-0.3l2.2,0.3l-0.5,5.4l-0.5,3l-3.8,1.3l-2.4,0.2l-2.5,0.5v11.3    l-0.3,7.7l0.3,3.1l-0.5,4.2l0.3,3.3l-0.5,9v18.2l-2.7,0.7l-5.9-0.3l-0.2-3.7l-0.5-3.5l0.8-7.6v-16.6l0.5-4l-0.3-4.6l0.9-11.3v-7.4    l-2.5,0.6l-5.6-0.8l0.4-5.8l0.9-3L44.5,684.8L44.5,684.8z"/>
		<path id="path4199" class="st0" d="M85.5,751.2l-5.9,0.8l-1.5,0.5l-0.5-4l-0.1-3.7l-0.9-3.7l0.1-3.2l-0.8-3.4l-1.3-11v-1.7    l-2.4,0.5l-0.4,7.2l0.4,2.6l-0.5,6.6l0.3,1.9l-0.4,11l-5.9,1.3l-2.8-0.3l-0.3-4.5l0.5-4.3l-0.3-2.2l0.7-8.4v-11.9l0.4-3.5    l-0.5-3.9l0.9-5.8v-21.9l2.1-0.7h2.6l5.2-0.5l6.5,0.3l2,0.5l3.2,1.3l1.9,2.4l1.3,5.4L88.1,712l-0.8,2.6L85,719l-2.8,1.6l1.8,7.2    l0.4,7l1,3.2l1.1,6.1l0.3,3.3l0.6,2.6L85.5,751.2L85.5,751.2z M76.1,713.2l2.2-0.3l0.7-1.6l1.3-9.6l-0.2-5.6l-0.5-3l-6.4-0.3    l0.1,3.3l-0.4,8.1l-0.3,1v7.5L76.1,713.2L76.1,713.2z"/>
		<path id="path4201" class="st0" d="M100.6,684.9l4.4-0.5l3.1,0.3h4.5l2.2,0.5h2.6l-0.1,4.1l0.3,4.8h-11.2l-0.4,4.6l0.4,5l-0.8,7.8    l4.2,0.5l5.2-0.4l-1.3,9l-3.4,0.5h-5.2v4.9l-0.4,3.4l0.4,6.8l-0.4,3.2l0.4,3.7l3.6-0.4l7.7,0.8v3.1l-0.5,5.5l-2.8,0.1l-1.4,0.5    l-4.3-0.8l-4,0.3h-5.7l-3.8-0.3l0.6-5.5v-11.6l0.6-5.5l-0.2-2.3l0.9-8.5l0.3-6.9l0.4-1.3v-3.7l-0.4-3.2l0.9-5.5l-0.1-1.6l0.4-8.9    l0.5-2.3L100.6,684.9L100.6,684.9z"/>
	</g>
</g>
</svg>