<?xml version="1.0" encoding="UTF-8" standalone="no"?>
<!-- Created with Inkscape (http://www.inkscape.org/) -->

<svg
   xmlns:osb="http://www.openswatchbook.org/uri/2009/osb"
   xmlns:dc="http://purl.org/dc/elements/1.1/"
   xmlns:cc="http://creativecommons.org/ns#"
   xmlns:rdf="http://www.w3.org/1999/02/22-rdf-syntax-ns#"
   xmlns:svg="http://www.w3.org/2000/svg"
   xmlns="http://www.w3.org/2000/svg"
   xmlns:sodipodi="http://sodipodi.sourceforge.net/DTD/sodipodi-0.dtd"
   xmlns:inkscape="http://www.inkscape.org/namespaces/inkscape"
   version="1.1"
   width="1600"
   height="450"
   id="svg2855"
   sodipodi:docname="atomic-logo.svg"
   viewBox="0 0 1600 450"
   inkscape:version="0.92pre1 r">
  <metadata
     id="metadata6281">
    <rdf:RDF>
      <cc:Work
         rdf:about="">
        <dc:format>image/svg+xml</dc:format>
        <dc:type
           rdf:resource="http://purl.org/dc/dcmitype/StillImage" />
        <dc:title></dc:title>
      </cc:Work>
    </rdf:RDF>
  </metadata>
  <sodipodi:namedview
     pagecolor="#000000"
     bordercolor="#666666"
     borderopacity="1"
     objecttolerance="10"
     gridtolerance="10"
     guidetolerance="10"
     inkscape:pageopacity="0"
     inkscape:pageshadow="2"
     inkscape:window-width="2560"
     inkscape:window-height="1376"
     id="namedview6279"
     showgrid="false"
     inkscape:pagecheckerboard="false"
     inkscape:zoom="0.7160325"
     inkscape:cx="673.13319"
     inkscape:cy="189.28486"
     inkscape:window-x="1920"
     inkscape:window-y="27"
     inkscape:window-maximized="1"
     inkscape:current-layer="svg2855"
     showguides="true"
     inkscape:guide-bbox="true">
    <sodipodi:guide
       position="888.92614,40.500955"
       orientation="0,1"
       id="guide7798"
       inkscape:locked="false" />
  </sodipodi:namedview>
  <defs
     id="defs2857">
    <linearGradient
       id="linearGradient3007"
       spreadMethod="pad"
       gradientTransform="matrix(111.60057,-7.078476,-7.078476,-111.60057,347.47559,419.51123)"
       gradientUnits="userSpaceOnUse"
       y2="0"
       x2="1"
       y1="0"
       x1="0">
      <stop
         id="stop3009"
         offset="0"
         style="stop-opacity:1;stop-color:#fedd28" />
      <stop
         id="stop3011"
         offset="1"
         style="stop-opacity:1;stop-color:#ef7c37" />
    </linearGradient>
    <clipPath
       id="clipPath3019"
       clipPathUnits="userSpaceOnUse">
      <path
         inkscape:connector-curvature="0"
         id="path3021"
         d="M 0,792 612,792 612,0 0,0 0,792 z" />
    </clipPath>
    <linearGradient
       id="linearGradient3043"
       spreadMethod="pad"
       gradientTransform="matrix(35.21312,-2.2334595,-2.2334595,-35.21312,290.73828,441.78076)"
       gradientUnits="userSpaceOnUse"
       y2="0"
       x2="1"
       y1="0"
       x1="0">
      <stop
         id="stop3045"
         offset="0"
         style="stop-opacity:1;stop-color:#fedd28" />
      <stop
         id="stop3047"
         offset="1"
         style="stop-opacity:1;stop-color:#ef7c37" />
    </linearGradient>
    <clipPath
       id="clipPath3055"
       clipPathUnits="userSpaceOnUse">
      <path
         inkscape:connector-curvature="0"
         id="path3057"
         d="M 0,792 612,792 612,0 0,0 0,792 z" />
    </clipPath>
    <linearGradient
       id="linearGradient3079"
       spreadMethod="pad"
       gradientTransform="matrix(35.642441,-2.2606812,-2.2606812,-35.642441,237.27734,380.19141)"
       gradientUnits="userSpaceOnUse"
       y2="0"
       x2="1"
       y1="0"
       x1="0">
      <stop
         id="stop3081"
         offset="0"
         style="stop-opacity:1;stop-color:#fedd28" />
      <stop
         id="stop3083"
         offset="1"
         style="stop-opacity:1;stop-color:#ef7c37" />
    </linearGradient>
    <clipPath
       id="clipPath3091"
       clipPathUnits="userSpaceOnUse">
      <path
         inkscape:connector-curvature="0"
         id="path3093"
         d="M 0,792 612,792 612,0 0,0 0,792 z" />
    </clipPath>
    <linearGradient
       id="linearGradient3115"
       spreadMethod="pad"
       gradientTransform="matrix(115.62328,-7.3336182,-7.3336182,-115.62328,138.61133,407.42041)"
       gradientUnits="userSpaceOnUse"
       y2="0"
       x2="1"
       y1="0"
       x1="0">
      <stop
         id="stop3117"
         offset="0"
         style="stop-opacity:1;stop-color:#fedd28" />
      <stop
         id="stop3119"
         offset="1"
         style="stop-opacity:1;stop-color:#ef7c37" />
    </linearGradient>
    <clipPath
       id="clipPath3127"
       clipPathUnits="userSpaceOnUse">
      <path
         inkscape:connector-curvature="0"
         id="path3129"
         d="M 0,792 612,792 612,0 0,0 0,792 z" />
    </clipPath>
    <radialGradient
       id="radialGradient3151"
       spreadMethod="pad"
       gradientTransform="matrix(40.881607,-2.5929871,-2.7251434,-42.950623,270.76758,428.10107)"
       gradientUnits="userSpaceOnUse"
       r="1"
       cy="0"
       cx="0"
       fy="0"
       fx="0">
      <stop
         id="stop3153"
         offset="0"
         style="stop-opacity:1;stop-color:#fedd28" />
      <stop
         id="stop3155"
         offset="1"
         style="stop-opacity:1;stop-color:#f47738" />
    </radialGradient>
    <clipPath
       id="clipPath3163"
       clipPathUnits="userSpaceOnUse">
      <path
         inkscape:connector-curvature="0"
         id="path3165"
         d="M 0,792 612,792 612,0 0,0 0,792 z" />
    </clipPath>
    <clipPath
       id="clipPath3175"
       clipPathUnits="userSpaceOnUse">
      <path
         inkscape:connector-curvature="0"
         id="path3177"
         d="m 216.089,424.122 23.589,0 0,-31.723 -23.589,0 0,31.723 z" />
    </clipPath>
    <linearGradient
       id="linearGradient3183"
       spreadMethod="pad"
       gradientTransform="matrix(25.209732,-1.5989685,-1.5989685,-25.209732,215.42432,409.06494)"
       gradientUnits="userSpaceOnUse"
       y2="0"
       x2="1"
       y1="0"
       x1="0">
      <stop
         id="stop3185"
         offset="0"
         style="stop-opacity:1;stop-color:#6f4a31" />
      <stop
         id="stop3187"
         offset="0.484665"
         style="stop-opacity:1;stop-color:#a9815b" />
      <stop
         id="stop3189"
         offset="1"
         style="stop-opacity:1;stop-color:#504530" />
    </linearGradient>
    <clipPath
       id="clipPath3209"
       clipPathUnits="userSpaceOnUse">
      <path
         inkscape:connector-curvature="0"
         id="path3211"
         d="m 227.195,432.313 26.912,0 0,-41.433 -26.912,0 0,41.433 z" />
    </clipPath>
    <linearGradient
       id="linearGradient3217"
       spreadMethod="pad"
       gradientTransform="matrix(28.927872,-1.8348083,-1.8348083,-28.927872,226.43701,412.53955)"
       gradientUnits="userSpaceOnUse"
       y2="0"
       x2="1"
       y1="0"
       x1="0">
      <stop
         id="stop3219"
         offset="0"
         style="stop-opacity:1;stop-color:#6f4a31" />
      <stop
         id="stop3221"
         offset="0.484665"
         style="stop-opacity:1;stop-color:#a9815b" />
      <stop
         id="stop3223"
         offset="1"
         style="stop-opacity:1;stop-color:#504530" />
    </linearGradient>
    <clipPath
       id="clipPath3243"
       clipPathUnits="userSpaceOnUse">
      <path
         inkscape:connector-curvature="0"
         id="path3245"
         d="m 244.326,437.061 24.909,0 0,-46.232 -24.909,0 0,46.232 z" />
    </clipPath>
    <linearGradient
       id="linearGradient3251"
       spreadMethod="pad"
       gradientTransform="matrix(27.019104,-1.7137299,-1.7137299,-27.019089,243.63135,414.85693)"
       gradientUnits="userSpaceOnUse"
       y2="0"
       x2="1"
       y1="0"
       x1="0">
      <stop
         id="stop3253"
         offset="0"
         style="stop-opacity:1;stop-color:#6f4a31" />
      <stop
         id="stop3255"
         offset="0.484665"
         style="stop-opacity:1;stop-color:#a9815b" />
      <stop
         id="stop3257"
         offset="1"
         style="stop-opacity:1;stop-color:#504530" />
    </linearGradient>
    <linearGradient
       id="linearGradient3285"
       spreadMethod="pad"
       gradientTransform="matrix(59.732193,10.661408,10.661408,-59.732178,197.14795,376.80176)"
       gradientUnits="userSpaceOnUse"
       y2="0"
       x2="1"
       y1="0"
       x1="0">
      <stop
         id="stop3287"
         offset="0"
         style="stop-opacity:1;stop-color:#fec02e" />
      <stop
         id="stop3289"
         offset="1"
         style="stop-opacity:1;stop-color:#ef7c37" />
    </linearGradient>
    <clipPath
       id="clipPath3297"
       clipPathUnits="userSpaceOnUse">
      <path
         inkscape:connector-curvature="0"
         id="path3299"
         d="M 0,792 612,792 612,0 0,0 0,792 z" />
    </clipPath>
    <radialGradient
       id="radialGradient3325"
       spreadMethod="pad"
       gradientTransform="matrix(30.319199,-1.9230499,-1.9230499,-30.319183,337.3916,427.31201)"
       gradientUnits="userSpaceOnUse"
       r="1"
       cy="0"
       cx="0"
       fy="0"
       fx="0">
      <stop
         id="stop3327"
         offset="0"
         style="stop-opacity:1;stop-color:#fedd28" />
      <stop
         id="stop3329"
         offset="1"
         style="stop-opacity:1;stop-color:#f47738" />
    </radialGradient>
    <clipPath
       id="clipPath3337"
       clipPathUnits="userSpaceOnUse">
      <path
         inkscape:connector-curvature="0"
         id="path3339"
         d="M 0,792 612,792 612,0 0,0 0,792 z" />
    </clipPath>
    <linearGradient
       id="linearGradient3357"
       spreadMethod="pad"
       gradientTransform="matrix(-73.769257,88.282562,88.282562,73.769272,441.63281,315.6875)"
       gradientUnits="userSpaceOnUse"
       y2="0"
       x2="1"
       y1="0"
       x1="0">
      <stop
         id="stop3359"
         offset="0"
         style="stop-opacity:1;stop-color:#fedd28" />
      <stop
         id="stop3361"
         offset="1"
         style="stop-opacity:1;stop-color:#ef7c37" />
    </linearGradient>
    <clipPath
       id="clipPath3369"
       clipPathUnits="userSpaceOnUse">
      <path
         inkscape:connector-curvature="0"
         id="path3371"
         d="M 0,792 612,792 612,0 0,0 0,792 z" />
    </clipPath>
    <linearGradient
       id="linearGradient3401"
       spreadMethod="pad"
       gradientTransform="matrix(81.37648,-5.1614532,-5.1614532,-81.376465,249.91162,370.21094)"
       gradientUnits="userSpaceOnUse"
       y2="0"
       x2="1"
       y1="0"
       x1="0">
      <stop
         id="stop3403"
         offset="0"
         style="stop-opacity:1;stop-color:#fedd28" />
      <stop
         id="stop3405"
         offset="1"
         style="stop-opacity:1;stop-color:#ef7c37" />
    </linearGradient>
    <clipPath
       id="clipPath3413"
       clipPathUnits="userSpaceOnUse">
      <path
         inkscape:connector-curvature="0"
         id="path3415"
         d="M 0,792 612,792 612,0 0,0 0,792 z" />
    </clipPath>
    <clipPath
       id="clipPath3445"
       clipPathUnits="userSpaceOnUse">
      <path
         inkscape:connector-curvature="0"
         id="path3447"
         d="m 326.936,442.068 130.135,0 0,-39.263 -130.135,0 0,39.263 z" />
    </clipPath>
    <radialGradient
       id="radialGradient3617"
       spreadMethod="pad"
       gradientTransform="matrix(30.632034,16.747421,16.747421,-30.632034,366.61426,476.66553)"
       gradientUnits="userSpaceOnUse"
       r="1"
       cy="0"
       cx="0"
       fy="0"
       fx="0">
      <stop
         id="stop3619"
         offset="0"
         style="stop-opacity:1;stop-color:#fedd28" />
      <stop
         id="stop3621"
         offset="1"
         style="stop-opacity:1;stop-color:#f47738" />
    </radialGradient>
    <clipPath
       id="clipPath3629"
       clipPathUnits="userSpaceOnUse">
      <path
         inkscape:connector-curvature="0"
         id="path3631"
         d="M 0,792 612,792 612,0 0,0 0,792 z" />
    </clipPath>
    <radialGradient
       id="radialGradient3649"
       spreadMethod="pad"
       gradientTransform="matrix(14.592804,9.2238617,9.2238617,-14.592804,344.04199,467.39697)"
       gradientUnits="userSpaceOnUse"
       r="1"
       cy="0"
       cx="0"
       fy="0"
       fx="0">
      <stop
         id="stop3651"
         offset="0"
         style="stop-opacity:1;stop-color:#ffffff" />
      <stop
         id="stop3653"
         offset="1"
         style="stop-opacity:1;stop-color:#dfe6e6" />
    </radialGradient>
    <clipPath
       id="clipPath3661"
       clipPathUnits="userSpaceOnUse">
      <path
         inkscape:connector-curvature="0"
         id="path3663"
         d="M 0,792 612,792 612,0 0,0 0,792 z" />
    </clipPath>
    <radialGradient
       id="radialGradient3685"
       spreadMethod="pad"
       gradientTransform="matrix(13.707794,6.5214539,6.5214539,-13.707794,387.5,484.22363)"
       gradientUnits="userSpaceOnUse"
       r="1"
       cy="0"
       cx="0"
       fy="0"
       fx="0">
      <stop
         id="stop3687"
         offset="0"
         style="stop-opacity:1;stop-color:#ffffff" />
      <stop
         id="stop3689"
         offset="1"
         style="stop-opacity:1;stop-color:#dfe6e6" />
    </radialGradient>
    <clipPath
       id="clipPath3697"
       clipPathUnits="userSpaceOnUse">
      <path
         inkscape:connector-curvature="0"
         id="path3699"
         d="M 0,792 612,792 612,0 0,0 0,792 z" />
    </clipPath>
    <linearGradient
       osb:paint="solid"
       id="linearGradient3767">
      <stop
         id="stop3769"
         offset="0"
         style="stop-color:#000000;stop-opacity:1;" />
    </linearGradient>
  </defs>
  <g
     transform="matrix(2.8565806,0,0,2.8565806,-104.51074,-456.6663)"
     id="g5">
    <g
       id="g7">
      <g
         id="g9">
        <path
           style="fill:#ffffff"
           inkscape:connector-curvature="0"
           id="path11"
           d="m 235.793,300.272 h -9.086 L 225.15,289.874 H 214.1 l -1.559,10.398 h -8.266 l 9.17,-57.299 h 13.18 z m -20.549,-18.171 h 8.676 l -4.339,-28.978 z" />
        <path
           style="fill:#ffffff"
           inkscape:connector-curvature="0"
           id="path13"
           d="m 249.955,242.974 h 27.83 v 8.184 h -9.41 v 49.115 h -9.011 v -49.115 h -9.409 z" />
        <path
           style="fill:#ffffff"
           inkscape:connector-curvature="0"
           id="path15"
           d="m 296.693,256.725 c 0,-9.169 4.83,-14.405 13.671,-14.405 8.841,0 13.669,5.236 13.669,14.405 v 29.792 c 0,9.172 -4.828,14.408 -13.669,14.408 -8.841,0 -13.671,-5.236 -13.671,-14.408 z m 9.006,30.37 c 0,4.088 1.803,5.645 4.665,5.645 2.866,0 4.665,-1.557 4.665,-5.645 V 256.15 c 0,-4.094 -1.799,-5.646 -4.665,-5.646 -2.862,0 -4.665,1.552 -4.665,5.646 z" />
        <path
           style="fill:#ffffff"
           inkscape:connector-curvature="0"
           id="path17"
           d="m 364.633,283.653 6.143,-40.68 h 12.522 v 57.299 h -8.515 v -41.094 l -6.22,41.094 h -8.513 l -6.711,-40.521 v 40.521 h -7.857 v -57.299 h 12.523 z" />
        <path
           style="fill:#ffffff"
           inkscape:connector-curvature="0"
           id="path19"
           d="m 405.562,242.974 h 9.004 v 57.299 h -9.004 z" />
        <path
           style="fill:#ffffff"
           inkscape:connector-curvature="0"
           id="path21"
           d="m 462.943,278.905 v 7.611 c 0,9.172 -4.582,14.408 -13.424,14.408 -8.842,0 -13.426,-5.236 -13.426,-14.408 v -29.792 c 0,-9.169 4.584,-14.405 13.426,-14.405 8.842,0 13.424,5.236 13.424,14.405 v 5.565 h -8.513 v -6.14 c 0,-4.094 -1.802,-5.646 -4.666,-5.646 -2.864,0 -4.663,1.552 -4.663,5.646 v 30.944 c 0,4.088 1.799,5.564 4.663,5.564 2.864,0 4.666,-1.477 4.666,-5.564 v -8.189 h 8.513 z" />
      </g>
      <g
         id="g23">
        <path
           style="fill:#46d200"
           inkscape:connector-curvature="0"
           id="path25"
           d="m 262.402,220.729 c -0.089,-0.295 -0.236,-0.553 -0.432,-0.756 -0.195,-0.222 -0.461,-0.398 -0.812,-0.543 -0.294,-0.118 -0.648,-0.209 -1.086,-0.268 -0.414,-0.057 -0.904,-0.088 -1.458,-0.094 l -7.243,-0.077 -0.109,10.112 2.488,0.025 0.039,-3.449 4.014,0.043 c 0.707,0.006 1.281,-0.014 1.76,-0.062 0.5,-0.053 0.934,-0.137 1.283,-0.254 0.391,-0.131 0.709,-0.307 0.941,-0.523 0.238,-0.221 0.422,-0.49 0.541,-0.801 0.096,-0.27 0.156,-0.562 0.178,-0.877 0.018,-0.261 0.023,-0.548 0.027,-0.852 0.002,-0.291 0.002,-0.562 -0.004,-0.805 -0.006,-0.297 -0.05,-0.569 -0.127,-0.819 z m -2.357,1.598 c 0,0.248 -0.006,0.463 -0.018,0.651 -0.006,0.138 -0.033,0.218 -0.07,0.284 0,0 -0.055,0.037 -0.234,0.072 -0.178,0.035 -0.414,0.061 -0.713,0.072 -0.338,0.014 -0.738,0.016 -1.182,0.011 l -4.018,-0.044 0.025,-2.047 4.011,0.043 c 0.478,0.006 0.878,0.02 1.201,0.029 0.29,0.012 0.528,0.037 0.71,0.071 0.186,0.04 0.252,0.08 0.25,0.066 0.01,0.017 0.029,0.073 0.035,0.199 0.006,0.165 0.009,0.367 0.003,0.593 z" />
        <path
           style="fill:#46d200"
           inkscape:connector-curvature="0"
           id="path27"
           d="m 288.298,220.966 c -0.11,-0.299 -0.296,-0.557 -0.533,-0.764 -0.224,-0.21 -0.532,-0.375 -0.931,-0.51 -0.342,-0.111 -0.758,-0.197 -1.268,-0.256 -0.498,-0.055 -1.088,-0.086 -1.756,-0.096 l -6.861,-0.072 -0.109,10.11 2.488,0.027 0.036,-3.449 4.198,0.046 c 0.435,0.003 0.832,0.017 1.191,0.037 0.271,0.014 0.516,0.047 0.701,0.087 0.182,0.04 0.234,0.079 0.254,0.099 0.012,0.035 0.035,0.121 0.043,0.266 0.008,0.186 0.008,0.399 0.006,0.654 l -0.027,2.332 2.488,0.027 0.025,-2.331 c 0,-0.36 -0.01,-0.667 -0.041,-0.944 -0.043,-0.332 -0.129,-0.631 -0.266,-0.896 -0.061,-0.114 -0.131,-0.221 -0.213,-0.318 0.104,-0.105 0.201,-0.227 0.289,-0.352 0.172,-0.27 0.293,-0.586 0.363,-0.952 0.062,-0.317 0.096,-0.681 0.1,-1.077 0.002,-0.294 0,-0.57 -0.013,-0.818 -0.011,-0.309 -0.069,-0.594 -0.164,-0.85 z m -4.533,2.732 -4.374,-0.047 0.021,-2.048 4.375,0.048 c 0.478,0.004 0.877,0.018 1.205,0.026 0.288,0.015 0.525,0.038 0.707,0.074 0.189,0.039 0.254,0.071 0.25,0.065 0.006,0.016 0.029,0.07 0.029,0.195 0.012,0.168 0.014,0.364 0.011,0.596 -0.003,0.249 -0.011,0.465 -0.021,0.649 -0.01,0.14 -0.033,0.22 -0.068,0.286 0,0 -0.059,0.037 -0.236,0.07 -0.178,0.037 -0.417,0.061 -0.711,0.074 -0.339,0.016 -0.736,0.016 -1.188,0.012 z" />
        <path
           style="fill:#46d200"
           inkscape:connector-curvature="0"
           id="path29"
           d="m 315.35,222.04 c -0.088,-0.412 -0.232,-0.787 -0.43,-1.109 -0.219,-0.348 -0.531,-0.637 -0.92,-0.86 -0.363,-0.208 -0.801,-0.36 -1.336,-0.464 -0.5,-0.097 -1.09,-0.146 -1.807,-0.155 l -3.281,-0.033 c -0.717,-0.009 -1.307,0.028 -1.805,0.114 -0.539,0.09 -0.982,0.234 -1.346,0.431 -0.398,0.22 -0.717,0.5 -0.941,0.842 -0.209,0.32 -0.363,0.688 -0.461,1.107 -0.088,0.378 -0.135,0.796 -0.156,1.266 -0.014,0.431 -0.025,0.905 -0.031,1.429 -0.005,0.521 -0.005,0.994 0.002,1.428 0.008,0.463 0.051,0.893 0.131,1.268 0.086,0.418 0.234,0.793 0.432,1.109 0.217,0.348 0.525,0.642 0.928,0.873 0.361,0.202 0.811,0.356 1.332,0.453 0.5,0.1 1.092,0.146 1.804,0.154 l 3.28,0.036 c 0.715,0.007 1.307,-0.027 1.804,-0.112 0.524,-0.09 0.976,-0.234 1.35,-0.43 0.399,-0.219 0.717,-0.506 0.94,-0.848 0.205,-0.316 0.357,-0.684 0.453,-1.102 0.086,-0.375 0.143,-0.801 0.16,-1.268 0.016,-0.431 0.027,-0.906 0.038,-1.425 0.005,-0.525 10e-4,-0.999 -0.007,-1.431 -0.01,-0.47 -0.053,-0.888 -0.133,-1.273 z m -4.58,5.578 -3.279,-0.035 c -0.455,-0.005 -0.848,-0.018 -1.159,-0.049 -0.268,-0.025 -0.472,-0.07 -0.614,-0.131 -0.092,-0.037 -0.154,-0.082 -0.189,-0.129 -0.043,-0.062 -0.092,-0.174 -0.133,-0.385 -0.041,-0.229 -0.066,-0.523 -0.072,-0.873 -0.002,-0.383 -0.006,-0.846 0,-1.383 0.006,-0.541 0.018,-1.002 0.029,-1.395 0.01,-0.346 0.035,-0.634 0.084,-0.863 0.035,-0.166 0.086,-0.295 0.139,-0.371 0.04,-0.055 0.109,-0.098 0.195,-0.134 0.148,-0.058 0.359,-0.097 0.619,-0.119 0.314,-0.024 0.705,-0.033 1.166,-0.027 l 3.276,0.035 c 0.46,0.005 0.853,0.022 1.163,0.054 0.262,0.024 0.467,0.068 0.613,0.131 0.088,0.039 0.15,0.082 0.186,0.133 0.057,0.081 0.102,0.215 0.137,0.38 0.041,0.228 0.064,0.519 0.07,0.869 0.006,0.39 0.004,0.852 0,1.392 -0.008,0.537 -0.016,0.998 -0.029,1.383 -0.014,0.352 -0.045,0.646 -0.09,0.869 -0.047,0.211 -0.104,0.322 -0.139,0.373 -0.039,0.053 -0.105,0.095 -0.205,0.135 -0.143,0.057 -0.348,0.098 -0.607,0.117 -0.322,0.023 -0.712,0.029 -1.161,0.023 z" />
        <path
           style="fill:#46d200"
           inkscape:connector-curvature="0"
           id="path31"
           d="m 336.744,226.769 c -0.002,0.223 -0.023,0.412 -0.066,0.559 -0.021,0.088 -0.055,0.154 -0.098,0.193 -0.053,0.051 -0.139,0.096 -0.252,0.123 -0.121,0.03 -0.344,0.069 -0.711,0.064 l -2.543,-0.027 c -0.223,-0.002 -0.406,-0.02 -0.537,-0.047 -0.037,-0.01 -0.043,-0.02 -0.059,-0.031 0,-0.006 -0.053,-0.07 -0.088,-0.289 -0.037,-0.217 -0.06,-0.534 -0.055,-0.939 l 0.011,-1.061 -2.485,-0.026 -0.012,1.062 c -0.004,0.589 0.021,1.074 0.084,1.49 0.074,0.487 0.24,0.898 0.496,1.229 0.27,0.337 0.646,0.588 1.107,0.729 0.4,0.122 0.896,0.186 1.514,0.193 l 2.539,0.027 c 0.609,0.006 1.117,-0.043 1.549,-0.148 0.482,-0.116 0.887,-0.316 1.197,-0.594 0.324,-0.285 0.559,-0.656 0.699,-1.092 0.125,-0.389 0.191,-0.849 0.195,-1.369 l 0.076,-6.871 -2.49,-0.027 z" />
        <polygon
           style="fill:#46d200"
           id="polygon33"
           points="364.338,230.326 364.364,228.019 356.739,227.938 356.758,226.251 364.018,226.331 364.041,224.021 356.78,223.94 356.797,222.44 364.424,222.522 364.448,220.214 354.336,220.105 354.227,230.218 " />
        <path
           style="fill:#46d200"
           inkscape:connector-curvature="0"
           id="path35"
           d="m 389.973,221.948 c -0.156,-0.301 -0.367,-0.566 -0.623,-0.779 -0.256,-0.215 -0.569,-0.392 -0.941,-0.524 -0.338,-0.126 -0.744,-0.219 -1.195,-0.28 -0.439,-0.062 -0.951,-0.096 -1.514,-0.102 l -2.553,-0.029 c -0.713,-0.008 -1.307,0.031 -1.801,0.117 -0.543,0.09 -0.984,0.232 -1.349,0.432 -0.397,0.215 -0.712,0.498 -0.942,0.842 -0.208,0.313 -0.361,0.688 -0.461,1.105 -0.086,0.381 -0.137,0.807 -0.154,1.268 -0.016,0.429 -0.029,0.902 -0.034,1.428 -0.008,0.52 0,0.993 0.003,1.42 0.008,0.465 0.049,0.894 0.133,1.275 0.082,0.419 0.232,0.791 0.432,1.109 0.219,0.352 0.529,0.644 0.928,0.873 0.361,0.199 0.812,0.356 1.331,0.452 0.491,0.095 1.1,0.147 1.804,0.155 l 2.549,0.027 c 0.588,0.006 1.082,-0.014 1.516,-0.063 0.473,-0.056 0.867,-0.142 1.211,-0.265 0.375,-0.131 0.697,-0.312 0.954,-0.527 0.263,-0.221 0.478,-0.49 0.641,-0.801 0.151,-0.289 0.261,-0.62 0.317,-0.992 0.053,-0.324 0.082,-0.689 0.088,-1.086 l 0.006,-0.699 -2.485,-0.027 -0.007,0.697 c -0.002,0.277 -0.02,0.514 -0.044,0.707 -0.024,0.199 -0.066,0.311 -0.093,0.371 -0.031,0.062 -0.066,0.109 -0.113,0.145 -0.041,0.031 -0.123,0.075 -0.285,0.121 -0.164,0.045 -0.377,0.078 -0.642,0.092 -0.274,0.017 -0.614,0.023 -1.038,0.019 l -2.551,-0.026 c -0.449,-0.006 -0.845,-0.02 -1.156,-0.051 -0.266,-0.026 -0.473,-0.07 -0.617,-0.131 -0.135,-0.055 -0.176,-0.114 -0.184,-0.131 -0.045,-0.055 -0.1,-0.171 -0.138,-0.383 -0.042,-0.225 -0.069,-0.521 -0.071,-0.871 -0.004,-0.385 -0.004,-0.848 0.002,-1.383 0.006,-0.543 0.016,-1.007 0.027,-1.393 0.009,-0.35 0.039,-0.643 0.086,-0.866 0.035,-0.163 0.084,-0.296 0.139,-0.372 0.043,-0.055 0.105,-0.098 0.195,-0.135 0.148,-0.057 0.359,-0.095 0.619,-0.117 0.314,-0.023 0.705,-0.033 1.162,-0.029 l 2.551,0.029 c 0.521,0.006 0.955,0.027 1.29,0.068 0.334,0.035 0.513,0.115 0.608,0.172 0.061,0.037 0.135,0.096 0.189,0.248 0.045,0.127 0.103,0.375 0.098,0.83 l -0.01,0.703 2.486,0.028 0.006,-0.702 c 0.005,-0.364 -0.016,-0.707 -0.062,-1.025 -0.058,-0.352 -0.162,-0.666 -0.308,-0.944 z" />
        <polygon
           style="fill:#46d200"
           id="polygon37"
           points="411.576,223.034 415.934,223.079 415.959,220.771 404.758,220.651 404.731,222.958 409.092,223.007 409.006,230.81 411.492,230.835 " />
      </g>
    </g>
    <path
       style="fill:#46d200"
       inkscape:connector-curvature="0"
       id="path39"
       d="m 108.025,270.747 c -4.828,0 -12.182,-0.432 -12.182,-0.432 -0.77,-0.045 -1.031,-0.592 -0.576,-1.215 0,0 4.562,-6.283 7.871,-10.217 1.635,-1.936 3.947,-4.498 3.947,-4.498 0.518,-0.574 1.361,-0.574 1.881,0 0,0 2.308,2.562 3.943,4.498 3.312,3.934 7.875,10.217 7.875,10.217 0.454,0.623 0.195,1.17 -0.574,1.215 0.001,0 -7.358,0.432 -12.185,0.432 z" />
    <path
       style="fill:#6b6b6b"
       inkscape:connector-curvature="0"
       id="path41"
       d="m 179.465,265.06 c -0.027,-6.996 -16.971,-13.006 -41.387,-15.742 -1.461,-0.064 -2.223,1.014 -2.244,2.05 -0.041,0.825 0.529,1.841 1.566,2.009 0.193,0.033 0.361,0.072 0.578,0.105 19.672,2.055 33.066,6.089 33.088,10.747 0.021,4.542 -12.664,8.519 -31.514,10.667 -4.926,-8.047 -10.936,-16.685 -17.799,-25.404 -3.235,-4.115 -6.5,-8.031 -9.74,-11.734 16.715,-18.59 31.447,-29.887 35.706,-26.554 3.294,2.579 -0.46,13.478 -8.872,27.784 -0.264,0.463 -0.48,1.818 0.562,2.524 0.982,0.666 2.309,0.298 2.887,-0.636 0.082,-0.143 0.234,-0.361 0.318,-0.506 10.367,-18.119 14.562,-32.391 9.586,-36.285 -6.082,-4.758 -23.951,7.378 -43.375,28.363 v -0.006 c -0.268,0.287 -0.533,0.57 -0.801,0.861 -0.266,-0.291 -0.533,-0.574 -0.799,-0.861 v 0.006 C 87.8,211.463 69.93,199.326 63.85,204.085 c -4.977,3.895 -0.782,18.166 9.588,36.285 0.082,0.145 0.234,0.363 0.316,0.506 0.578,0.934 1.904,1.302 2.889,0.636 1.041,-0.706 0.824,-2.062 0.561,-2.524 -8.414,-14.307 -12.166,-25.205 -8.873,-27.784 4.26,-3.333 18.99,7.964 35.707,26.554 -3.24,3.703 -6.506,7.619 -9.74,11.734 -6.864,8.72 -12.873,17.357 -17.799,25.404 -18.85,-2.148 -31.537,-6.125 -31.513,-10.667 0.021,-4.658 13.414,-8.692 33.087,-10.747 0.219,-0.033 0.385,-0.072 0.578,-0.105 1.037,-0.168 1.607,-1.184 1.565,-2.009 -0.021,-1.036 -0.782,-2.114 -2.243,-2.05 -24.417,2.736 -41.357,8.746 -41.387,15.742 -0.029,6.555 14.783,12.279 36.685,15.287 -10.263,17.996 -14.376,32.143 -9.421,36.021 5.365,4.197 19.92,-4.764 36.615,-21.354 0.557,-0.508 0.902,-1.853 -0.109,-2.84 -0.65,-0.634 -1.812,-0.766 -2.617,-0.174 -0.314,0.23 -0.613,0.527 -0.832,0.734 -13.022,13.066 -23.684,20.308 -27.199,17.557 -3.42,-2.67 0.744,-14.119 9.826,-29.184 8.496,0.914 17.855,1.432 27.691,1.471 v 0.002 c 0.139,0 0.273,0 0.412,0.002 0.105,0 0.211,0.002 0.317,0.002 0.022,0 0.048,0 0.069,0 0.023,0 0.049,0 0.071,0 0.106,0 0.212,-0.002 0.318,-0.002 0.136,-0.002 0.272,-0.002 0.411,-0.002 v -0.002 c 9.834,-0.039 19.195,-0.557 27.692,-1.471 9.081,15.064 13.243,26.514 9.825,29.184 -3.516,2.751 -14.178,-4.49 -27.199,-17.557 -0.219,-0.207 -0.52,-0.504 -0.832,-0.734 -0.805,-0.592 -1.967,-0.46 -2.617,0.174 -1.012,0.987 -0.666,2.332 -0.109,2.84 16.697,16.59 31.25,25.551 36.615,21.354 4.955,-3.879 0.84,-18.025 -9.421,-36.021 21.905,-3.008 36.717,-8.733 36.688,-15.287 z m -71.212,11.507 c -0.075,0 -0.151,10e-4 -0.228,10e-4 -0.074,0 -0.149,-10e-4 -0.227,-10e-4 -8.807,-0.014 -17.186,-0.382 -24.793,-1.028 4.523,-7.011 9.94,-14.61 16.037,-22.352 2.736,-3.478 5.473,-6.798 8.184,-9.97 v 0.008 c 0.266,-0.312 0.533,-0.63 0.799,-0.938 0.268,0.309 0.533,0.626 0.801,0.938 v -0.008 c 2.71,3.172 5.446,6.492 8.184,9.97 6.098,7.741 11.514,15.341 16.037,22.352 -7.608,0.647 -15.986,1.015 -24.794,1.028 z" />
  </g>
</svg>
