<?xml version="1.0" encoding="UTF-8" standalone="no"?>
<!-- Created with Inkscape (http://www.inkscape.org/) -->

<svg
   xmlns:osb="http://www.openswatchbook.org/uri/2009/osb"
   xmlns:dc="http://purl.org/dc/elements/1.1/"
   xmlns:cc="http://creativecommons.org/ns#"
   xmlns:rdf="http://www.w3.org/1999/02/22-rdf-syntax-ns#"
   xmlns:svg="http://www.w3.org/2000/svg"
   xmlns="http://www.w3.org/2000/svg"
   xmlns:sodipodi="http://sodipodi.sourceforge.net/DTD/sodipodi-0.dtd"
   xmlns:inkscape="http://www.inkscape.org/namespaces/inkscape"
   version="1.1"
   width="1600"
   height="450"
   id="svg2855"
   sodipodi:docname="rdo-logo.svg"
   viewBox="0 0 1600 450"
   inkscape:version="0.92pre1 r">
  <metadata
     id="metadata6281">
    <rdf:RDF>
      <cc:Work
         rdf:about="">
        <dc:format>image/svg+xml</dc:format>
        <dc:type
           rdf:resource="http://purl.org/dc/dcmitype/StillImage" />
        <dc:title></dc:title>
      </cc:Work>
    </rdf:RDF>
  </metadata>
  <sodipodi:namedview
     pagecolor="#000000"
     bordercolor="#666666"
     borderopacity="1"
     objecttolerance="10"
     gridtolerance="10"
     guidetolerance="10"
     inkscape:pageopacity="0"
     inkscape:pageshadow="2"
     inkscape:window-width="2560"
     inkscape:window-height="1376"
     id="namedview6279"
     showgrid="false"
     inkscape:pagecheckerboard="false"
     inkscape:zoom="0.7160325"
     inkscape:cx="673.13319"
     inkscape:cy="189.28486"
     inkscape:window-x="1920"
     inkscape:window-y="27"
     inkscape:window-maximized="1"
     inkscape:current-layer="g2133"
     showguides="true"
     inkscape:guide-bbox="true"
     inkscape:snap-page="true">
    <sodipodi:guide
       position="888.92614,40.500955"
       orientation="0,1"
       id="guide7798"
       inkscape:locked="false" />
  </sodipodi:namedview>
  <defs
     id="defs2857">
    <linearGradient
       id="linearGradient3007"
       spreadMethod="pad"
       gradientTransform="matrix(111.60057,-7.078476,-7.078476,-111.60057,347.47559,419.51123)"
       gradientUnits="userSpaceOnUse"
       y2="0"
       x2="1"
       y1="0"
       x1="0">
      <stop
         id="stop3009"
         offset="0"
         style="stop-opacity:1;stop-color:#fedd28" />
      <stop
         id="stop3011"
         offset="1"
         style="stop-opacity:1;stop-color:#ef7c37" />
    </linearGradient>
    <clipPath
       id="clipPath3019"
       clipPathUnits="userSpaceOnUse">
      <path
         inkscape:connector-curvature="0"
         id="path3021"
         d="M 0,792 612,792 612,0 0,0 0,792 z" />
    </clipPath>
    <linearGradient
       id="linearGradient3043"
       spreadMethod="pad"
       gradientTransform="matrix(35.21312,-2.2334595,-2.2334595,-35.21312,290.73828,441.78076)"
       gradientUnits="userSpaceOnUse"
       y2="0"
       x2="1"
       y1="0"
       x1="0">
      <stop
         id="stop3045"
         offset="0"
         style="stop-opacity:1;stop-color:#fedd28" />
      <stop
         id="stop3047"
         offset="1"
         style="stop-opacity:1;stop-color:#ef7c37" />
    </linearGradient>
    <clipPath
       id="clipPath3055"
       clipPathUnits="userSpaceOnUse">
      <path
         inkscape:connector-curvature="0"
         id="path3057"
         d="M 0,792 612,792 612,0 0,0 0,792 z" />
    </clipPath>
    <linearGradient
       id="linearGradient3079"
       spreadMethod="pad"
       gradientTransform="matrix(35.642441,-2.2606812,-2.2606812,-35.642441,237.27734,380.19141)"
       gradientUnits="userSpaceOnUse"
       y2="0"
       x2="1"
       y1="0"
       x1="0">
      <stop
         id="stop3081"
         offset="0"
         style="stop-opacity:1;stop-color:#fedd28" />
      <stop
         id="stop3083"
         offset="1"
         style="stop-opacity:1;stop-color:#ef7c37" />
    </linearGradient>
    <clipPath
       id="clipPath3091"
       clipPathUnits="userSpaceOnUse">
      <path
         inkscape:connector-curvature="0"
         id="path3093"
         d="M 0,792 612,792 612,0 0,0 0,792 z" />
    </clipPath>
    <linearGradient
       id="linearGradient3115"
       spreadMethod="pad"
       gradientTransform="matrix(115.62328,-7.3336182,-7.3336182,-115.62328,138.61133,407.42041)"
       gradientUnits="userSpaceOnUse"
       y2="0"
       x2="1"
       y1="0"
       x1="0">
      <stop
         id="stop3117"
         offset="0"
         style="stop-opacity:1;stop-color:#fedd28" />
      <stop
         id="stop3119"
         offset="1"
         style="stop-opacity:1;stop-color:#ef7c37" />
    </linearGradient>
    <clipPath
       id="clipPath3127"
       clipPathUnits="userSpaceOnUse">
      <path
         inkscape:connector-curvature="0"
         id="path3129"
         d="M 0,792 612,792 612,0 0,0 0,792 z" />
    </clipPath>
    <radialGradient
       id="radialGradient3151"
       spreadMethod="pad"
       gradientTransform="matrix(40.881607,-2.5929871,-2.7251434,-42.950623,270.76758,428.10107)"
       gradientUnits="userSpaceOnUse"
       r="1"
       cy="0"
       cx="0"
       fy="0"
       fx="0">
      <stop
         id="stop3153"
         offset="0"
         style="stop-opacity:1;stop-color:#fedd28" />
      <stop
         id="stop3155"
         offset="1"
         style="stop-opacity:1;stop-color:#f47738" />
    </radialGradient>
    <clipPath
       id="clipPath3163"
       clipPathUnits="userSpaceOnUse">
      <path
         inkscape:connector-curvature="0"
         id="path3165"
         d="M 0,792 612,792 612,0 0,0 0,792 z" />
    </clipPath>
    <clipPath
       id="clipPath3175"
       clipPathUnits="userSpaceOnUse">
      <path
         inkscape:connector-curvature="0"
         id="path3177"
         d="m 216.089,424.122 23.589,0 0,-31.723 -23.589,0 0,31.723 z" />
    </clipPath>
    <linearGradient
       id="linearGradient3183"
       spreadMethod="pad"
       gradientTransform="matrix(25.209732,-1.5989685,-1.5989685,-25.209732,215.42432,409.06494)"
       gradientUnits="userSpaceOnUse"
       y2="0"
       x2="1"
       y1="0"
       x1="0">
      <stop
         id="stop3185"
         offset="0"
         style="stop-opacity:1;stop-color:#6f4a31" />
      <stop
         id="stop3187"
         offset="0.484665"
         style="stop-opacity:1;stop-color:#a9815b" />
      <stop
         id="stop3189"
         offset="1"
         style="stop-opacity:1;stop-color:#504530" />
    </linearGradient>
    <clipPath
       id="clipPath3209"
       clipPathUnits="userSpaceOnUse">
      <path
         inkscape:connector-curvature="0"
         id="path3211"
         d="m 227.195,432.313 26.912,0 0,-41.433 -26.912,0 0,41.433 z" />
    </clipPath>
    <linearGradient
       id="linearGradient3217"
       spreadMethod="pad"
       gradientTransform="matrix(28.927872,-1.8348083,-1.8348083,-28.927872,226.43701,412.53955)"
       gradientUnits="userSpaceOnUse"
       y2="0"
       x2="1"
       y1="0"
       x1="0">
      <stop
         id="stop3219"
         offset="0"
         style="stop-opacity:1;stop-color:#6f4a31" />
      <stop
         id="stop3221"
         offset="0.484665"
         style="stop-opacity:1;stop-color:#a9815b" />
      <stop
         id="stop3223"
         offset="1"
         style="stop-opacity:1;stop-color:#504530" />
    </linearGradient>
    <clipPath
       id="clipPath3243"
       clipPathUnits="userSpaceOnUse">
      <path
         inkscape:connector-curvature="0"
         id="path3245"
         d="m 244.326,437.061 24.909,0 0,-46.232 -24.909,0 0,46.232 z" />
    </clipPath>
    <linearGradient
       id="linearGradient3251"
       spreadMethod="pad"
       gradientTransform="matrix(27.019104,-1.7137299,-1.7137299,-27.019089,243.63135,414.85693)"
       gradientUnits="userSpaceOnUse"
       y2="0"
       x2="1"
       y1="0"
       x1="0">
      <stop
         id="stop3253"
         offset="0"
         style="stop-opacity:1;stop-color:#6f4a31" />
      <stop
         id="stop3255"
         offset="0.484665"
         style="stop-opacity:1;stop-color:#a9815b" />
      <stop
         id="stop3257"
         offset="1"
         style="stop-opacity:1;stop-color:#504530" />
    </linearGradient>
    <linearGradient
       id="linearGradient3285"
       spreadMethod="pad"
       gradientTransform="matrix(59.732193,10.661408,10.661408,-59.732178,197.14795,376.80176)"
       gradientUnits="userSpaceOnUse"
       y2="0"
       x2="1"
       y1="0"
       x1="0">
      <stop
         id="stop3287"
         offset="0"
         style="stop-opacity:1;stop-color:#fec02e" />
      <stop
         id="stop3289"
         offset="1"
         style="stop-opacity:1;stop-color:#ef7c37" />
    </linearGradient>
    <clipPath
       id="clipPath3297"
       clipPathUnits="userSpaceOnUse">
      <path
         inkscape:connector-curvature="0"
         id="path3299"
         d="M 0,792 612,792 612,0 0,0 0,792 z" />
    </clipPath>
    <radialGradient
       id="radialGradient3325"
       spreadMethod="pad"
       gradientTransform="matrix(30.319199,-1.9230499,-1.9230499,-30.319183,337.3916,427.31201)"
       gradientUnits="userSpaceOnUse"
       r="1"
       cy="0"
       cx="0"
       fy="0"
       fx="0">
      <stop
         id="stop3327"
         offset="0"
         style="stop-opacity:1;stop-color:#fedd28" />
      <stop
         id="stop3329"
         offset="1"
         style="stop-opacity:1;stop-color:#f47738" />
    </radialGradient>
    <clipPath
       id="clipPath3337"
       clipPathUnits="userSpaceOnUse">
      <path
         inkscape:connector-curvature="0"
         id="path3339"
         d="M 0,792 612,792 612,0 0,0 0,792 z" />
    </clipPath>
    <linearGradient
       id="linearGradient3357"
       spreadMethod="pad"
       gradientTransform="matrix(-73.769257,88.282562,88.282562,73.769272,441.63281,315.6875)"
       gradientUnits="userSpaceOnUse"
       y2="0"
       x2="1"
       y1="0"
       x1="0">
      <stop
         id="stop3359"
         offset="0"
         style="stop-opacity:1;stop-color:#fedd28" />
      <stop
         id="stop3361"
         offset="1"
         style="stop-opacity:1;stop-color:#ef7c37" />
    </linearGradient>
    <clipPath
       id="clipPath3369"
       clipPathUnits="userSpaceOnUse">
      <path
         inkscape:connector-curvature="0"
         id="path3371"
         d="M 0,792 612,792 612,0 0,0 0,792 z" />
    </clipPath>
    <linearGradient
       id="linearGradient3401"
       spreadMethod="pad"
       gradientTransform="matrix(81.37648,-5.1614532,-5.1614532,-81.376465,249.91162,370.21094)"
       gradientUnits="userSpaceOnUse"
       y2="0"
       x2="1"
       y1="0"
       x1="0">
      <stop
         id="stop3403"
         offset="0"
         style="stop-opacity:1;stop-color:#fedd28" />
      <stop
         id="stop3405"
         offset="1"
         style="stop-opacity:1;stop-color:#ef7c37" />
    </linearGradient>
    <clipPath
       id="clipPath3413"
       clipPathUnits="userSpaceOnUse">
      <path
         inkscape:connector-curvature="0"
         id="path3415"
         d="M 0,792 612,792 612,0 0,0 0,792 z" />
    </clipPath>
    <clipPath
       id="clipPath3445"
       clipPathUnits="userSpaceOnUse">
      <path
         inkscape:connector-curvature="0"
         id="path3447"
         d="m 326.936,442.068 130.135,0 0,-39.263 -130.135,0 0,39.263 z" />
    </clipPath>
    <radialGradient
       id="radialGradient3617"
       spreadMethod="pad"
       gradientTransform="matrix(30.632034,16.747421,16.747421,-30.632034,366.61426,476.66553)"
       gradientUnits="userSpaceOnUse"
       r="1"
       cy="0"
       cx="0"
       fy="0"
       fx="0">
      <stop
         id="stop3619"
         offset="0"
         style="stop-opacity:1;stop-color:#fedd28" />
      <stop
         id="stop3621"
         offset="1"
         style="stop-opacity:1;stop-color:#f47738" />
    </radialGradient>
    <clipPath
       id="clipPath3629"
       clipPathUnits="userSpaceOnUse">
      <path
         inkscape:connector-curvature="0"
         id="path3631"
         d="M 0,792 612,792 612,0 0,0 0,792 z" />
    </clipPath>
    <radialGradient
       id="radialGradient3649"
       spreadMethod="pad"
       gradientTransform="matrix(14.592804,9.2238617,9.2238617,-14.592804,344.04199,467.39697)"
       gradientUnits="userSpaceOnUse"
       r="1"
       cy="0"
       cx="0"
       fy="0"
       fx="0">
      <stop
         id="stop3651"
         offset="0"
         style="stop-opacity:1;stop-color:#ffffff" />
      <stop
         id="stop3653"
         offset="1"
         style="stop-opacity:1;stop-color:#dfe6e6" />
    </radialGradient>
    <clipPath
       id="clipPath3661"
       clipPathUnits="userSpaceOnUse">
      <path
         inkscape:connector-curvature="0"
         id="path3663"
         d="M 0,792 612,792 612,0 0,0 0,792 z" />
    </clipPath>
    <radialGradient
       id="radialGradient3685"
       spreadMethod="pad"
       gradientTransform="matrix(13.707794,6.5214539,6.5214539,-13.707794,387.5,484.22363)"
       gradientUnits="userSpaceOnUse"
       r="1"
       cy="0"
       cx="0"
       fy="0"
       fx="0">
      <stop
         id="stop3687"
         offset="0"
         style="stop-opacity:1;stop-color:#ffffff" />
      <stop
         id="stop3689"
         offset="1"
         style="stop-opacity:1;stop-color:#dfe6e6" />
    </radialGradient>
    <clipPath
       id="clipPath3697"
       clipPathUnits="userSpaceOnUse">
      <path
         inkscape:connector-curvature="0"
         id="path3699"
         d="M 0,792 612,792 612,0 0,0 0,792 z" />
    </clipPath>
    <linearGradient
       osb:paint="solid"
       id="linearGradient3767">
      <stop
         id="stop3769"
         offset="0"
         style="stop-color:#000000;stop-opacity:1;" />
    </linearGradient>
  </defs>
  <g
     transform="matrix(4.8056932,0,0,4.8056932,-692.01982,-1647.0228)"
     id="layer1"
     inkscape:label="Layer 1">
    <g
       transform="translate(-0.5)"
       id="g2133">
      <rect
         ry="0"
         rx="0"
         y="365.37109"
         x="144.5"
         height="70.991074"
         width="177.47769"
         id="rect822"
         style="color:#000000;clip-rule:nonzero;display:inline;overflow:visible;visibility:visible;color-interpolation:sRGB;color-interpolation-filters:linearRGB;fill:#800f0f;fill-opacity:1;fill-rule:nonzero;stroke:none;stroke-width:1.77477694;marker:none;enable-background:accumulate" />
      <g
         transform="matrix(0.88738845,0,0,0.88738845,15.71713,49.069042)"
         id="g841">
        <path
           id="path2109"
           d="m 170.14231,369.68183 v 11.55316 h 20.87101 c 4.43276,0 6.86393,0.98747 8.02904,1.9948 h 0.0166 l 0.0166,0.0166 c 1.27998,1.09124 1.89504,2.23001 1.89504,5.11996 0,1.49237 -0.23164,2.66613 -0.61506,3.65713 v 0.0332 l -0.0166,0.0166 c -0.32822,0.87063 -0.74934,1.46881 -1.41298,2.0613 l -0.0166,0.0166 -0.0166,0.0333 c -0.46525,0.42458 -1.78271,1.19323 -2.90906,1.5792 -1.35047,0.46282 -3.06567,0.68157 -4.97037,0.68157 h -1.08051 l -19.80712,0.0166 v 26.58061 h 12.96615 v -15.04404 h 6.84097 0.74805 c 2.09692,0.90071 4.01491,2.23852 5.55216,3.90646 2.03283,2.20564 3.45196,5.039 4.02284,7.99578 0.19899,1.03057 0.29888,2.09217 0.29922,3.1418 l 7.21451,-0.0166 v 0.0166 h 7.97915 c 1.6e-4,-1.63482 -0.23172,-3.26108 -0.66492,-4.83737 -1.51539,-5.51397 -5.55025,-10.01588 -10.77188,-12.18485 1.83669,-0.7528 3.63248,-1.75055 5.30283,-3.17505 h 0.0166 c 2.07589,-1.74975 3.73217,-4.00141 4.75426,-6.51632 l 0.0166,-0.0499 c 1.01699,-2.48025 1.4961,-5.1716 1.4961,-7.91267 0,-5.42434 -2.23308,-10.71802 -6.38334,-14.03004 -4.26483,-3.43663 -9.84228,-4.65452 -16.22431,-4.65452 h -2.27739 z"
           style="color:#000000;font-style:normal;font-variant:normal;font-weight:bold;font-stretch:normal;font-size:131.65306091px;line-height:125%;font-family:'Krona One';-inkscape-font-specification:'Krona One Bold';text-indent:0;text-align:center;text-decoration:none;text-decoration-line:none;letter-spacing:-10.04098225px;word-spacing:0px;text-transform:none;writing-mode:lr-tb;direction:ltr;baseline-shift:baseline;text-anchor:middle;display:inline;overflow:visible;visibility:visible;fill:#ffffff;fill-opacity:1;stroke:none;stroke-width:21.74200058;marker:none;enable-background:accumulate"
           inkscape:connector-curvature="0" />
        <path
           inkscape:connector-curvature="0"
           id="path2107"
           d="m 218.26844,369.68183 v 11.55316 h 14.87784 c 3.08951,0 5.93983,0.30459 8.31163,1.13039 2.06571,0.71927 3.83939,1.67357 5.05348,2.84258 1.11884,1.07737 2.18575,2.70219 2.84258,4.42179 0.67761,1.77362 1.03169,4.12401 1.03064,6.53295 0,2.31933 -0.34865,4.62626 -1.01403,6.39996 -0.67302,1.79439 -1.74937,3.47533 -2.89243,4.62127 -1.27671,1.2799 -3.07605,2.32861 -5.08672,3.0753 -2.34624,0.87128 -5.1226,1.22346 -8.06229,1.21349 h -2.29401 V 396.4619 h -12.96615 v 26.58062 h 12.96615 2.99218 c 4.23896,0.0144 8.77228,-0.38928 13.26537,-1.87843 3.41869,-1.13308 6.99025,-2.82661 10.07371,-5.58541 2.7201,-2.43368 4.81259,-5.44177 6.20047,-8.74385 1.48344,-3.52924 1.9932,-7.20474 1.9948,-10.65551 v -0.0166 c 1.5e-4,-3.48411 -0.49005,-7.2399 -2.04467,-10.87162 -1.40987,-3.2939 -3.5469,-6.26137 -6.30021,-8.62748 -3.15971,-2.71518 -6.74786,-4.25267 -10.07371,-5.28619 -4.51261,-1.40218 -9.00465,-1.69558 -13.149,-1.69558 h -0.84779 z"
           style="color:#000000;font-style:normal;font-variant:normal;font-weight:bold;font-stretch:normal;font-size:131.65306091px;line-height:125%;font-family:'Krona One';-inkscape-font-specification:'Krona One Bold';text-indent:0;text-align:center;text-decoration:none;text-decoration-line:none;letter-spacing:-10.04098225px;word-spacing:0px;text-transform:none;writing-mode:lr-tb;direction:ltr;baseline-shift:baseline;text-anchor:middle;display:inline;overflow:visible;visibility:visible;fill:#ffffff;fill-opacity:1;stroke:none;stroke-width:21.74200058;marker:none;enable-background:accumulate" />
        <path
           inkscape:connector-curvature="0"
           d="m 294.81161,382.24902 c 7.86356,0 14.09654,6.24969 14.09654,14.11315 0,7.86355 -6.23301,14.11315 -14.09654,14.11315 -7.86344,0 -14.11314,-6.24961 -14.11314,-14.11315 0,-7.86344 6.24968,-14.11315 14.11314,-14.11315 z m 0,-12.96615 c -14.87544,0 -27.07929,12.20382 -27.07929,27.0793 0,14.87552 12.20383,27.07932 27.07929,27.07932 14.87552,0 27.06269,-12.20382 27.06269,-27.07932 0,-14.87546 -12.18718,-27.0793 -27.06269,-27.0793 z"
           style="color:#000000;font-style:normal;font-variant:normal;font-weight:bold;font-stretch:normal;font-size:131.65306091px;line-height:125%;font-family:'Krona One';-inkscape-font-specification:'Krona One Bold';text-indent:0;text-align:center;text-decoration:none;text-decoration-line:none;letter-spacing:-10.04098225px;word-spacing:0px;text-transform:none;writing-mode:lr-tb;direction:ltr;baseline-shift:baseline;text-anchor:middle;display:inline;overflow:visible;visibility:visible;fill:#ffffff;fill-opacity:1;stroke:none;stroke-width:21.74200058;marker:none;enable-background:accumulate"
           id="path6220" />
      </g>
    </g>
  </g>
</svg>
