<?xml version="1.0" encoding="UTF-8" standalone="no"?>
<!-- Created with Inkscape (http://www.inkscape.org/) -->

<svg
   xmlns:osb="http://www.openswatchbook.org/uri/2009/osb"
   xmlns:dc="http://purl.org/dc/elements/1.1/"
   xmlns:cc="http://creativecommons.org/ns#"
   xmlns:rdf="http://www.w3.org/1999/02/22-rdf-syntax-ns#"
   xmlns:svg="http://www.w3.org/2000/svg"
   xmlns="http://www.w3.org/2000/svg"
   xmlns:sodipodi="http://sodipodi.sourceforge.net/DTD/sodipodi-0.dtd"
   xmlns:inkscape="http://www.inkscape.org/namespaces/inkscape"
   version="1.1"
   width="1600"
   height="450"
   id="svg2855"
   sodipodi:docname="gluster-logo.svg"
   viewBox="0 0 1600 450"
   inkscape:version="0.92pre1 r">
  <metadata
     id="metadata6281">
    <rdf:RDF>
      <cc:Work
         rdf:about="">
        <dc:format>image/svg+xml</dc:format>
        <dc:type
           rdf:resource="http://purl.org/dc/dcmitype/StillImage" />
        <dc:title></dc:title>
      </cc:Work>
    </rdf:RDF>
  </metadata>
  <sodipodi:namedview
     pagecolor="#000000"
     bordercolor="#666666"
     borderopacity="1"
     objecttolerance="10"
     gridtolerance="10"
     guidetolerance="10"
     inkscape:pageopacity="0"
     inkscape:pageshadow="2"
     inkscape:window-width="2560"
     inkscape:window-height="1376"
     id="namedview6279"
     showgrid="false"
     inkscape:pagecheckerboard="false"
     inkscape:zoom="0.7160325"
     inkscape:cx="673.13319"
     inkscape:cy="189.28486"
     inkscape:window-x="1920"
     inkscape:window-y="27"
     inkscape:window-maximized="1"
     inkscape:current-layer="g2993"
     showguides="true"
     inkscape:guide-bbox="true">
    <sodipodi:guide
       position="888.92614,40.500955"
       orientation="0,1"
       id="guide7798"
       inkscape:locked="false" />
  </sodipodi:namedview>
  <defs
     id="defs2857">
    <linearGradient
       id="linearGradient3007"
       spreadMethod="pad"
       gradientTransform="matrix(111.60057,-7.078476,-7.078476,-111.60057,347.47559,419.51123)"
       gradientUnits="userSpaceOnUse"
       y2="0"
       x2="1"
       y1="0"
       x1="0">
      <stop
         id="stop3009"
         offset="0"
         style="stop-opacity:1;stop-color:#fedd28" />
      <stop
         id="stop3011"
         offset="1"
         style="stop-opacity:1;stop-color:#ef7c37" />
    </linearGradient>
    <clipPath
       id="clipPath3019"
       clipPathUnits="userSpaceOnUse">
      <path
         inkscape:connector-curvature="0"
         id="path3021"
         d="M 0,792 612,792 612,0 0,0 0,792 z" />
    </clipPath>
    <linearGradient
       id="linearGradient3043"
       spreadMethod="pad"
       gradientTransform="matrix(35.21312,-2.2334595,-2.2334595,-35.21312,290.73828,441.78076)"
       gradientUnits="userSpaceOnUse"
       y2="0"
       x2="1"
       y1="0"
       x1="0">
      <stop
         id="stop3045"
         offset="0"
         style="stop-opacity:1;stop-color:#fedd28" />
      <stop
         id="stop3047"
         offset="1"
         style="stop-opacity:1;stop-color:#ef7c37" />
    </linearGradient>
    <clipPath
       id="clipPath3055"
       clipPathUnits="userSpaceOnUse">
      <path
         inkscape:connector-curvature="0"
         id="path3057"
         d="M 0,792 612,792 612,0 0,0 0,792 z" />
    </clipPath>
    <linearGradient
       id="linearGradient3079"
       spreadMethod="pad"
       gradientTransform="matrix(35.642441,-2.2606812,-2.2606812,-35.642441,237.27734,380.19141)"
       gradientUnits="userSpaceOnUse"
       y2="0"
       x2="1"
       y1="0"
       x1="0">
      <stop
         id="stop3081"
         offset="0"
         style="stop-opacity:1;stop-color:#fedd28" />
      <stop
         id="stop3083"
         offset="1"
         style="stop-opacity:1;stop-color:#ef7c37" />
    </linearGradient>
    <clipPath
       id="clipPath3091"
       clipPathUnits="userSpaceOnUse">
      <path
         inkscape:connector-curvature="0"
         id="path3093"
         d="M 0,792 612,792 612,0 0,0 0,792 z" />
    </clipPath>
    <linearGradient
       id="linearGradient3115"
       spreadMethod="pad"
       gradientTransform="matrix(115.62328,-7.3336182,-7.3336182,-115.62328,138.61133,407.42041)"
       gradientUnits="userSpaceOnUse"
       y2="0"
       x2="1"
       y1="0"
       x1="0">
      <stop
         id="stop3117"
         offset="0"
         style="stop-opacity:1;stop-color:#fedd28" />
      <stop
         id="stop3119"
         offset="1"
         style="stop-opacity:1;stop-color:#ef7c37" />
    </linearGradient>
    <clipPath
       id="clipPath3127"
       clipPathUnits="userSpaceOnUse">
      <path
         inkscape:connector-curvature="0"
         id="path3129"
         d="M 0,792 612,792 612,0 0,0 0,792 z" />
    </clipPath>
    <radialGradient
       id="radialGradient3151"
       spreadMethod="pad"
       gradientTransform="matrix(40.881607,-2.5929871,-2.7251434,-42.950623,270.76758,428.10107)"
       gradientUnits="userSpaceOnUse"
       r="1"
       cy="0"
       cx="0"
       fy="0"
       fx="0">
      <stop
         id="stop3153"
         offset="0"
         style="stop-opacity:1;stop-color:#fedd28" />
      <stop
         id="stop3155"
         offset="1"
         style="stop-opacity:1;stop-color:#f47738" />
    </radialGradient>
    <clipPath
       id="clipPath3163"
       clipPathUnits="userSpaceOnUse">
      <path
         inkscape:connector-curvature="0"
         id="path3165"
         d="M 0,792 612,792 612,0 0,0 0,792 z" />
    </clipPath>
    <clipPath
       id="clipPath3175"
       clipPathUnits="userSpaceOnUse">
      <path
         inkscape:connector-curvature="0"
         id="path3177"
         d="m 216.089,424.122 23.589,0 0,-31.723 -23.589,0 0,31.723 z" />
    </clipPath>
    <linearGradient
       id="linearGradient3183"
       spreadMethod="pad"
       gradientTransform="matrix(25.209732,-1.5989685,-1.5989685,-25.209732,215.42432,409.06494)"
       gradientUnits="userSpaceOnUse"
       y2="0"
       x2="1"
       y1="0"
       x1="0">
      <stop
         id="stop3185"
         offset="0"
         style="stop-opacity:1;stop-color:#6f4a31" />
      <stop
         id="stop3187"
         offset="0.484665"
         style="stop-opacity:1;stop-color:#a9815b" />
      <stop
         id="stop3189"
         offset="1"
         style="stop-opacity:1;stop-color:#504530" />
    </linearGradient>
    <clipPath
       id="clipPath3209"
       clipPathUnits="userSpaceOnUse">
      <path
         inkscape:connector-curvature="0"
         id="path3211"
         d="m 227.195,432.313 26.912,0 0,-41.433 -26.912,0 0,41.433 z" />
    </clipPath>
    <linearGradient
       id="linearGradient3217"
       spreadMethod="pad"
       gradientTransform="matrix(28.927872,-1.8348083,-1.8348083,-28.927872,226.43701,412.53955)"
       gradientUnits="userSpaceOnUse"
       y2="0"
       x2="1"
       y1="0"
       x1="0">
      <stop
         id="stop3219"
         offset="0"
         style="stop-opacity:1;stop-color:#6f4a31" />
      <stop
         id="stop3221"
         offset="0.484665"
         style="stop-opacity:1;stop-color:#a9815b" />
      <stop
         id="stop3223"
         offset="1"
         style="stop-opacity:1;stop-color:#504530" />
    </linearGradient>
    <clipPath
       id="clipPath3243"
       clipPathUnits="userSpaceOnUse">
      <path
         inkscape:connector-curvature="0"
         id="path3245"
         d="m 244.326,437.061 24.909,0 0,-46.232 -24.909,0 0,46.232 z" />
    </clipPath>
    <linearGradient
       id="linearGradient3251"
       spreadMethod="pad"
       gradientTransform="matrix(27.019104,-1.7137299,-1.7137299,-27.019089,243.63135,414.85693)"
       gradientUnits="userSpaceOnUse"
       y2="0"
       x2="1"
       y1="0"
       x1="0">
      <stop
         id="stop3253"
         offset="0"
         style="stop-opacity:1;stop-color:#6f4a31" />
      <stop
         id="stop3255"
         offset="0.484665"
         style="stop-opacity:1;stop-color:#a9815b" />
      <stop
         id="stop3257"
         offset="1"
         style="stop-opacity:1;stop-color:#504530" />
    </linearGradient>
    <linearGradient
       id="linearGradient3285"
       spreadMethod="pad"
       gradientTransform="matrix(59.732193,10.661408,10.661408,-59.732178,197.14795,376.80176)"
       gradientUnits="userSpaceOnUse"
       y2="0"
       x2="1"
       y1="0"
       x1="0">
      <stop
         id="stop3287"
         offset="0"
         style="stop-opacity:1;stop-color:#fec02e" />
      <stop
         id="stop3289"
         offset="1"
         style="stop-opacity:1;stop-color:#ef7c37" />
    </linearGradient>
    <clipPath
       id="clipPath3297"
       clipPathUnits="userSpaceOnUse">
      <path
         inkscape:connector-curvature="0"
         id="path3299"
         d="M 0,792 612,792 612,0 0,0 0,792 z" />
    </clipPath>
    <radialGradient
       id="radialGradient3325"
       spreadMethod="pad"
       gradientTransform="matrix(30.319199,-1.9230499,-1.9230499,-30.319183,337.3916,427.31201)"
       gradientUnits="userSpaceOnUse"
       r="1"
       cy="0"
       cx="0"
       fy="0"
       fx="0">
      <stop
         id="stop3327"
         offset="0"
         style="stop-opacity:1;stop-color:#fedd28" />
      <stop
         id="stop3329"
         offset="1"
         style="stop-opacity:1;stop-color:#f47738" />
    </radialGradient>
    <clipPath
       id="clipPath3337"
       clipPathUnits="userSpaceOnUse">
      <path
         inkscape:connector-curvature="0"
         id="path3339"
         d="M 0,792 612,792 612,0 0,0 0,792 z" />
    </clipPath>
    <linearGradient
       id="linearGradient3357"
       spreadMethod="pad"
       gradientTransform="matrix(-73.769257,88.282562,88.282562,73.769272,441.63281,315.6875)"
       gradientUnits="userSpaceOnUse"
       y2="0"
       x2="1"
       y1="0"
       x1="0">
      <stop
         id="stop3359"
         offset="0"
         style="stop-opacity:1;stop-color:#fedd28" />
      <stop
         id="stop3361"
         offset="1"
         style="stop-opacity:1;stop-color:#ef7c37" />
    </linearGradient>
    <clipPath
       id="clipPath3369"
       clipPathUnits="userSpaceOnUse">
      <path
         inkscape:connector-curvature="0"
         id="path3371"
         d="M 0,792 612,792 612,0 0,0 0,792 z" />
    </clipPath>
    <linearGradient
       id="linearGradient3401"
       spreadMethod="pad"
       gradientTransform="matrix(81.37648,-5.1614532,-5.1614532,-81.376465,249.91162,370.21094)"
       gradientUnits="userSpaceOnUse"
       y2="0"
       x2="1"
       y1="0"
       x1="0">
      <stop
         id="stop3403"
         offset="0"
         style="stop-opacity:1;stop-color:#fedd28" />
      <stop
         id="stop3405"
         offset="1"
         style="stop-opacity:1;stop-color:#ef7c37" />
    </linearGradient>
    <clipPath
       id="clipPath3413"
       clipPathUnits="userSpaceOnUse">
      <path
         inkscape:connector-curvature="0"
         id="path3415"
         d="M 0,792 612,792 612,0 0,0 0,792 z" />
    </clipPath>
    <clipPath
       id="clipPath3445"
       clipPathUnits="userSpaceOnUse">
      <path
         inkscape:connector-curvature="0"
         id="path3447"
         d="m 326.936,442.068 130.135,0 0,-39.263 -130.135,0 0,39.263 z" />
    </clipPath>
    <radialGradient
       id="radialGradient3617"
       spreadMethod="pad"
       gradientTransform="matrix(30.632034,16.747421,16.747421,-30.632034,366.61426,476.66553)"
       gradientUnits="userSpaceOnUse"
       r="1"
       cy="0"
       cx="0"
       fy="0"
       fx="0">
      <stop
         id="stop3619"
         offset="0"
         style="stop-opacity:1;stop-color:#fedd28" />
      <stop
         id="stop3621"
         offset="1"
         style="stop-opacity:1;stop-color:#f47738" />
    </radialGradient>
    <clipPath
       id="clipPath3629"
       clipPathUnits="userSpaceOnUse">
      <path
         inkscape:connector-curvature="0"
         id="path3631"
         d="M 0,792 612,792 612,0 0,0 0,792 z" />
    </clipPath>
    <radialGradient
       id="radialGradient3649"
       spreadMethod="pad"
       gradientTransform="matrix(14.592804,9.2238617,9.2238617,-14.592804,344.04199,467.39697)"
       gradientUnits="userSpaceOnUse"
       r="1"
       cy="0"
       cx="0"
       fy="0"
       fx="0">
      <stop
         id="stop3651"
         offset="0"
         style="stop-opacity:1;stop-color:#ffffff" />
      <stop
         id="stop3653"
         offset="1"
         style="stop-opacity:1;stop-color:#dfe6e6" />
    </radialGradient>
    <clipPath
       id="clipPath3661"
       clipPathUnits="userSpaceOnUse">
      <path
         inkscape:connector-curvature="0"
         id="path3663"
         d="M 0,792 612,792 612,0 0,0 0,792 z" />
    </clipPath>
    <radialGradient
       id="radialGradient3685"
       spreadMethod="pad"
       gradientTransform="matrix(13.707794,6.5214539,6.5214539,-13.707794,387.5,484.22363)"
       gradientUnits="userSpaceOnUse"
       r="1"
       cy="0"
       cx="0"
       fy="0"
       fx="0">
      <stop
         id="stop3687"
         offset="0"
         style="stop-opacity:1;stop-color:#ffffff" />
      <stop
         id="stop3689"
         offset="1"
         style="stop-opacity:1;stop-color:#dfe6e6" />
    </radialGradient>
    <clipPath
       id="clipPath3697"
       clipPathUnits="userSpaceOnUse">
      <path
         inkscape:connector-curvature="0"
         id="path3699"
         d="M 0,792 612,792 612,0 0,0 0,792 z" />
    </clipPath>
    <linearGradient
       osb:paint="solid"
       id="linearGradient3767">
      <stop
         id="stop3769"
         offset="0"
         style="stop-color:#000000;stop-opacity:1;" />
    </linearGradient>
  </defs>
  <g
     transform="matrix(1.4034343,0,0,-1.4034343,-290.56322,1004.292)"
     inkscape:label="orange-ant"
     id="g2993">
    <g
       transform="translate(72,75.2)"
       id="g2995">
      <g
         id="g2997">
        <g
           id="g3003">
          <g
             id="g3005">
            <path
               inkscape:connector-curvature="0"
               id="path3013"
               style="fill:url(#linearGradient3007);stroke:none"
               d="M 359.804,422.358 346.95,411.219 c 17.083,-0.887 46.713,17.511 55.763,20.432 v 0 c 4.826,-2.829 23.693,-33.645 40.724,-38.908 v 0 c 2.627,-0.878 14.445,0.839 14.445,0.839 v 0 c -1.787,4.321 -7.695,6.748 -13.628,2.857 v 0 c -3.631,-0.374 -34.407,37.471 -38.434,40.14 v 0 c -0.986,0.123 -2.043,0.185 -3.167,0.185 v 0 c -9.522,10e-4 -23.967,-4.462 -42.849,-14.406" />
          </g>
        </g>
      </g>
    </g>
    <g
       transform="translate(72,75.2)"
       id="g3015">
      <g
         clip-path="url(#clipPath3019)"
         id="g3017">
        <g
           transform="translate(456.4414,395.481)"
           id="g3023">
          <path
             inkscape:connector-curvature="0"
             id="path3025"
             style="fill:#292929;fill-opacity:1;fill-rule:nonzero;stroke:none"
             d="M 0,0 C -0.941,0.989 -2.334,1.865 -4.05,2.244 -5.759,2.629 -7.772,2.467 -9.706,1.636 -10.187,1.424 -10.672,1.194 -11.139,0.909 -11.262,0.84 -11.368,0.774 -11.498,0.69 l -0.565,-0.312 c -0.409,-0.095 -0.908,0.134 -1.227,0.299 -1.148,0.651 -2.058,1.468 -3.021,2.31 -1.891,1.701 -3.755,3.594 -5.666,5.585 -7.616,7.979 -15.822,17.647 -24.012,26.786 -1.029,1.136 -2.059,2.264 -3.105,3.344 -0.522,0.535 -1.054,1.072 -1.585,1.527 -0.296,0.236 -0.115,0.156 -0.625,0.22 -0.362,0.039 -0.725,0.064 -1.089,0.086 -2.915,0.157 -5.817,-0.146 -8.593,-0.617 -5.565,-0.972 -10.667,-2.614 -15.116,-4.232 -8.895,-3.297 -15.245,-6.532 -17.644,-7.681 -1.836,-0.908 -5.382,-2.188 -0.451,0.885 0.159,0.094 1.806,0.967 4.621,2.337 2.817,1.363 6.804,3.23 11.7,5.151 4.898,1.896 10.708,3.922 17.226,5.054 1.629,0.275 3.303,0.483 5.014,0.579 0.856,0.049 1.72,0.065 2.592,0.045 0.436,-0.011 0.873,-0.03 1.312,-0.063 l 0.659,-0.056 0.386,-0.043 c 0.178,-0.032 0.375,-0.011 0.51,-0.15 0.341,-0.237 0.488,-0.374 0.661,-0.522 l 0.497,-0.455 0.941,-0.926 c 0.613,-0.623 1.212,-1.257 1.807,-1.895 1.187,-1.277 2.358,-2.573 3.525,-3.874 9.309,-10.407 18.406,-21.159 26.065,-28.771 0.962,-0.937 1.909,-1.823 2.846,-2.582 0.234,-0.188 0.468,-0.367 0.699,-0.528 0.209,-0.151 0.508,-0.33 0.62,-0.38 0.086,-0.04 0.196,-0.09 0.279,-0.006 l 0.263,0.16 0.395,0.22 c 2.105,1.146 4.316,1.573 6.156,1.411 C -3.571,3.459 -2.134,2.797 -1.184,2.18 -0.222,1.558 0.278,0.966 0.489,0.733 1.259,-0.209 1.528,-0.939 1.644,-1.343 1.743,-1.76 1.698,-1.869 1.572,-1.789 1.333,-1.619 0.747,-0.719 0,0" />
        </g>
        <g
           transform="translate(404.6943,430.8491)"
           id="g3027">
          <path
             inkscape:connector-curvature="0"
             id="path3029"
             style="fill:#292929;fill-opacity:1;fill-rule:nonzero;stroke:none"
             d="m 0,0 c 5.245,-4.385 14.009,-17.26 24.46,-27.318 2.607,-2.504 5.32,-4.82 8.079,-6.695 1.379,-0.935 2.769,-1.761 4.151,-2.433 0.691,-0.338 1.38,-0.635 2.062,-0.891 0.328,-0.124 0.708,-0.255 1.001,-0.347 0.29,-0.082 0.63,-0.127 0.963,-0.158 2.726,-0.183 5.218,0.065 7.152,0.197 1.946,0.159 3.387,0.312 4.174,0.394 1.205,0.126 3.476,-0.072 0.126,-0.986 -0.107,-0.026 -1.202,-0.189 -3.05,-0.405 -1.855,-0.194 -4.431,-0.527 -7.626,-0.519 -0.403,0.009 -0.816,0.025 -1.254,0.074 -0.218,0.025 -0.442,0.056 -0.683,0.11 -0.262,0.059 -0.47,0.137 -0.663,0.195 -0.821,0.266 -1.654,0.592 -2.484,0.967 -1.662,0.752 -3.323,1.707 -4.957,2.804 -3.269,2.196 -6.427,4.946 -9.4,7.872 -5.945,5.867 -11.181,12.42 -15.192,17.465 -2.002,2.528 -3.698,4.685 -4.982,6.237 -1.278,1.56 -2.155,2.486 -2.374,2.736 -0.829,0.967 -1.027,1.183 -0.831,1.28 C -1.13,0.663 -0.508,0.399 0,0" />
        </g>
      </g>
    </g>
    <g
       transform="translate(72,75.2)"
       id="g3031">
      <g
         id="g3033">
        <g
           id="g3039">
          <g
             id="g3041">
            <path
               inkscape:connector-curvature="0"
               id="path3049"
               style="fill:url(#linearGradient3043);stroke:none"
               d="m 308.542,455.272 c -3.212,-2.251 -16.027,-20.459 -16.027,-20.459 v 0 l -2.461,-3.812 3.135,-4.474 c 0,0 15.614,16.965 17.324,23.699 v 0 c 0.182,-3.861 8.903,-14.675 8.903,-14.675 v 0 l 6.684,6.334 c -2.965,5.126 -11.829,13.772 -16.207,13.772 v 0 c -0.52,0 -0.976,-0.121 -1.351,-0.385" />
          </g>
        </g>
      </g>
    </g>
    <g
       transform="translate(72,75.2)"
       id="g3051">
      <g
         clip-path="url(#clipPath3055)"
         id="g3053">
        <g
           transform="translate(290.9243,430.9233)"
           id="g3059">
          <path
             inkscape:connector-curvature="0"
             id="path3061"
             style="fill:#292929;fill-opacity:1;fill-rule:nonzero;stroke:none"
             d="m 0,0 c 0.327,-0.313 0.772,-0.815 1.315,-1.477 l 0.887,-1.108 0.275,-0.324 0.122,-0.143 0.06,-0.071 c 0.021,-0.003 0.046,0.05 0.068,0.072 0.131,0.207 1.234,1.49 2.123,2.549 l 2.989,3.574 c 2.092,2.532 4.359,5.325 6.493,8.232 1.065,1.454 2.096,2.937 3.015,4.44 0.227,0.376 0.45,0.752 0.658,1.131 l 0.156,0.284 0.237,0.465 c 0.159,0.323 0.313,0.651 0.452,1.017 0.275,0.734 0.538,1.661 0.81,2.543 l 0.355,1.218 c 0.064,0.222 0.048,0.07 0.111,0.238 0.037,0.062 0.122,0.287 0.199,0.484 0.223,-2.248 0.339,-3.991 0.565,-4.795 0.133,-0.408 0.281,-0.775 0.439,-1.121 l 0.325,-0.693 c 0.42,-0.851 0.875,-1.661 1.327,-2.427 0.908,-1.532 1.809,-2.894 2.599,-4.059 1.585,-2.327 2.736,-3.868 3.024,-4.288 0.295,-0.423 0.493,-1.485 -0.781,-0.613 -0.058,0.046 -1.201,1.436 -2.908,3.767 -0.851,1.168 -1.843,2.571 -2.871,4.194 -0.511,0.813 -1.034,1.68 -1.528,2.62 l -0.364,0.721 -0.126,0.271 c -0.067,0.153 -0.125,0.31 -0.162,0.474 l -0.018,0.103 C 19.84,17.3 19.844,17.385 19.831,17.317 L 19.766,17.108 C 19.717,16.971 19.661,16.836 19.599,16.705 L 19.503,16.51 19.171,15.888 C 18.933,15.458 18.687,15.031 18.43,14.611 17.407,12.926 16.271,11.297 15.108,9.714 12.776,6.552 10.33,3.578 8.113,0.984 7.003,-0.313 5.949,-1.512 4.986,-2.585 L 3.29,-4.454 2.766,-5.019 C 2.682,-5.091 2.593,-5.246 2.515,-5.249 l -0.212,0.305 -0.801,1.151 -1.574,2.317 c -0.35,0.529 -0.557,0.856 -0.594,0.944 C -1.112,0.54 -0.425,0.36 0,0" />
        </g>
        <g
           transform="translate(325.9297,442.6084)"
           id="g3063">
          <path
             inkscape:connector-curvature="0"
             id="path3065"
             style="fill:#292929;fill-opacity:1;fill-rule:nonzero;stroke:none"
             d="m 0,0 c -0.992,1.08 -3.35,4.058 -6.999,7.331 -1.82,1.605 -3.949,3.387 -6.407,4.583 -1.2,0.563 -2.629,0.968 -3.354,0.286 -1.02,-0.857 -2.02,-2.042 -2.978,-3.154 -3.823,-4.569 -7.359,-9.31 -10.115,-12.956 -1.357,-1.835 -2.576,-3.386 -3.379,-4.595 l -1.592,-2.307 c -0.315,-0.432 -1.268,-0.975 -0.832,0.542 0.042,0.069 1.698,2.916 4.55,6.812 2.827,3.921 6.546,9.139 10.712,14.125 0.529,0.62 1.069,1.233 1.648,1.831 0.292,0.298 0.59,0.592 0.939,0.881 0.316,0.288 0.905,0.618 1.403,0.693 1.043,0.19 1.935,-0.063 2.735,-0.337 0.801,-0.291 1.525,-0.664 2.208,-1.065 2.71,-1.631 4.854,-3.591 6.638,-5.344 C -1.267,3.8 0.587,0.809 0.69,0.5 1.102,-0.66 0.4,-0.384 0,0" />
        </g>
      </g>
    </g>
    <g
       transform="translate(72,75.2)"
       id="g3067">
      <g
         id="g3069">
        <g
           id="g3075">
          <g
             id="g3077">
            <path
               inkscape:connector-curvature="0"
               id="path3085"
               style="fill:url(#linearGradient3079);stroke:none"
               d="m 252.594,369.873 c 0,0 -8.432,7.574 -16.016,-0.72 v 0 c 0,0 15.517,-4.994 16.54,-4.921 v 0 c 3.408,2.176 20.655,27.145 20.655,27.145 v 0 l -6.233,1.85 c 0,0 -12.345,-20.914 -14.946,-23.354" />
          </g>
        </g>
      </g>
    </g>
    <g
       transform="translate(72,75.2)"
       id="g3087">
      <g
         clip-path="url(#clipPath3091)"
         id="g3089">
        <g
           transform="translate(236.729,369.2646)"
           id="g3095">
          <path
             inkscape:connector-curvature="0"
             id="path3097"
             style="fill:#292929;fill-opacity:1;fill-rule:nonzero;stroke:none"
             d="m 0,0 c 1.423,-0.155 4.959,-1.127 9.515,-2.439 l 3.59,-1.023 1.898,-0.508 c 0.924,-0.163 0.465,-0.299 1.076,0.199 1.868,1.862 3.656,4.191 5.423,6.417 7.014,9.048 13.51,18.075 14.344,19.109 0.317,0.403 1.262,0.879 0.816,-0.567 C 36.582,21.017 29.754,10.894 22.25,1.085 21.304,-0.138 20.343,-1.352 19.355,-2.527 18.86,-3.115 18.357,-3.692 17.83,-4.253 17.563,-4.532 17.294,-4.809 16.998,-5.078 16.883,-5.187 16.599,-5.423 16.353,-5.585 16.11,-5.798 15.787,-5.73 15.489,-5.692 c -0.352,0.064 -0.479,0.1 -0.672,0.145 l -0.535,0.137 -1.035,0.284 -1.985,0.579 -3.628,1.114 C 3.131,-2.017 0.051,-0.977 -0.209,-0.826 -1.196,-0.248 -0.547,0.027 0,0" />
        </g>
        <g
           transform="translate(266.9668,392.7412)"
           id="g3099">
          <path
             inkscape:connector-curvature="0"
             id="path3101"
             style="fill:#292929;fill-opacity:1;fill-rule:nonzero;stroke:none"
             d="m 0,0 c -0.439,-1.359 -2.292,-4.792 -4.821,-9.046 -1.265,-2.127 -2.699,-4.459 -4.225,-6.833 -0.765,-1.186 -1.551,-2.384 -2.362,-3.566 -0.406,-0.592 -0.818,-1.18 -1.241,-1.76 -0.464,-0.607 -0.729,-1.04 -1.606,-1.979 -0.242,-0.034 -0.447,-0.126 -0.619,-0.107 -0.169,0.041 -0.376,0.081 -0.625,0.12 -0.164,0.138 -0.345,0.281 -0.498,0.393 l -0.336,0.244 c -0.204,0.142 -0.411,0.279 -0.62,0.41 -0.417,0.263 -0.843,0.501 -1.274,0.715 -0.86,0.425 -1.739,0.75 -2.606,0.954 -1.736,0.422 -3.409,0.329 -4.771,-0.071 -1.367,-0.395 -2.427,-1.037 -3.175,-1.575 -0.749,-0.543 -1.208,-0.977 -1.393,-1.138 -0.321,-0.285 -1.288,-0.572 -0.704,0.701 0.021,0.029 0.365,0.429 1.07,1.023 0.702,0.589 1.782,1.395 3.314,1.986 1.52,0.591 3.524,0.876 5.603,0.479 1.037,-0.187 2.085,-0.526 3.105,-0.989 0.51,-0.232 1.013,-0.495 1.506,-0.788 0.246,-0.147 0.49,-0.301 0.732,-0.463 l 0.448,-0.314 0.12,-0.096 c 0.04,-0.014 0.077,0.062 0.112,0.092 l 0.122,0.149 0.29,0.378 0.663,0.911 c 0.438,0.618 0.869,1.252 1.295,1.89 0.851,1.276 1.685,2.57 2.495,3.843 1.619,2.547 3.144,5.014 4.477,7.177 2.663,4.327 4.553,7.44 4.768,7.654 C -0.037,1.118 0.119,0.479 0,0" />
        </g>
      </g>
    </g>
    <g
       transform="translate(72,75.2)"
       id="g3103">
      <g
         id="g3105">
        <g
           id="g3111">
          <g
             id="g3113">
            <path
               inkscape:connector-curvature="0"
               id="path3121"
               style="fill:url(#linearGradient3115);stroke:none"
               d="m 207.727,445.916 c 0,0 -12.836,-31.219 -16.408,-53.543 v 0 c -5.026,-3.351 -23.94,-20.456 -29.006,-24.828 v 0 c -9.781,4.232 -21.583,2.622 -25.983,-3.627 v 0 c -1.878,-2.67 1.41,-1.768 3.872,-2.722 v 0 c 2.48,-0.958 19.575,-1.25 19.575,-1.25 v 0 c 0,0 27.839,20.747 31.656,27.734 v 0 c 7.096,2.823 22.374,44.464 22.33,53.927 v 0 c 11.833,-11.86 25.745,-16.386 25.745,-16.386 v 0 l 16.413,1.459 c -10.641,8.416 -33.687,19.096 -40.276,21.21 v 0 c -2.803,0.9 -4.392,1.462 -5.41,1.462 v 0 c -1.339,0 -1.688,-0.974 -2.508,-3.436" />
          </g>
        </g>
      </g>
    </g>
    <g
       transform="translate(72,75.2)"
       id="g3123">
      <g
         clip-path="url(#clipPath3127)"
         id="g3125">
        <g
           transform="translate(135.9902,362.4189)"
           id="g3131">
          <path
             inkscape:connector-curvature="0"
             id="path3133"
             style="fill:#292929;fill-opacity:1;fill-rule:nonzero;stroke:none"
             d="m 0,0 c 0.556,-0.413 1.888,-0.25 3.435,-0.596 0.194,-0.046 0.395,-0.095 0.598,-0.163 0.223,-0.076 0.334,-0.107 0.544,-0.151 0.381,-0.077 0.802,-0.132 1.24,-0.181 0.878,-0.096 1.834,-0.162 2.852,-0.222 2.038,-0.118 4.33,-0.201 6.833,-0.271 l 3.912,-0.093 3.962,-0.062 3.45,2.656 3.816,2.984 c 2.596,2.049 5.291,4.208 8.037,6.475 2.745,2.268 5.546,4.638 8.308,7.143 1.379,1.253 2.75,2.541 4.066,3.885 0.657,0.673 1.299,1.361 1.905,2.07 0.302,0.354 0.595,0.714 0.868,1.082 0.137,0.182 0.267,0.368 0.391,0.553 l 0.179,0.281 0.295,0.513 c 0.626,0.268 0.663,0.32 0.933,0.504 0.224,0.165 0.445,0.358 0.66,0.566 0.429,0.417 0.835,0.885 1.222,1.379 0.774,0.987 1.478,2.058 2.148,3.154 1.335,2.198 2.532,4.503 3.664,6.83 2.256,4.662 4.246,9.426 6.055,14.12 1.803,4.696 3.419,9.332 4.787,13.807 0.682,2.237 1.301,4.436 1.819,6.585 0.257,1.074 0.488,2.136 0.674,3.182 l 0.13,0.781 0.071,0.503 0.067,0.602 c 0.069,0.8 0.078,1.737 0.094,2.556 0.059,0.028 0.217,-0.167 0.338,-0.279 l 0.38,-0.38 0.76,-0.754 1.377,-1.323 c 0.666,-0.622 1.332,-1.218 1.996,-1.79 1.327,-1.143 2.643,-2.186 3.923,-3.138 2.562,-1.903 4.978,-3.442 7.102,-4.675 4.254,-2.463 7.307,-3.733 8.313,-4.172 0.718,-0.312 1.699,-0.82 1.978,-1.109 0.287,-0.281 -0.188,-0.432 -2.352,0.189 -0.143,0.06 -2.972,1.092 -7.415,3.499 -2.216,1.209 -4.83,2.772 -7.65,4.779 -1.409,1.003 -2.869,2.117 -4.35,3.353 -0.74,0.619 -1.486,1.267 -2.231,1.947 l -0.665,0.615 -0.184,0.176 -0.09,0.09 c -0.024,0.014 -0.079,0.102 -0.065,0.024 -0.001,-0.173 -0.014,-0.347 -0.034,-0.521 L 78.095,76.618 77.966,75.805 C 77.781,74.721 77.552,73.634 77.298,72.539 76.786,70.348 76.174,68.121 75.5,65.857 74.146,61.331 72.544,56.655 70.75,51.915 c -1.8,-4.737 -3.785,-9.542 -6.053,-14.267 -1.139,-2.359 -2.345,-4.7 -3.715,-6.964 -0.688,-1.132 -1.415,-2.245 -2.245,-3.308 -0.416,-0.531 -0.86,-1.049 -1.362,-1.537 -0.252,-0.244 -0.52,-0.481 -0.818,-0.7 -0.251,-0.201 -0.772,-0.487 -0.749,-0.46 L 55.741,24.566 55.53,24.235 C 55.386,24.019 55.238,23.809 55.086,23.605 54.784,23.198 54.469,22.811 54.147,22.433 53.503,21.679 52.834,20.964 52.155,20.27 50.796,18.881 49.398,17.569 47.995,16.296 45.186,13.754 42.356,11.368 39.589,9.096 36.822,6.825 34.113,4.673 31.512,2.644 l -3.818,-2.948 -3.844,-2.903 -5.187,0.138 -4.47,0.177 c -2.818,0.135 -5.298,0.288 -7.39,0.512 -1.061,0.128 -1.965,0.212 -2.92,0.51 -0.731,0.289 -1.365,0.384 -1.961,0.48 -0.605,0.094 -1.048,0.143 -1.534,0.266 -0.569,0.134 -0.856,0.361 -0.971,0.465 -0.481,0.442 -0.407,1.051 -0.255,1.406 0.161,0.389 0.364,0.614 0.48,0.737 0.249,0.233 0.354,0.231 0.368,0.108 C 0.028,1.471 -0.065,1.208 -0.14,0.905 -0.208,0.626 -0.292,0.229 0,0" />
        </g>
        <g
           transform="translate(253.897,427.7852)"
           id="g3135">
          <path
             inkscape:connector-curvature="0"
             id="path3137"
             style="fill:#292929;fill-opacity:1;fill-rule:nonzero;stroke:none"
             d="m 0,0 c -2.035,1.322 -5.733,3.659 -10.843,6.447 -5.105,2.791 -11.593,6.086 -19.083,9.417 -1.873,0.827 -3.81,1.658 -5.809,2.445 -0.999,0.391 -2.014,0.774 -3.04,1.101 -1.057,0.334 -2.123,0.69 -3.181,1.001 -1.017,0.309 -2.254,0.579 -2.508,0.188 -0.224,-0.208 -0.458,-0.704 -0.647,-1.21 -0.207,-0.533 -0.349,-1.02 -0.585,-1.662 -0.872,-2.156 -1.728,-4.365 -2.578,-6.601 -3.387,-8.953 -6.667,-18.413 -9.421,-27.936 -1.371,-4.761 -2.607,-9.541 -3.578,-14.284 -0.242,-1.186 -0.467,-2.369 -0.67,-3.549 l -0.086,-0.505 c -0.054,-0.222 -0.04,-0.483 -0.15,-0.672 l -0.951,-0.662 c -0.475,-0.344 -0.946,-0.704 -1.412,-1.066 -1.865,-1.455 -3.671,-2.961 -5.442,-4.45 -7.071,-5.978 -13.561,-11.745 -19.281,-16.731 l -2.335,-2.019 c -0.057,-0.09 -0.138,-0.034 -0.214,-0.001 l -0.23,0.098 -0.458,0.192 -0.644,0.258 c -0.409,0.158 -0.819,0.304 -1.227,0.44 -1.632,0.543 -3.242,0.915 -4.789,1.148 -3.095,0.467 -5.924,0.381 -8.287,-0.005 -2.368,-0.385 -4.266,-1.075 -5.633,-1.771 -1.372,-0.695 -2.219,-1.375 -2.648,-1.731 -0.676,-0.538 -1.561,-1.377 -1.938,-1.608 -0.194,-0.107 -0.279,-0.042 -0.143,0.335 0.146,0.369 0.512,1.071 1.431,2.024 0.061,0.055 0.623,0.597 1.776,1.326 1.152,0.722 2.924,1.593 5.293,2.182 2.361,0.591 5.311,0.911 8.642,0.629 1.664,-0.144 3.422,-0.43 5.228,-0.917 0.902,-0.244 1.817,-0.534 2.735,-0.88 l 0.62,-0.242 c 0.07,-0.005 0.16,-0.119 0.218,-0.039 l 0.845,0.741 c 5.988,5.279 12.897,11.517 20.5,17.995 1.909,1.613 3.848,3.249 5.913,4.828 l 0.79,0.585 0.268,0.19 c 0.02,0.015 0.042,0.027 0.059,0.043 l 0.015,0.09 0.302,1.752 c 0.232,1.285 0.487,2.572 0.76,3.86 1.096,5.152 2.475,10.318 3.992,15.442 3.049,10.247 6.633,20.336 10.314,29.719 l 0.697,1.75 c 0.105,0.269 0.26,0.627 0.328,0.823 l 0.304,0.891 c 0.218,0.598 0.416,1.205 0.838,1.861 0.215,0.32 0.541,0.68 0.988,0.883 0.442,0.202 0.888,0.232 1.257,0.215 0.745,-0.045 1.35,-0.219 1.951,-0.383 0.596,-0.17 1.169,-0.354 1.737,-0.536 1.121,-0.367 2.26,-0.711 3.369,-1.133 4.383,-1.667 8.381,-3.518 12.084,-5.272 C -17.168,11.5 -11.099,8.166 -6.817,5.572 -2.53,2.983 -0.044,1.122 0.351,0.796 3.317,-1.757 1.54,-0.975 0,0" />
        </g>
      </g>
    </g>
    <g
       transform="translate(72,75.2)"
       id="g3139">
      <g
         id="g3141">
        <g
           id="g3147">
          <g
             id="g3149">
            <path
               inkscape:connector-curvature="0"
               id="path3157"
               style="fill:url(#radialGradient3151);stroke:none"
               d="m 219.375,435.117 c -21.622,-15.502 -11.8,-30.713 4.606,-38.816 v 0 c 17.113,-8.455 72.127,-21.376 81.546,18.574 v 0 c 1.97,12.008 -6.094,24.866 -17.431,31.048 v 0 c -6.208,3.388 -13.785,4.993 -21.934,4.993 v 0 c -15.308,10e-4 -32.645,-5.66 -46.787,-15.799" />
          </g>
        </g>
      </g>
    </g>
    <g
       transform="translate(72,75.2)"
       id="g3159">
      <g
         clip-path="url(#clipPath3163)"
         id="g3161">
        <g
           transform="translate(226.8169,395.2588)"
           id="g3167">
          <path
             inkscape:connector-curvature="0"
             id="path3169"
             style="fill:#292929;fill-opacity:1;fill-rule:nonzero;stroke:none"
             d="m 0,0 c 3.23,-1.221 9.12,-3.253 17.191,-4.878 4.032,-0.807 8.606,-1.51 13.622,-1.856 5.009,-0.338 10.477,-0.333 16.149,0.504 5.646,0.845 11.562,2.558 16.785,5.908 2.6,1.67 4.994,3.751 7.014,6.211 2.022,2.458 3.656,5.289 4.874,8.34 0.612,1.526 1.117,3.107 1.535,4.724 0.221,0.792 0.329,1.496 0.399,2.335 0.075,0.81 0.1,1.628 0.08,2.447 -0.072,3.281 -0.874,6.577 -2.218,9.661 C 72.732,39.571 67.97,44.938 62.193,48.541 56.247,52.245 49.169,53.907 42.22,54.278 35.238,54.647 28.303,53.77 21.785,52.169 15.259,50.558 9.129,48.2 3.574,45.394 0.795,43.99 -1.839,42.467 -4.318,40.864 -6.799,39.258 -9.125,37.6 -11.174,35.782 c -4.098,-3.585 -7.189,-7.898 -7.889,-12.365 -0.367,-2.21 -0.147,-4.372 0.445,-6.286 0.588,-1.921 1.516,-3.598 2.522,-5.036 2.041,-2.877 4.332,-4.838 6.13,-6.244 1.819,-1.4 3.202,-2.245 3.915,-2.683 1.084,-0.668 2.609,-1.618 3.049,-2.039 0.448,-0.398 -0.272,-0.437 -3.555,1.184 -0.1,0.058 -1.027,0.557 -2.593,1.595 -1.552,1.049 -3.779,2.623 -6.148,5.139 -1.173,1.262 -2.376,2.77 -3.393,4.612 -1.013,1.833 -1.832,4.03 -2.057,6.493 -0.235,2.455 0.183,5.133 1.254,7.649 1.059,2.527 2.703,4.893 4.682,7.052 1.982,2.163 4.301,4.138 6.826,5.967 2.512,1.824 5.214,3.565 8.085,5.191 5.742,3.247 12.172,6.04 19.119,8.016 6.937,1.972 14.409,3.158 22.067,2.949 7.611,-0.221 15.564,-1.878 22.361,-6.089 6.845,-4.27 12.337,-10.754 15.057,-18.334 1.345,-3.781 1.937,-7.861 1.494,-11.842 C 80.139,20.233 80.081,19.696 79.965,19.183 79.844,18.686 79.72,18.198 79.59,17.74 79.329,16.809 79.045,15.884 78.719,14.977 78.076,13.159 77.299,11.395 76.389,9.715 74.572,6.353 72.186,3.35 69.415,0.904 66.644,-1.547 63.521,-3.44 60.316,-4.845 53.876,-7.647 47.249,-8.616 41.198,-8.862 35.123,-9.091 29.54,-8.573 24.613,-7.828 19.683,-7.073 15.399,-6.066 11.851,-5.079 4.75,-3.092 0.592,-1.192 -0.085,-0.887 -2.63,0.336 -3.185,0.876 -2.847,0.876 -2.505,0.887 -1.245,0.449 0,0" />
        </g>
        <g
           id="g3171">
          <g
             id="g3173" />
          <g
             id="g3191">
            <g
               style="opacity:0.380005"
               id="g3193"
               clip-path="url(#clipPath3175)">
              <g
                 id="g3195">
                <g
                   id="g3197">
                  <g
                     id="g3199">
                    <g
                       id="g3201">
                      <path
                         inkscape:connector-curvature="0"
                         id="path3203"
                         style="fill:url(#linearGradient3183);stroke:none"
                         d="m 239.678,392.399 c -9.671,0.21 -26.99,13.415 -23.003,31.723 0.009,-15.738 12.458,-26.212 23.003,-31.723" />
                    </g>
                  </g>
                </g>
              </g>
            </g>
          </g>
        </g>
        <g
           id="g3205">
          <g
             id="g3207" />
          <g
             id="g3225">
            <g
               style="opacity:0.380005"
               id="g3227"
               clip-path="url(#clipPath3209)">
              <g
                 id="g3229">
                <g
                   id="g3231">
                  <g
                     id="g3233">
                    <g
                       id="g3235">
                      <path
                         inkscape:connector-curvature="0"
                         id="path3237"
                         style="fill:url(#linearGradient3217);stroke:none"
                         d="m 254.107,390.88 c -11.968,1.146 -32.232,19.1 -25.615,41.433 -1.428,-19.51 13.047,-33.636 25.615,-41.433" />
                    </g>
                  </g>
                </g>
              </g>
            </g>
          </g>
        </g>
        <g
           id="g3239">
          <g
             id="g3241" />
          <g
             id="g3259">
            <g
               style="opacity:0.380005"
               id="g3261"
               clip-path="url(#clipPath3243)">
              <g
                 id="g3263">
                <g
                   id="g3265">
                  <g
                     id="g3267">
                    <g
                       id="g3269">
                      <path
                         inkscape:connector-curvature="0"
                         id="path3271"
                         style="fill:url(#linearGradient3251);stroke:none"
                         d="m 269.235,390.829 c -12.44,2.484 -31.784,23.501 -22.446,46.232 -3.588,-20.326 10.09,-36.702 22.446,-46.232" />
                    </g>
                  </g>
                </g>
              </g>
            </g>
          </g>
        </g>
      </g>
    </g>
    <g
       transform="translate(72,75.2)"
       id="g3273">
      <g
         id="g3275">
        <g
           id="g3281">
          <g
             id="g3283">
            <path
               inkscape:connector-curvature="0"
               id="path3291"
               style="fill:url(#linearGradient3285);stroke:none"
               d="m 220.802,425.878 c 0,0 -16.405,-39.498 -20.25,-63.575 v 0 c -5.176,-4.015 -24.141,-24.528 -29.699,-29.966 v 0 c -10.775,3.579 -24.228,0.335 -29.425,-7.4 v 0 c -2.239,-3.333 1.622,-1.842 4.467,-2.6 v 0 c 2.849,-0.759 22.084,1.205 22.084,1.205 v 0 c 0,0 32.509,28.63 36.483,36.485 v 0 c 7.177,3.6 22.096,51.588 22.141,61.431 v 0 c 11.11,-11.999 26.153,-21.35 26.153,-21.35 v 0 c 4.139,-3.455 20.723,-3.832 14.603,1.968 v 0 c -8.976,8.509 -32.658,23.79 -38.893,25.923 v 0 c -2.676,0.915 -4.2,1.49 -5.183,1.49 v 0 c -1.307,0.001 -1.655,-1.018 -2.481,-3.611" />
          </g>
        </g>
      </g>
    </g>
    <g
       transform="translate(72,75.2)"
       id="g3293">
      <g
         clip-path="url(#clipPath3297)"
         id="g3295">
        <g
           transform="translate(141.4229,323.502)"
           id="g3301">
          <path
             inkscape:connector-curvature="0"
             id="path3303"
             style="fill:#292929;fill-opacity:1;fill-rule:nonzero;stroke:none"
             d="M 0,0 C 0.198,-0.105 0.433,-0.127 0.677,-0.143 0.948,-0.158 1.29,-0.156 1.634,-0.148 2.333,-0.139 3.131,-0.104 4.027,-0.214 4.251,-0.239 4.481,-0.282 4.716,-0.335 4.91,-0.38 5.112,-0.403 5.338,-0.42 5.783,-0.453 6.263,-0.457 6.76,-0.454 c 0.997,0.011 2.073,0.06 3.217,0.127 2.288,0.135 4.849,0.342 7.643,0.593 l 4.362,0.412 4.468,0.458 8.293,7.542 c 2.96,2.724 6.048,5.599 9.211,8.611 3.16,3.012 6.401,6.156 9.621,9.453 1.607,1.651 3.211,3.339 4.762,5.087 0.774,0.875 1.535,1.766 2.258,2.68 0.361,0.457 0.712,0.921 1.04,1.391 0.164,0.236 0.323,0.473 0.472,0.711 0.159,0.256 0.243,0.393 0.524,0.935 l 0.395,0.22 c 0.078,0.046 0.12,0.076 0.183,0.121 0.116,0.082 0.231,0.178 0.346,0.277 0.229,0.203 0.451,0.436 0.666,0.682 0.428,0.494 0.828,1.04 1.208,1.606 0.759,1.135 1.443,2.349 2.091,3.585 1.293,2.478 2.446,5.057 3.539,7.66 2.175,5.213 4.1,10.54 5.872,15.831 1.764,5.295 3.37,10.562 4.767,15.72 0.696,2.579 1.34,5.131 1.893,7.648 0.276,1.259 0.529,2.509 0.739,3.748 l 0.147,0.926 0.066,0.461 0.088,0.725 c 0.103,0.954 0.112,2.098 0.14,3.115 0.056,0.004 0.169,-0.129 0.274,-0.243 l 0.312,-0.336 0.623,-0.669 1.241,-1.313 1.706,-1.73 c 1.074,-1.063 2.153,-2.086 3.23,-3.071 2.154,-1.969 4.295,-3.79 6.378,-5.475 4.168,-3.367 8.093,-6.206 11.543,-8.524 l 1.273,-0.84 0.311,-0.2 c 0.075,-0.053 0.169,-0.093 0.284,-0.153 l 0.639,-0.304 c 0.853,-0.385 1.694,-0.7 2.501,-0.964 1.616,-0.528 3.102,-0.851 4.392,-1.012 2.595,-0.349 4.345,0.105 5.025,0.452 0.419,0.189 0.893,0.468 1.263,0.799 0.372,0.326 0.642,0.691 0.814,0.86 0.168,0.169 0.28,0.133 0.196,-0.321 -0.09,-0.415 -0.45,-1.426 -1.845,-2.233 -0.094,-0.06 -1.537,-0.812 -4.042,-0.732 -1.243,0.025 -2.73,0.218 -4.401,0.628 -0.835,0.206 -1.717,0.464 -2.637,0.79 -0.936,0.347 -1.838,0.673 -2.899,1.272 -3.594,2.291 -7.754,5.202 -12.256,8.729 -2.248,1.766 -4.575,3.692 -6.927,5.795 -1.176,1.051 -2.358,2.148 -3.536,3.294 l -1.721,1.713 -0.279,0.289 -0.138,0.145 -0.069,0.074 c -0.022,0.021 -0.054,0.07 -0.046,0.011 -0.002,-0.2 -0.02,-0.4 -0.042,-0.6 L 85.853,95.369 85.705,94.414 C 85.496,93.142 85.245,91.87 84.972,90.592 84.423,88.039 83.784,85.462 83.094,82.86 81.708,77.658 80.114,72.356 78.355,67.026 76.59,61.698 74.669,56.338 72.484,51.071 c -1.099,-2.631 -2.259,-5.239 -3.58,-7.778 -0.664,-1.268 -1.365,-2.52 -2.171,-3.727 -0.404,-0.602 -0.835,-1.194 -1.326,-1.761 -0.247,-0.284 -0.51,-0.56 -0.805,-0.823 -0.149,-0.13 -0.303,-0.258 -0.473,-0.379 -0.079,-0.059 -0.182,-0.127 -0.254,-0.17 l -0.064,-0.037 c 0.01,0.013 -0.207,-0.378 -0.366,-0.627 -0.169,-0.27 -0.343,-0.531 -0.522,-0.787 -0.356,-0.509 -0.727,-0.999 -1.105,-1.478 -0.757,-0.956 -1.541,-1.872 -2.336,-2.769 -1.589,-1.79 -3.22,-3.503 -4.85,-5.172 C 51.367,22.228 48.096,19.067 44.914,16.052 41.73,13.038 38.631,10.176 35.669,7.478 L 31.335,3.561 27.054,-0.246 21.278,-0.781 16.262,-1.18 C 13.101,-1.406 10.32,-1.565 7.966,-1.597 6.776,-1.6 5.745,-1.617 4.685,-1.437 l -0.358,0.085 c -0.095,0.026 -0.194,0.042 -0.288,0.062 -0.193,0.036 -0.384,0.062 -0.57,0.084 -0.374,0.04 -0.73,0.058 -1.061,0.069 -0.663,0.023 -1.224,0.027 -1.675,0.072 -0.558,0.039 -1.019,0.21 -1.154,0.3 -0.334,0.194 -0.559,0.497 -0.602,0.814 -0.056,0.309 0.018,0.594 0.1,0.832 0.202,0.501 0.42,0.733 0.542,0.878 C -0.1,2.055 0.016,2.072 0.021,1.929 0.028,1.788 -0.093,1.476 -0.206,1.093 -0.256,0.904 -0.309,0.71 -0.305,0.506 -0.307,0.307 -0.203,0.086 0,0" />
        </g>
        <g
           transform="translate(265.6226,403.8491)"
           id="g3305">
          <path
             inkscape:connector-curvature="0"
             id="path3307"
             style="fill:#292929;fill-opacity:1;fill-rule:nonzero;stroke:none"
             d="m 0,0 c -2.172,1.61 -6.088,4.516 -11.428,8.199 -5.347,3.66 -12.06,8.225 -19.947,12.777 -1.98,1.095 -4.029,2.284 -6.203,3.019 -1.14,0.381 -2.3,0.807 -3.425,1.116 -0.548,0.151 -1.14,0.252 -1.435,0.166 -0.138,-0.043 -0.226,-0.092 -0.353,-0.252 -0.123,-0.153 -0.247,-0.386 -0.357,-0.641 -0.225,-0.513 -0.414,-1.114 -0.606,-1.708 -0.195,-0.685 -0.486,-1.241 -0.707,-1.838 l -1.433,-3.588 -2.847,-7.366 c -3.768,-9.971 -7.482,-20.48 -10.623,-31.061 -1.562,-5.291 -2.981,-10.603 -4.066,-15.879 l -0.386,-1.977 -0.375,-2.142 c -0.038,-0.114 0,-0.259 -0.101,-0.346 l -0.32,-0.254 -0.444,-0.362 -0.744,-0.642 -1.461,-1.332 c -1.924,-1.803 -3.781,-3.647 -5.599,-5.472 -7.267,-7.312 -13.894,-14.342 -19.839,-20.354 l -1.155,-1.147 -0.406,-0.398 c -0.07,-0.057 -0.13,-0.153 -0.207,-0.176 l -0.269,0.086 -0.929,0.293 c -0.955,0.283 -1.907,0.512 -2.849,0.686 -1.882,0.351 -3.719,0.498 -5.461,0.504 -3.489,0.006 -6.594,-0.56 -9.144,-1.357 -5.149,-1.603 -7.894,-4.127 -8.771,-4.976 -0.712,-0.658 -1.65,-1.65 -2.048,-1.924 -0.205,-0.13 -0.291,-0.066 -0.14,0.347 0.157,0.407 0.548,1.175 1.488,2.281 0.064,0.064 0.64,0.694 1.826,1.614 1.186,0.911 3.012,2.089 5.522,3.089 2.501,1 5.681,1.83 9.388,2.064 1.85,0.117 3.83,0.084 5.894,-0.17 1.032,-0.125 2.084,-0.307 3.148,-0.554 0.533,-0.122 1.067,-0.266 1.604,-0.423 l 0.399,-0.122 c 0.041,0 0.068,0.056 0.103,0.082 l 0.145,0.144 c 6.226,6.311 13.272,13.919 21.08,21.824 1.959,1.973 3.954,3.972 6.075,5.927 0.533,0.488 1.073,0.972 1.647,1.445 0.103,0.096 0.113,0.065 0.151,0.146 l 0.044,0.27 0.184,1.074 c 0.255,1.433 0.54,2.865 0.847,4.299 1.239,5.73 2.822,11.466 4.549,17.155 3.472,11.376 7.521,22.579 11.581,33.026 l 1.53,3.88 1.512,3.74 c 0.21,0.646 0.407,1.291 0.674,1.96 0.138,0.335 0.288,0.679 0.525,1.037 0.223,0.351 0.62,0.745 1.12,0.929 1.021,0.314 1.743,0.044 2.412,-0.101 0.668,-0.181 1.291,-0.392 1.907,-0.601 l 1.82,-0.626 c 0.629,-0.209 1.251,-0.478 1.83,-0.747 1.167,-0.546 2.27,-1.137 3.344,-1.735 2.147,-1.199 4.172,-2.43 6.106,-3.637 C -10.201,9.544 -0.447,1.575 0.381,0.788 3.533,-2.192 1.649,-1.193 0,0" />
        </g>
        <g
           transform="translate(348.1514,411.4106)"
           id="g3309">
          <path
             inkscape:connector-curvature="0"
             id="path3311"
             style="fill:#292929;fill-opacity:1;fill-rule:nonzero;stroke:none"
             d="m 0,0 c 2.774,0.241 7.292,1.036 12.457,2.686 5.17,1.614 10.982,3.959 16.547,6.429 5.566,2.468 10.897,5.042 15.182,7.051 4.277,2.025 7.544,3.418 8.813,3.856 0.484,0.178 1.217,0.297 1.494,0.187 0.278,-0.113 0.097,-0.393 -1.129,-1.11 C 53.203,19.03 50.021,17.662 45.378,15.325 40.728,13.022 34.577,9.898 28.218,7.068 21.869,4.224 15.271,1.736 9.959,0.44 4.656,-0.92 0.697,-0.938 0.107,-0.851 -2.165,-0.552 -1.033,-0.125 0,0" />
        </g>
      </g>
    </g>
    <g
       transform="translate(72,75.2)"
       id="g3313">
      <g
         id="g3315">
        <g
           id="g3321">
          <g
             id="g3323">
            <path
               inkscape:connector-curvature="0"
               id="path3331"
               style="fill:url(#radialGradient3325);stroke:none"
               d="m 328.065,446.549 c -20.828,-6.401 -24.155,-21.342 -25.043,-30.552 v 0 c -5.06,-22.262 22.088,-20.803 37.749,-18.321 v 0 c 15.661,2.481 31.32,14.517 30.145,24.727 v 0 c -3.674,13.693 -16.245,25.755 -32.468,25.754 v 0 c -3.322,0 -6.799,-0.506 -10.383,-1.608" />
          </g>
        </g>
      </g>
    </g>
    <g
       transform="translate(72,75.2)"
       id="g3333">
      <g
         clip-path="url(#clipPath3337)"
         id="g3335">
        <g
           transform="translate(338.585,397.1621)"
           id="g3341">
          <path
             inkscape:connector-curvature="0"
             id="path3343"
             style="fill:#292929;fill-opacity:1;fill-rule:nonzero;stroke:none"
             d="m 0,0 c -2.531,-0.447 -7.107,-1.224 -13.284,-1.36 -3.084,-0.041 -6.583,0.07 -10.347,0.846 -1.876,0.396 -3.82,0.971 -5.721,1.902 -1.889,0.928 -3.751,2.256 -5.156,4.115 -1.417,1.846 -2.261,4.187 -2.497,6.58 -0.126,1.198 -0.119,2.413 -0.013,3.621 0.052,0.605 0.129,1.208 0.226,1.81 l 0.163,0.901 0.092,0.448 0.024,0.113 10e-4,0.014 0.019,0.202 c 0.432,4.787 1.507,9.848 3.925,14.501 2.376,4.661 6.132,8.748 10.647,11.679 2.25,1.479 4.67,2.697 7.166,3.697 2.495,0.989 5.067,1.81 7.733,2.335 5.445,1.096 11.174,0.859 16.399,-0.762 5.238,-1.594 9.912,-4.51 13.644,-8.099 3.741,-3.597 6.569,-7.855 8.417,-12.254 0.462,-1.101 0.867,-2.21 1.208,-3.323 l 0.244,-0.834 c 0.065,-0.305 0.169,-0.481 0.22,-0.958 0.056,-0.605 0.057,-1.207 0.006,-1.798 C 32.921,21 32,18.877 30.895,17.054 28.62,13.406 25.626,10.78 22.805,8.7 19.952,6.633 17.18,5.135 14.734,4.021 9.825,1.802 6.264,1.076 5.048,0.793 4.113,0.585 2.771,0.449 2.323,0.534 1.87,0.63 2.333,0.829 4.87,1.568 c 0.146,0.078 2.997,0.615 7.511,2.552 2.247,0.975 4.9,2.32 7.699,4.213 2.777,1.895 5.773,4.325 8.226,7.586 1.207,1.629 2.27,3.482 2.822,5.527 0.27,1.019 0.413,2.082 0.347,3.141 -0.003,0.133 -0.022,0.265 -0.034,0.397 -0.008,0.085 -0.004,0.076 -0.012,0.104 l -0.05,0.171 -0.248,0.828 c -0.17,0.553 -0.362,1.103 -0.566,1.654 -1.63,4.398 -4.286,8.708 -7.873,12.363 -3.574,3.655 -8.116,6.628 -13.217,8.278 -5.093,1.673 -10.699,1.947 -16.067,0.858 -5.443,-1.157 -10.827,-3.322 -15.304,-6.502 -4.505,-3.177 -7.963,-7.572 -9.968,-12.455 -1.021,-2.433 -1.712,-4.965 -2.173,-7.495 -0.231,-1.266 -0.403,-2.533 -0.537,-3.794 l -0.03,-0.282 -0.064,-0.304 -0.099,-0.454 -0.172,-0.908 c -0.103,-0.603 -0.184,-1.205 -0.236,-1.804 -0.214,-2.388 0.032,-4.739 0.918,-6.75 0.87,-2.019 2.373,-3.634 4.113,-4.789 1.744,-1.165 3.681,-1.924 5.581,-2.46 1.904,-0.535 3.785,-0.851 5.573,-1.057 3.583,-0.401 6.796,-0.382 9.48,-0.289 5.376,0.224 8.677,0.722 9.221,0.749 C 3.815,1.055 1.936,0.398 0,0" />
        </g>
      </g>
    </g>
    <g
       transform="translate(72,75.2)"
       id="g3345">
      <g
         id="g3347">
        <g
           id="g3353">
          <g
             id="g3355">
            <path
               inkscape:connector-curvature="0"
               id="path3363"
               style="fill:url(#linearGradient3357);stroke:none"
               d="m 344.981,387.654 c 12.828,-4.676 40.434,10.56 49.4,11.921 v 0 c 4.756,-4.164 18.661,-40.566 40.52,-55.079 v 0 c 3.697,-2.551 20.935,-3.238 20.935,-3.238 v 0 c -2.997,7.525 -11.554,11.138 -19.851,8.189 v 0 c -4.948,1.086 -34.199,51.201 -38.208,54.931 v 0 c -9.084,2.893 -23.483,1.104 -41.707,-6.232 v 0 c 3.178,7.519 4.29,12.854 3.642,14.825 v 0 l -12.568,2.727 c -2.318,-12.206 -4.537,-22.874 -2.163,-28.044" />
          </g>
        </g>
      </g>
    </g>
    <g
       transform="translate(72,75.2)"
       id="g3365">
      <g
         clip-path="url(#clipPath3369)"
         id="g3367">
        <g
           transform="translate(397.0342,403.96)"
           id="g3373">
          <path
             inkscape:connector-curvature="0"
             id="path3375"
             style="fill:#292929;fill-opacity:1;fill-rule:nonzero;stroke:none"
             d="m 0,0 c -1.063,0.111 -3.206,0.502 -6.112,0.607 -2.904,0.116 -6.558,-0.066 -10.518,-0.653 -3.961,-0.587 -8.221,-1.557 -12.369,-2.756 -2.075,-0.599 -4.124,-1.252 -6.101,-1.928 -0.989,-0.337 -1.959,-0.681 -2.906,-1.029 l -4.12,-1.568 0.882,2.062 0.764,1.848 c 0.333,0.826 0.64,1.625 0.919,2.392 0.558,1.533 1.003,2.938 1.328,4.157 0.67,2.442 0.754,4.131 0.715,4.594 -10e-4,0.274 0.059,0.661 0.191,0.844 0.116,0.187 0.473,0.142 0.799,-0.765 0.049,-0.085 0.16,-1.833 -0.441,-4.413 -0.283,-1.296 -0.707,-2.814 -1.263,-4.485 -0.279,-0.835 -0.589,-1.71 -0.932,-2.614 l -0.446,-1.144 1.3,0.51 c 1.023,0.389 2.073,0.777 3.145,1.153 2.143,0.757 4.37,1.48 6.624,2.13 4.506,1.305 9.131,2.294 13.34,2.778 4.207,0.499 7.989,0.456 10.732,0.108 C -1.721,1.496 -0.031,0.927 0.175,0.835 1.348,0.226 0.603,-0.032 0,0" />
        </g>
        <g
           transform="translate(455.1797,341.7334)"
           id="g3377">
          <path
             inkscape:connector-curvature="0"
             id="path3379"
             style="fill:#292929;fill-opacity:1;fill-rule:nonzero;stroke:none"
             d="m 0,0 c -0.65,1.026 -1.849,2.927 -4.154,4.653 -2.269,1.718 -5.757,3.135 -9.792,2.935 -1.002,-0.045 -2.029,-0.186 -3.058,-0.428 -0.515,-0.119 -1.031,-0.263 -1.543,-0.437 l -0.659,-0.189 c -0.228,0.01 -0.454,0.106 -0.668,0.203 -0.105,0.053 -0.216,0.117 -0.311,0.174 l -0.216,0.148 c -0.137,0.097 -0.264,0.197 -0.386,0.299 -1.859,1.653 -3.268,3.575 -4.772,5.54 -2.939,3.955 -5.777,8.219 -8.555,12.471 -5.537,8.515 -10.767,17.018 -14.869,23.577 -4.08,6.574 -7.101,11.158 -7.818,12.066 -0.261,0.365 -0.553,0.918 -0.576,1.189 -0.043,0.28 0.368,0.32 1.36,-0.58 0.068,-0.058 0.958,-1.191 2.322,-3.186 1.371,-1.995 3.245,-4.847 5.455,-8.276 4.427,-6.852 10.186,-16.027 16.176,-25.089 3.006,-4.516 6.045,-9.043 9.168,-13.05 0.785,-0.993 1.58,-1.958 2.407,-2.804 0.206,-0.209 0.415,-0.411 0.625,-0.593 0.104,-0.091 0.209,-0.178 0.312,-0.255 0.097,-0.074 0.229,-0.161 0.241,-0.167 0.04,-0.022 0.082,-0.044 0.127,-0.054 l 0.141,0.045 c 0.295,0.102 0.594,0.186 0.892,0.268 2.38,0.658 4.771,0.789 6.933,0.501 C -9.052,8.68 -7.121,7.988 -5.542,7.12 -3.96,6.25 -2.727,5.211 -1.817,4.237 0.003,2.269 0.618,0.694 0.723,0.459 1.335,-1.517 0.503,-0.76 0,0" />
        </g>
        <g
           transform="translate(346.5996,387.0049)"
           id="g3381">
          <path
             inkscape:connector-curvature="0"
             id="path3383"
             style="fill:#292929;fill-opacity:1;fill-rule:nonzero;stroke:none"
             d="m 0,0 c 1.88,-0.323 5.354,-0.432 9.874,0.45 4.522,0.84 10.043,2.55 16.157,4.822 3.061,1.132 6.274,2.399 9.626,3.709 3.369,1.284 6.812,2.718 10.623,3.698 0.245,0.057 0.474,0.111 0.741,0.161 0.197,0.041 0.396,0.072 0.595,0.099 0.193,0.007 0.424,0.14 0.551,-0.072 0.149,-0.135 0.295,-0.273 0.437,-0.419 l 0.203,-0.219 0.135,-0.159 c 0.168,-0.201 0.324,-0.404 0.474,-0.609 0.597,-0.818 1.114,-1.655 1.622,-2.501 1.007,-1.691 1.949,-3.416 2.894,-5.147 1.882,-3.465 3.756,-6.961 5.698,-10.399 3.872,-6.878 7.999,-13.54 12.422,-19.401 4.408,-5.865 9.136,-10.915 13.865,-14.579 0.59,-0.458 1.179,-0.896 1.765,-1.312 l 0.881,-0.61 c 0.256,-0.177 0.542,-0.323 0.843,-0.454 1.216,-0.516 2.516,-0.815 3.734,-1.076 2.454,-0.502 4.694,-0.786 6.614,-1.013 3.848,-0.437 6.443,-0.603 7.355,-0.681 1.402,-0.109 3.948,-0.739 -0.057,-0.991 -0.128,-10e-4 -2.334,0.085 -6.096,0.424 -1.881,0.177 -4.15,0.411 -6.742,0.842 -1.296,0.225 -2.671,0.485 -4.119,0.927 -0.723,0.235 -1.473,0.487 -2.232,0.983 -0.636,0.422 -1.291,0.878 -1.94,1.354 -5.222,3.814 -10.445,9.27 -15.259,15.641 -4.833,6.368 -9.292,13.636 -13.437,21.06 L 51.123,5.641 c -1.023,1.803 -2.04,3.64 -3.213,5.187 -0.147,0.19 -0.326,0.397 -0.341,0.409 L 47.487,11.316 47.375,11.297 46.807,11.177 46.091,11 C 45.137,10.746 44.188,10.446 43.25,10.13 39.499,8.844 35.898,7.385 32.447,6.068 28.998,4.741 25.703,3.516 22.604,2.479 16.415,0.39 10.981,-0.889 6.941,-1.22 2.896,-1.589 0.352,-0.983 -0.039,-0.864 -1.578,-0.375 -1.879,0.003 -1.669,0.08 -1.453,0.179 -0.719,0.078 0,0" />
        </g>
        <g
           transform="translate(347.2734,414.9282)"
           id="g3385">
          <path
             inkscape:connector-curvature="0"
             id="path3387"
             style="fill:#292929;fill-opacity:1;fill-rule:nonzero;stroke:none"
             d="m 0,0 c 0.297,-1.636 -0.991,-8.069 -1.979,-14.29 -0.486,-3.111 -0.827,-6.185 -0.792,-8.555 0.007,-2.378 0.486,-3.985 0.593,-4.318 0.069,-0.24 -0.175,-0.97 -0.923,-0.365 -0.049,0.028 -0.806,1.78 -0.937,4.42 -0.182,2.633 0.1,6.07 0.587,9.46 1.001,6.781 2.454,13.477 2.609,13.778 C -0.481,0.689 -0.085,0.314 0,0" />
        </g>
      </g>
    </g>
    <g
       transform="translate(72,75.2)"
       id="g3389">
      <g
         id="g3391">
        <g
           id="g3397">
          <g
             id="g3399">
            <path
               inkscape:connector-curvature="0"
               id="path3407"
               style="fill:url(#linearGradient3401);stroke:none"
               d="m 320.013,410.188 c -1.353,-3.027 -6.866,-16.938 -7.471,-20.374 v 0 c -6.055,1.927 -21.509,1.752 -23.578,-0.435 v 0 c -3.826,-5.544 -15.72,-53.05 -20.727,-58.912 v 0 c -6.822,1.98 -20.837,0.166 -21.494,-10.217 v 0 l 20.215,2.191 c 7.744,6.459 24.443,50.572 26.45,63.954 v 0 c 2.643,-0.939 16.46,-2.204 21.458,-2.52 v 0 c 4.689,0.861 15.736,16.76 18.892,23.898 v 0 c 1.542,4.247 -2.224,7.672 -6.386,7.671 v 0 c -2.754,0 -5.683,-1.501 -7.359,-5.256" />
          </g>
        </g>
      </g>
    </g>
    <g
       transform="translate(318.2681,396.9441)"
       id="g3417">
      <path
         inkscape:connector-curvature="0"
         id="path3419"
         style="fill:#292929;fill-opacity:1;fill-rule:nonzero;stroke:none"
         d="m 0,0 c 0.165,0.949 0.546,2.26 1.481,3.629 0.923,1.369 2.417,2.734 4.383,3.768 1.962,1.043 4.364,1.779 7.036,2.121 1.337,0.17 2.744,0.242 4.203,0.186 0.729,-0.029 1.471,-0.09 2.224,-0.195 0.377,-0.053 0.756,-0.114 1.137,-0.193 l 0.479,-0.103 0.203,-0.05 c 0.051,0.034 0.088,0.105 0.128,0.158 l 0.192,0.307 c 0.183,0.306 0.358,0.629 0.527,0.96 0.338,0.664 0.653,1.363 0.959,2.078 0.611,1.434 1.182,2.938 1.744,4.483 1.121,3.095 2.198,6.363 3.28,9.739 2.159,6.753 4.317,13.942 6.569,21.223 1.129,3.64 2.275,7.304 3.502,10.941 0.618,1.818 1.249,3.629 1.965,5.42 0.364,0.896 0.732,1.784 1.224,2.675 l 0.201,0.337 c 0.078,0.131 0.203,0.311 0.353,0.428 0.29,0.244 0.526,0.361 0.782,0.485 0.499,0.228 0.984,0.373 1.466,0.495 1.925,0.465 3.814,0.622 5.69,0.736 1.875,0.101 3.73,0.114 5.563,0.062 1.832,-0.052 3.641,-0.17 5.421,-0.376 0.89,-0.103 1.773,-0.228 2.647,-0.39 0.436,-0.081 0.871,-0.171 1.304,-0.275 l 0.633,-0.169 c 0.028,0.143 0.067,0.285 0.11,0.425 l 0.294,0.908 c 0.216,0.629 0.444,1.244 0.676,1.849 0.466,1.211 0.951,2.387 1.434,3.538 0.97,2.3 1.943,4.493 2.887,6.579 0.945,2.087 1.86,4.064 2.743,5.92 0.227,0.466 0.421,0.913 0.696,1.391 0.27,0.46 0.585,0.879 0.926,1.256 0.684,0.756 1.463,1.348 2.256,1.826 3.2,1.846 6.527,2.169 8.809,1.275 1.15,-0.449 1.903,-1.362 2.155,-2.159 0.267,-0.801 0.218,-1.418 0.192,-1.777 -0.062,-0.84 -0.558,-1.879 -0.869,-2.126 -0.15,-0.131 -0.244,-0.077 -0.236,0.259 -0.009,0.331 0.14,0.969 0.115,1.94 -0.009,0.04 0.029,0.319 -0.032,0.773 -0.066,0.447 -0.245,1.073 -0.868,1.588 -1.225,1.083 -4.336,1.265 -7.43,-0.135 -1.528,-0.695 -3.14,-1.813 -4.049,-3.487 -0.893,-1.849 -1.849,-3.977 -2.829,-6.163 -0.982,-2.202 -2,-4.531 -3.018,-6.972 -0.508,-1.221 -1.015,-2.47 -1.503,-3.747 -0.242,-0.638 -0.48,-1.284 -0.701,-1.934 -0.112,-0.331 -0.213,-0.639 -0.316,-0.989 -0.173,-0.562 -0.28,-1.194 -0.401,-1.796 l -1.052,0.313 -0.532,0.149 -0.417,0.102 c -0.407,0.095 -0.822,0.178 -1.242,0.253 -0.84,0.15 -1.699,0.267 -2.569,0.362 -1.74,0.19 -3.524,0.295 -5.33,0.337 -1.806,0.039 -3.636,0.016 -5.471,-0.096 C 47.898,68.021 46.029,67.847 44.3,67.402 43.876,67.288 43.455,67.151 43.119,66.98 42.956,66.901 42.796,66.784 42.773,66.756 L 42.74,66.707 42.659,66.575 42.5,66.294 C 42.084,65.513 41.724,64.638 41.377,63.766 40.689,62.011 40.066,60.203 39.458,58.39 38.248,54.759 37.11,51.085 35.986,47.439 33.743,40.146 31.583,32.951 29.408,26.213 28.319,22.844 27.231,19.588 26.091,16.498 25.52,14.953 24.936,13.45 24.305,12 23.987,11.275 23.66,10.563 23.298,9.868 23.117,9.521 22.927,9.178 22.719,8.838 L 22.55,8.572 C 22.46,8.445 22.378,8.311 22.283,8.191 22.099,7.947 21.907,7.706 21.71,7.488 l -1.085,0.293 -0.644,0.143 c -0.41,0.081 -0.82,0.146 -1.229,0.2 C 17.935,8.23 17.125,8.286 16.332,8.302 14.747,8.333 13.231,8.212 11.827,7.978 9.015,7.513 6.648,6.574 4.945,5.424 3.23,4.275 2.209,2.942 1.662,1.906 1.107,0.865 0.936,0.145 0.865,-0.05 0.389,-1.571 0.296,-2.033 0.115,-1.835 -0.036,-1.649 -0.125,-0.821 0,0" />
    </g>
    <g
       transform="translate(404.707,480.9954)"
       id="g3421">
      <path
         inkscape:connector-curvature="0"
         id="path3423"
         style="fill:#292929;fill-opacity:1;fill-rule:nonzero;stroke:none"
         d="m 0,0 c -1.178,-2.786 -4.39,-8.797 -10.01,-15.897 -1.431,-1.756 -2.994,-3.595 -4.966,-5.282 -0.501,-0.416 -1.028,-0.822 -1.63,-1.18 -0.3,-0.18 -0.622,-0.346 -0.981,-0.48 -0.201,-0.074 -0.319,-0.117 -0.622,-0.181 -0.132,-0.051 -0.286,0.001 -0.392,-0.006 l -0.245,0.015 -3.992,0.294 c -2.706,0.221 -5.499,0.481 -8.362,0.796 -1.431,0.158 -2.879,0.33 -4.342,0.532 -0.733,0.102 -1.469,0.212 -2.211,0.34 l -1.108,0.21 c -0.107,0.023 -0.215,0.047 -0.319,0.083 -0.031,-0.058 -0.032,-0.165 -0.052,-0.245 l -0.123,-0.644 c -0.119,-0.596 -0.249,-1.188 -0.386,-1.778 -0.274,-1.183 -0.577,-2.36 -0.898,-3.535 -0.642,-2.349 -1.353,-4.691 -2.1,-7.026 -1.498,-4.668 -3.143,-9.305 -4.857,-13.837 -3.442,-9.057 -7.119,-17.72 -10.947,-25.166 -1.948,-3.703 -3.845,-7.158 -6.218,-9.946 -0.318,-0.355 -0.593,-0.648 -0.994,-1.005 -0.123,-0.09 -0.223,-0.235 -0.368,-0.272 l -0.46,-0.05 -0.632,-0.064 -2.44,-0.245 -4.42,-0.441 -10.26,-1 c -1.416,-0.124 -4.027,0.102 -0.107,0.987 0.149,0.033 3.241,0.386 8.407,0.961 l 9.195,1.02 0.197,0.022 c 0.042,-0.003 0.073,0.017 0.1,0.047 0.012,0.009 0.236,0.218 0.363,0.352 0.295,0.304 0.583,0.636 0.864,0.985 0.562,0.7 1.099,1.468 1.624,2.273 1.048,1.613 2.05,3.381 3.037,5.243 3.922,7.473 7.694,16.417 11.244,25.779 1.766,4.686 3.466,9.488 5.013,14.307 0.771,2.41 1.504,4.826 2.166,7.234 0.329,1.204 0.641,2.407 0.92,3.606 0.294,1.288 0.466,2.016 0.858,4.469 0.675,-0.232 1.51,-0.501 2.029,-0.589 l 1.192,-0.22 c 0.801,-0.133 1.607,-0.25 2.41,-0.359 1.606,-0.217 3.202,-0.402 4.776,-0.573 3.148,-0.341 6.211,-0.625 9.143,-0.863 l 2.172,-0.163 c 0.396,-0.12 0.981,0.222 1.526,0.534 1.091,0.688 2.083,1.607 2.999,2.518 1.829,1.848 3.393,3.77 4.783,5.565 5.538,7.249 8.265,12.596 8.598,13.129 0.796,1.303 1.093,1.608 1.182,1.39 C 0.44,1.427 0.272,0.691 0,0" />
    </g>
    <g
       transform="translate(420.7568,524.7059)"
       id="g3425">
      <path
         inkscape:connector-curvature="0"
         id="path3427"
         style="fill:#292929;fill-opacity:1;fill-rule:nonzero;stroke:none"
         d="m 0,0 c 0.649,-2.083 1.974,-3.516 3.119,-5.304 1.144,-1.785 2.557,-3.389 4.169,-4.763 1.409,-1.196 2.966,-2.218 4.632,-3.022 0.244,-0.116 0.488,-0.228 0.734,-0.334 0.103,-0.149 -1.053,-1.761 -1.441,-1.608 -1.758,0.693 -3.484,2.197 -4.888,3.75 C 4.746,-9.532 3.229,-7.689 2.22,-5.643 1.203,-3.6 -0.064,-2.103 0,0" />
    </g>
    <g
       transform="translate(420.2568,487.4271)"
       id="g3429">
      <path
         inkscape:connector-curvature="0"
         id="path3431"
         style="fill:#292929;fill-opacity:1;fill-rule:nonzero;stroke:none"
         d="m 0,0 c 2.774,0.243 7.292,1.034 12.456,2.685 5.171,1.615 10.983,3.957 16.546,6.429 5.567,2.467 10.898,5.042 15.184,7.051 4.277,2.025 7.543,3.418 8.812,3.856 C 54,20.375 55.85,20.483 53.362,19.098 53.203,19.029 50.021,17.661 45.377,15.324 40.727,13.022 34.577,9.898 28.217,7.067 21.869,4.222 15.271,1.736 9.959,0.439 4.656,-0.921 0.696,-0.937 0.107,-0.851 -2.167,-0.552 -1.034,-0.127 0,0" />
    </g>
    <g
       transform="translate(397.998,481.4759)"
       id="g3433">
      <path
         inkscape:connector-curvature="0"
         id="path3435"
         style="fill:#90c84c;fill-opacity:1;fill-rule:nonzero;stroke:none"
         d="M 0,0 C 26.784,37.572 97.844,68.915 134.216,38.571 137.848,-2.526 58.812,-15.298 0,0" />
    </g>
    <g
       transform="translate(72,75.2)"
       id="g3441">
      <g
         id="g3443" />
      <g
         id="g3449">
        <g
           id="g3451"
           clip-path="url(#clipPath3445)">
          <g
             id="g3453"
             transform="translate(436.6006,435.4263)">
            <path
               inkscape:connector-curvature="0"
               id="path3455"
               style="fill:#579a4e;fill-opacity:1;fill-rule:nonzero;stroke:none"
               d="m 0,0 c -2.473,-4.894 -8.229,-14.234 -16.412,-18.468 7.272,5.461 11.575,12.801 13.675,17.676 -7.506,-2.159 -16.176,-4.55 -25.277,-7.001 -2.285,-4.846 -8.845,-16.353 -18.492,-21.342 8.577,6.441 13.366,15.277 15.433,20.523 -9.635,-2.58 -19.646,-5.196 -29.178,-7.648 -1.656,-3.338 -5.706,-10.053 -11.522,-13.058 5.2,3.905 8.213,9.186 9.63,12.572 -23.696,-6.077 -44.024,-11.016 -47.522,-11.562 61.659,-12.3 123.547,2.43 130.136,34.95 C 17.166,5.193 9.729,2.83 0,0" />
          </g>
        </g>
      </g>
    </g>
    <g
       transform="translate(399.9971,484.5169)"
       id="g3437">
      <path
         inkscape:connector-curvature="0"
         id="path3439"
         style="fill:#292929;fill-opacity:1;fill-rule:nonzero;stroke:none"
         d="m 0,0 c 2.482,3.423 7.388,9.376 15.109,16.036 7.698,6.651 18.19,14.026 31.148,20.244 6.471,3.103 13.554,5.912 21.147,8.091 7.588,2.168 15.705,3.715 24.112,4.075 8.384,0.35 17.115,-0.518 25.36,-3.409 4.112,-1.44 8.08,-3.388 11.723,-5.836 0.914,-0.61 1.8,-1.256 2.67,-1.928 l 0.647,-0.508 0.787,-0.642 c 0.084,-0.074 0.185,-0.139 0.254,-0.221 l 0.025,-0.339 0.043,-0.594 c 0.023,-0.275 0.035,-0.553 0.045,-0.828 0.096,-2.214 -0.051,-4.444 -0.466,-6.624 -0.804,-4.373 -2.734,-8.49 -5.365,-11.99 -2.628,-3.516 -5.9,-6.449 -9.398,-8.911 -7.045,-4.918 -14.919,-8.083 -22.66,-10.408 -7.77,-2.306 -15.495,-3.73 -22.894,-4.647 -7.404,-0.91 -14.489,-1.299 -21.093,-1.367 -13.215,-0.129 -24.487,1.017 -32.878,2.273 -8.4,1.263 -13.941,2.604 -15.89,3.066 -3.014,0.746 -8.274,2.592 0.224,0.968 0.274,-0.029 4.919,-1.199 12.99,-2.493 8.063,-1.275 19.593,-2.598 33.432,-2.55 6.914,0.026 14.401,0.401 22.25,1.355 7.841,0.962 16.064,2.488 24.287,5.023 8.178,2.56 16.498,6.085 23.554,11.638 3.495,2.78 6.629,6.106 8.854,10.009 2.237,3.888 3.465,8.342 3.522,12.85 0.011,0.563 0.008,1.126 -0.019,1.69 l -0.048,0.844 -0.016,0.214 c 0.008,0.048 -0.026,0.074 -0.062,0.101 l -0.541,0.44 -0.676,0.524 c -0.453,0.344 -0.906,0.687 -1.372,1.015 -1.854,1.32 -3.804,2.5 -5.824,3.543 -4.035,2.091 -8.349,3.6 -12.745,4.6 -8.809,1.999 -17.87,1.992 -26.449,0.89 C 75.188,45.086 67.016,42.885 59.486,40.176 51.954,37.455 45.051,34.209 38.879,30.795 26.516,23.963 17.13,16.455 10.896,10.548 4.65,4.624 1.448,0.374 0.866,-0.272 -1.275,-2.827 -1.884,-3.472 -1.819,-3.076 -1.743,-2.689 -0.933,-1.301 0,0" />
    </g>
    <g
       transform="translate(436.5332,496.1497)"
       id="g3457">
      <path
         inkscape:connector-curvature="0"
         id="path3459"
         style="fill:#ffffff;fill-opacity:1;fill-rule:nonzero;stroke:none"
         d="M 0,0 -0.029,-0.007 -1.486,-1.33 -1.984,-0.396 -0.152,1.256 0.963,1.533 3.355,-8.133 2.092,-8.446 Z" />
    </g>
    <g
       transform="translate(455.5801,493.1668)"
       id="g3461">
      <path
         inkscape:connector-curvature="0"
         id="path3463"
         style="fill:#ffffff;fill-opacity:1;fill-rule:nonzero;stroke:none"
         d="m 0,0 -0.029,-0.007 -1.457,-1.323 -0.5,0.934 1.832,1.652 1.115,0.277 2.394,-9.666 -1.263,-0.313 z" />
    </g>
    <g
       transform="translate(482.4297,505.4412)"
       id="g3465">
      <path
         inkscape:connector-curvature="0"
         id="path3467"
         style="fill:#ffffff;fill-opacity:1;fill-rule:nonzero;stroke:none"
         d="M 0,0 -0.035,-0.009 -1.743,-1.562 -2.33,-0.466 -0.18,1.474 1.129,1.798 3.938,-9.544 2.454,-9.911 Z" />
    </g>
    <g
       transform="translate(432.8203,488.1482)"
       id="g3469">
      <path
         inkscape:connector-curvature="0"
         id="path3471"
         style="fill:#ffffff;fill-opacity:1;fill-rule:nonzero;stroke:none"
         d="m 0,0 -0.029,-0.007 -1.456,-1.324 -0.499,0.934 1.831,1.652 1.115,0.277 2.393,-9.666 -1.263,-0.313 z" />
    </g>
    <g
       transform="translate(475.377,498.2244)"
       id="g3473">
      <path
         inkscape:connector-curvature="0"
         id="path3475"
         style="fill:#ffffff;fill-opacity:1;fill-rule:nonzero;stroke:none"
         d="M 0,0 -0.024,-0.006 -1.242,-1.113 -1.66,-0.332 -0.128,1.051 0.806,1.282 2.809,-6.805 1.75,-7.066 Z" />
    </g>
    <g
       transform="translate(474.6416,481.7732)"
       id="g3477">
      <path
         inkscape:connector-curvature="0"
         id="path3479"
         style="fill:#ffffff;fill-opacity:1;fill-rule:nonzero;stroke:none"
         d="M 0,0 C 1.015,0.251 1.209,1.569 0.74,3.463 0.288,5.287 -0.465,6.373 -1.515,6.112 -2.427,5.887 -2.731,4.576 -2.271,2.717 c 0.455,-1.932 1.336,-2.948 2.259,-2.719 z m 0.146,-0.788 c -1.448,-0.358 -2.776,0.753 -3.407,3.2 -0.618,2.497 0.129,4.123 1.635,4.496 C -0.075,7.292 1.17,6.123 1.755,3.763 2.379,1.241 1.777,-0.384 0.157,-0.785 Z" />
    </g>
    <g
       transform="translate(424.373,481.2508)"
       id="g3481">
      <path
         inkscape:connector-curvature="0"
         id="path3483"
         style="fill:#ffffff;fill-opacity:1;fill-rule:nonzero;stroke:none"
         d="M 0,0 C 1.016,0.251 1.209,1.57 0.74,3.463 0.287,5.288 -0.465,6.373 -1.514,6.113 -2.426,5.887 -2.73,4.576 -2.27,2.717 c 0.454,-1.932 1.334,-2.948 2.258,-2.72 z M 0.146,-0.787 C -1.301,-1.146 -2.631,-0.035 -3.26,2.412 -3.879,4.91 -3.131,6.536 -1.627,6.908 -0.074,7.292 1.17,6.124 1.756,3.763 2.379,1.242 1.777,-0.383 0.158,-0.784 Z" />
    </g>
    <g
       transform="translate(445.3887,479.8738)"
       id="g3485">
      <path
         inkscape:connector-curvature="0"
         id="path3487"
         style="fill:#ffffff;fill-opacity:1;fill-rule:nonzero;stroke:none"
         d="M 0,0 C 1.016,0.251 1.209,1.57 0.74,3.463 0.288,5.288 -0.465,6.374 -1.514,6.113 -2.426,5.888 -2.73,4.577 -2.27,2.717 -1.815,0.785 -0.935,-0.231 -0.011,-0.002 Z M 0.146,-0.787 C -1.302,-1.145 -2.63,-0.035 -3.26,2.412 -3.879,4.91 -3.131,6.536 -1.626,6.909 -0.075,7.293 1.171,6.124 1.756,3.763 2.38,1.242 1.777,-0.383 0.158,-0.784 Z" />
    </g>
    <g
       transform="translate(425.8203,493.0208)"
       id="g3489">
      <path
         inkscape:connector-curvature="0"
         id="path3491"
         style="fill:#ffffff;fill-opacity:1;fill-rule:nonzero;stroke:none"
         d="M 0,0 C 1.322,0.328 1.574,2.047 0.963,4.515 0.375,6.895 -0.607,8.31 -1.975,7.971 -3.164,7.676 -3.563,5.968 -2.961,3.543 c 0.592,-2.52 1.74,-3.845 2.945,-3.546 z m 0.191,-1.026 c -1.89,-0.468 -3.623,0.982 -4.443,4.172 -0.807,3.257 0.168,5.375 2.131,5.861 C -0.1,9.508 1.525,7.985 2.287,4.907 3.102,1.62 2.316,-0.5 0.205,-1.023 Z" />
    </g>
    <g
       transform="translate(463.6113,497.1717)"
       id="g3493">
      <path
         inkscape:connector-curvature="0"
         id="path3495"
         style="fill:#ffffff;fill-opacity:1;fill-rule:nonzero;stroke:none"
         d="M 0,0 C 1.323,0.328 1.577,2.048 0.965,4.517 0.376,6.896 -0.606,8.31 -1.974,7.971 -3.163,7.676 -3.562,5.968 -2.961,3.544 -2.368,1.023 -1.22,-0.302 -0.015,-0.003 Z M 0.191,-1.026 C -1.697,-1.494 -3.43,-0.045 -4.251,3.145 -5.058,6.403 -4.083,8.521 -2.119,9.007 -0.098,9.508 1.526,7.985 2.289,4.906 3.103,1.62 2.317,-0.5 0.206,-1.022 Z" />
    </g>
    <g
       transform="translate(505.3799,507.074)"
       id="g3497">
      <path
         inkscape:connector-curvature="0"
         id="path3499"
         style="fill:#ffffff;fill-opacity:1;fill-rule:nonzero;stroke:none"
         d="M 0,0 C 1.323,0.328 1.576,2.047 0.966,4.516 0.376,6.895 -0.606,8.31 -1.975,7.971 -3.164,7.676 -3.562,5.968 -2.961,3.543 -2.368,1.023 -1.22,-0.302 -0.015,-0.004 Z M 0.19,-1.026 C -1.697,-1.494 -3.43,-0.045 -4.251,3.145 -5.058,6.403 -4.083,8.521 -2.12,9.007 -0.098,9.508 1.526,7.985 2.288,4.906 3.103,1.62 2.317,-0.5 0.206,-1.023 Z" />
    </g>
    <g
       transform="translate(486.3135,482.2757)"
       id="g3501">
      <path
         inkscape:connector-curvature="0"
         id="path3503"
         style="fill:#ffffff;fill-opacity:1;fill-rule:nonzero;stroke:none"
         d="M 0,0 C 1.442,0.357 1.718,2.232 1.052,4.921 0.409,7.514 -0.66,9.056 -2.151,8.687 -3.447,8.366 -3.881,6.503 -3.227,3.862 c 0.646,-2.746 1.898,-4.191 3.21,-3.866 z m 0.208,-1.118 c -2.059,-0.509 -3.945,1.07 -4.84,4.546 -0.879,3.549 0.183,5.859 2.321,6.388 C -0.106,10.362 1.663,8.703 2.493,5.347 3.38,1.766 2.525,-0.544 0.224,-1.114 Z" />
    </g>
    <g
       transform="translate(451.8926,485.0203)"
       id="g3505">
      <path
         inkscape:connector-curvature="0"
         id="path3507"
         style="fill:#ffffff;fill-opacity:1;fill-rule:nonzero;stroke:none"
         d="M 0,0 -0.02,-0.005 -0.99,-0.887 -1.324,-0.265 -0.102,0.839 0.643,1.023 2.24,-5.428 1.396,-5.637 Z" />
    </g>
    <path
       d="m 510.0293,526.6854 -0.029,-0.007 -1.455,-1.324 -0.5,0.934 1.832,1.653 1.115,0.276 2.392,-9.666 -1.263,-0.313 z"
       style="fill:#ffffff;fill-opacity:1;fill-rule:nonzero;stroke:none"
       id="path3511"
       inkscape:connector-curvature="0" />
    <g
       transform="translate(487.6406,519.4666)"
       id="g3513">
      <path
         inkscape:connector-curvature="0"
         id="path3515"
         style="fill:#ffffff;fill-opacity:1;fill-rule:nonzero;stroke:none"
         d="M 0,0 C 1.324,0.328 1.578,2.048 0.967,4.518 0.377,6.896 -0.605,8.311 -1.973,7.972 -3.162,7.677 -3.561,5.969 -2.961,3.545 -2.367,1.024 -1.219,-0.302 -0.014,-0.004 Z M 0.191,-1.025 C -1.697,-1.493 -3.428,-0.044 -4.25,3.146 -5.057,6.402 -4.082,8.522 -2.119,9.008 -0.096,9.509 1.527,7.986 2.289,4.907 3.104,1.621 2.318,-0.499 0.207,-1.022 Z" />
    </g>
    <g
       transform="translate(471.7129,502.4075)"
       id="g3517">
      <path
         inkscape:connector-curvature="0"
         id="path3519"
         style="fill:#ffffff;fill-opacity:1;fill-rule:nonzero;stroke:none"
         d="M 0,0 C 1.323,0.328 1.576,2.046 0.965,4.516 0.375,6.895 -0.605,8.31 -1.974,7.971 -3.163,7.676 -3.561,5.968 -2.961,3.544 c 0.593,-2.521 1.742,-3.846 2.946,-3.547 z m 0.191,-1.026 c -1.888,-0.468 -3.621,0.981 -4.442,4.171 -0.807,3.258 0.168,5.376 2.132,5.862 2.021,0.501 3.645,-1.021 4.408,-4.1 C 3.103,1.621 2.317,-0.5 0.206,-1.023 Z" />
    </g>
    <g
       transform="translate(491.7422,516.8689)"
       id="g3521">
      <path
         inkscape:connector-curvature="0"
         id="path3523"
         style="fill:#ffffff;fill-opacity:1;fill-rule:nonzero;stroke:none"
         d="m 0,0 -0.029,-0.008 -1.457,-1.322 -0.5,0.934 1.832,1.652 1.115,0.276 2.394,-9.666 -1.263,-0.312 z" />
    </g>
    <g
       transform="translate(490.9844,501.6561)"
       id="g3525">
      <path
         inkscape:connector-curvature="0"
         id="path3527"
         style="fill:#ffffff;fill-opacity:1;fill-rule:nonzero;stroke:none"
         d="M 0,0 C 1.015,0.251 1.209,1.57 0.74,3.462 0.288,5.288 -0.465,6.373 -1.515,6.113 -2.427,5.887 -2.731,4.576 -2.271,2.717 c 0.455,-1.933 1.335,-2.949 2.259,-2.72 z M 0.146,-0.787 C -1.303,-1.146 -2.631,-0.035 -3.261,2.412 -3.879,4.91 -3.132,6.535 -1.627,6.908 -0.075,7.292 1.17,6.124 1.755,3.763 2.379,1.242 1.777,-0.383 0.157,-0.784 Z" />
    </g>
    <g
       transform="translate(479.2539,513.0271)"
       id="g3529">
      <path
         inkscape:connector-curvature="0"
         id="path3531"
         style="fill:#ffffff;fill-opacity:1;fill-rule:nonzero;stroke:none"
         d="M 0,0 C 1.016,0.251 1.208,1.57 0.739,3.462 0.287,5.288 -0.465,6.373 -1.514,6.113 -2.427,5.887 -2.73,4.576 -2.271,2.717 c 0.455,-1.933 1.335,-2.949 2.259,-2.72 z M 0.146,-0.787 C -1.303,-1.146 -2.631,-0.035 -3.261,2.412 -3.879,4.91 -3.132,6.535 -1.627,6.908 -0.075,7.292 1.17,6.124 1.755,3.763 2.379,1.242 1.777,-0.383 0.158,-0.784 Z" />
    </g>
    <g
       transform="translate(413.834,482.8763)"
       id="g3533">
      <path
         inkscape:connector-curvature="0"
         id="path3535"
         style="fill:#ffffff;fill-opacity:1;fill-rule:nonzero;stroke:none"
         d="m 0,0 c 1.324,0.328 1.576,2.047 0.965,4.517 -0.59,2.379 -1.57,3.794 -2.94,3.455 -1.189,-0.295 -1.586,-2.003 -0.986,-4.427 0.594,-2.522 1.742,-3.847 2.947,-3.548 z m 0.191,-1.025 c -1.888,-0.468 -3.621,0.981 -4.443,4.171 -0.807,3.257 0.17,5.375 2.133,5.861 2.021,0.501 3.646,-1.022 4.408,-4.1 C 3.104,1.62 2.318,-0.499 0.207,-1.022 Z" />
    </g>
    <g
       transform="translate(526.1768,511.6927)"
       id="g3537">
      <path
         inkscape:connector-curvature="0"
         id="path3539"
         style="fill:#ffffff;fill-opacity:1;fill-rule:nonzero;stroke:none"
         d="M 0,0 C 1.323,0.328 1.577,2.047 0.966,4.516 0.376,6.895 -0.605,8.311 -1.974,7.972 -3.163,7.677 -3.562,5.969 -2.961,3.544 -2.368,1.023 -1.219,-0.302 -0.015,-0.003 Z M 0.191,-1.026 C -1.697,-1.493 -3.43,-0.044 -4.251,3.146 -5.058,6.403 -4.083,8.521 -2.12,9.007 -0.097,9.508 1.526,7.985 2.289,4.907 3.103,1.62 2.317,-0.499 0.206,-1.022 Z" />
    </g>
    <g
       transform="translate(500.2949,519.6595)"
       id="g3541">
      <path
         inkscape:connector-curvature="0"
         id="path3543"
         style="fill:#ffffff;fill-opacity:1;fill-rule:nonzero;stroke:none"
         d="m 0,0 c 1.322,0.328 1.576,2.047 0.965,4.516 -0.59,2.379 -1.57,3.795 -2.94,3.456 -1.189,-0.295 -1.586,-2.003 -0.986,-4.428 0.592,-2.521 1.742,-3.846 2.945,-3.547 z M 0.191,-1.026 C -1.697,-1.494 -3.43,-0.044 -4.252,3.146 -5.059,6.403 -4.084,8.521 -2.119,9.007 -0.098,9.508 1.525,7.986 2.289,4.908 3.102,1.621 2.316,-0.5 0.205,-1.023 Z" />
    </g>
    <g
       transform="translate(436.0098,508.0672)"
       id="g3545">
      <path
         inkscape:connector-curvature="0"
         id="path3547"
         style="fill:#ffffff;fill-opacity:1;fill-rule:nonzero;stroke:none"
         d="m 0,0 -0.02,-0.005 -0.972,-0.882 -0.332,0.623 1.222,1.103 0.745,0.184 1.597,-6.45 -0.844,-0.209 z" />
    </g>
    <g
       transform="translate(443.0996,502.3294)"
       id="g3549">
      <path
         inkscape:connector-curvature="0"
         id="path3551"
         style="fill:#ffffff;fill-opacity:1;fill-rule:nonzero;stroke:none"
         d="m 0,0 -0.029,-0.007 -1.456,-1.322 -0.499,0.933 1.831,1.653 1.115,0.277 2.393,-9.666 -1.263,-0.313 z" />
    </g>
    <g
       transform="translate(453.4004,500.9061)"
       id="g3553">
      <path
         inkscape:connector-curvature="0"
         id="path3555"
         style="fill:#ffffff;fill-opacity:1;fill-rule:nonzero;stroke:none"
         d="m 0,0 c 1.015,0.251 1.209,1.569 0.74,3.462 -0.452,1.825 -1.205,2.91 -2.254,2.65 -0.913,-0.226 -1.217,-1.537 -0.757,-3.395 0.455,-1.932 1.335,-2.948 2.259,-2.72 z m 0.146,-0.787 c -1.449,-0.359 -2.777,0.752 -3.407,3.199 -0.618,2.497 0.129,4.123 1.634,4.495 C -0.075,7.292 1.17,6.123 1.755,3.763 2.379,1.241 1.777,-0.383 0.158,-0.784 Z" />
    </g>
    <g
       transform="translate(492.7148,494.0662)"
       id="g3557">
      <path
         inkscape:connector-curvature="0"
         id="path3559"
         style="fill:#ffffff;fill-opacity:1;fill-rule:nonzero;stroke:none"
         d="M 0,0 -0.029,-0.007 -1.485,-1.33 -1.984,-0.395 -0.153,1.258 0.962,1.534 3.355,-8.132 2.092,-8.445 Z" />
    </g>
    <g
       transform="translate(464.0518,491.3738)"
       id="g3561">
      <path
         inkscape:connector-curvature="0"
         id="path3563"
         style="fill:#ffffff;fill-opacity:1;fill-rule:nonzero;stroke:none"
         d="m 0,0 -0.039,-0.01 -1.907,-1.733 -0.655,1.222 2.4,2.166 1.461,0.362 3.135,-12.66 -1.656,-0.41 z" />
    </g>
    <g
       transform="translate(513.3672,513.9441)"
       id="g3565">
      <path
         inkscape:connector-curvature="0"
         id="path3567"
         style="fill:#ffffff;fill-opacity:1;fill-rule:nonzero;stroke:none"
         d="m 0,0 -0.029,-0.008 -1.457,-1.323 -0.498,0.934 1.83,1.652 1.115,0.276 2.394,-9.666 -1.263,-0.312 z" />
    </g>
    <g
       transform="translate(510.6582,501.4354)"
       id="g3569">
      <path
         inkscape:connector-curvature="0"
         id="path3571"
         style="fill:#ffffff;fill-opacity:1;fill-rule:nonzero;stroke:none"
         d="m 0,0 -0.029,-0.007 -1.457,-1.323 -0.5,0.934 1.832,1.653 1.115,0.276 2.394,-9.666 -1.263,-0.313 z" />
    </g>
    <g
       transform="translate(521.6807,498.8973)"
       id="g3573">
      <path
         inkscape:connector-curvature="0"
         id="path3575"
         style="fill:#ffffff;fill-opacity:1;fill-rule:nonzero;stroke:none"
         d="m 0,0 c 1.016,0.251 1.208,1.57 0.739,3.463 -0.451,1.825 -1.204,2.91 -2.254,2.65 -0.912,-0.225 -1.216,-1.536 -0.756,-3.396 0.455,-1.932 1.335,-2.948 2.259,-2.72 z M 0.146,-0.787 C -1.302,-1.145 -2.631,-0.035 -3.261,2.412 -3.879,4.91 -3.132,6.536 -1.627,6.909 -0.075,7.293 1.171,6.124 1.755,3.763 2.38,1.242 1.777,-0.383 0.157,-0.784 Z" />
    </g>
    <g
       transform="translate(502.5391,491.1312)"
       id="g3577">
      <path
         inkscape:connector-curvature="0"
         id="path3579"
         style="fill:#ffffff;fill-opacity:1;fill-rule:nonzero;stroke:none"
         d="m 0,0 c 1.322,0.328 1.576,2.048 0.965,4.517 -0.59,2.379 -1.57,3.793 -2.94,3.454 -1.189,-0.295 -1.586,-2.003 -0.986,-4.427 0.592,-2.521 1.742,-3.846 2.945,-3.547 z m 0.191,-1.026 c -1.888,-0.468 -3.621,0.981 -4.443,4.172 -0.807,3.257 0.168,5.375 2.133,5.861 2.021,0.501 3.644,-1.021 4.408,-4.1 C 3.102,1.621 2.316,-0.5 0.205,-1.022 Z" />
    </g>
    <g
       transform="translate(363.0225,611.4173)"
       id="g3581">
      <path
         inkscape:connector-curvature="0"
         id="path3583"
         style="fill:#292929;fill-opacity:1;fill-rule:nonzero;stroke:none"
         d="m 0,0 c -1.382,-3.099 -1.508,-4.124 -0.178,-8.632 2.057,-6.97 2.157,-15.461 1.038,-17.669 -2.085,-4.131 -7.904,18.608 -1.62,25.7" />
    </g>
    <g
       transform="translate(362.7891,610.3143)"
       id="g3585">
      <path
         inkscape:connector-curvature="0"
         id="path3587"
         style="fill:#292929;fill-opacity:1;fill-rule:nonzero;stroke:none"
         d="m 0,0 c -0.171,-0.619 -0.367,-1.334 -0.416,-2.123 -0.055,-0.788 0.072,-1.657 0.315,-2.609 0.238,-0.957 0.574,-1.964 0.926,-3.08 0.349,-1.121 0.646,-2.322 0.904,-3.58 0.501,-2.517 0.83,-5.262 0.865,-8.111 0.01,-1.426 -0.036,-2.872 -0.295,-4.36 -0.061,-0.317 -0.177,-0.876 -0.404,-1.43 -0.229,-0.533 -0.541,-0.929 -1.003,-1.104 -0.505,-0.171 -0.988,0.038 -1.365,0.384 -0.196,0.171 -0.371,0.4 -0.532,0.64 -0.155,0.234 -0.322,0.54 -0.391,0.687 -0.667,1.391 -1.042,2.756 -1.382,4.125 -0.328,1.365 -0.568,2.717 -0.748,4.034 -0.357,2.636 -0.463,5.138 -0.357,7.357 0.102,2.219 0.431,4.153 0.884,5.642 0.444,1.494 1.012,2.524 1.357,3.055 0.262,0.419 0.794,0.886 1.077,0.918 0.298,0.028 0.241,-0.284 -0.227,-1.431 -0.017,-0.08 -0.454,-0.743 -0.881,-2.036 -0.43,-1.289 -0.81,-3.209 -0.906,-5.553 -0.104,-2.342 0.049,-5.096 0.511,-8.001 0.232,-1.451 0.541,-2.943 0.955,-4.419 0.211,-0.735 0.444,-1.471 0.727,-2.172 0.132,-0.333 0.316,-0.731 0.437,-0.956 0.058,-0.103 0.12,-0.208 0.211,-0.285 0.09,-0.1 0.246,-0.044 0.286,0.075 0.063,0.13 0.075,0.163 0.129,0.394 0.148,0.682 0.235,1.471 0.281,2.228 0.094,1.533 0.059,3.073 -0.038,4.562 -0.197,2.982 -0.661,5.774 -1.252,8.145 -0.624,2.34 -1.325,4.474 -1.255,6.239 0.023,0.878 0.221,1.584 0.384,2.072 0.17,0.49 0.31,0.792 0.376,0.917 C 0.226,2.061 0.24,0.935 0,0" />
    </g>
    <g
       transform="translate(427.7275,634.4129)"
       id="g3589">
      <path
         inkscape:connector-curvature="0"
         id="path3591"
         style="fill:#292929;fill-opacity:1;fill-rule:nonzero;stroke:none"
         d="M 0,0 C 3.072,1.437 4.095,1.581 8.625,0.332 15.633,-1.601 24.124,-1.548 26.311,-0.391 30.403,1.769 7.566,7.18 0.587,0.77" />
    </g>
    <g
       transform="translate(428.6553,635.0696)"
       id="g3593">
      <path
         inkscape:connector-curvature="0"
         id="path3595"
         style="fill:#292929;fill-opacity:1;fill-rule:nonzero;stroke:none"
         d="m 0,0 c 0.573,0.316 1.277,0.666 2.164,0.859 0.887,0.199 1.909,0.171 2.94,0.015 1.033,-0.149 2.123,-0.415 3.227,-0.68 1.101,-0.26 2.276,-0.48 3.504,-0.671 2.455,-0.369 5.133,-0.606 7.868,-0.587 1.362,0.014 2.755,0.085 4.062,0.326 0.375,0.077 0.521,0.115 0.604,0.144 0.101,0.036 0.217,0.076 0.277,0.173 0.059,0.109 -0.041,0.214 -0.121,0.279 -0.042,0.036 -0.089,0.067 -0.137,0.097 -0.057,0.034 -0.063,0.04 -0.233,0.123 C 22.997,0.634 21.648,1.026 20.353,1.351 19.044,1.674 17.735,1.919 16.458,2.108 13.902,2.484 11.468,2.629 9.319,2.572 7.169,2.519 5.305,2.25 3.879,1.861 2.448,1.482 1.472,0.986 0.964,0.688 0.569,0.465 -0.009,0.173 -0.294,0.163 c -0.268,-0.022 -0.335,0.374 0.73,1.366 0.071,0.048 0.833,0.598 2.248,1.123 1.411,0.529 3.462,0.994 5.915,1.162 2.454,0.176 5.304,0.088 8.32,-0.321 1.508,-0.205 3.058,-0.49 4.619,-0.891 0.781,-0.207 1.565,-0.436 2.349,-0.734 0.407,-0.16 0.745,-0.29 1.226,-0.544 0.596,-0.317 1.155,-0.724 1.392,-1.218 0.123,-0.241 0.187,-0.528 0.125,-0.816 -0.057,-0.288 -0.222,-0.51 -0.427,-0.701 -0.38,-0.385 -1.14,-0.645 -1.682,-0.772 -0.876,-0.21 -1.677,-0.301 -2.5,-0.369 -1.628,-0.128 -3.222,-0.116 -4.766,-0.039 -3.086,0.156 -5.967,0.597 -8.44,1.192 C 6.348,-0.751 4.369,-0.14 2.957,-0.193 1.575,-0.238 0.677,-0.705 0.419,-0.747 -1.515,-1.337 -0.855,-0.533 0,0" />
    </g>
    <g
       transform="translate(420.0869,564.1595)"
       id="g3597">
      <path
         inkscape:connector-curvature="0"
         id="path3599"
         style="fill:#292929;fill-opacity:1;fill-rule:nonzero;stroke:none"
         d="m 0,0 c -2.514,2.782 -6.508,7.505 -11.428,12.875 -4.912,5.375 -10.764,11.383 -16.801,16.831 -6.019,5.457 -12.248,10.344 -17.461,13.828 -2.6,1.697 -5.091,2.849 -7.16,3.201 -2.078,0.391 -3.589,-0.118 -4.297,-0.519 -0.569,-0.278 -1.345,-0.775 -1.715,-0.869 -0.188,-0.037 -0.284,0.048 -0.176,0.361 0.119,0.3 0.424,0.877 1.305,1.546 0.09,0.044 1.375,0.953 3.704,0.934 2.307,-0.001 5.284,-1.033 8.338,-2.854 6.016,-3.709 13.353,-9.351 20.249,-15.642 6.901,-6.27 13.317,-13.136 18.018,-18.65 C -2.712,5.534 0.319,1.401 0.73,0.727 2.272,-1.86 0.974,-1.025 0,0" />
    </g>
    <g
       transform="translate(434.6523,576.5057)"
       id="g3601">
      <path
         inkscape:connector-curvature="0"
         id="path3603"
         style="fill:#292929;fill-opacity:1;fill-rule:nonzero;stroke:none"
         d="m 0,0 c -2.979,5.382 -8.285,18.693 -10.714,31.988 -1.201,6.617 -1.636,13.291 -0.463,18.51 0.29,1.298 0.68,2.494 1.152,3.549 0.458,1.059 1.054,1.96 1.551,2.695 0.997,1.508 1.885,2.573 2.484,3.071 0.435,0.418 1.291,0.711 1.604,0.561 0.157,-0.058 0.18,-0.187 0.038,-0.389 C -4.488,59.775 -4.777,59.5 -5.183,58.937 -5.234,58.872 -5.878,58.263 -6.78,56.873 -7.216,56.19 -7.809,55.31 -8.289,54.37 -8.776,53.399 -9.202,52.232 -9.511,50.907 -10.799,45.572 -10.104,38.01 -8.563,30.682 -5.468,15.922 0.587,1.713 0.897,0.501 1.567,-1.837 0.61,-1.004 0,0" />
    </g>
    <g
       transform="translate(72,75.2)"
       id="g3605">
      <g
         id="g3607">
        <g
           id="g3613">
          <g
             id="g3615">
            <path
               inkscape:connector-curvature="0"
               id="path3623"
               style="fill:url(#radialGradient3617);stroke:none"
               d="m 348.723,499.262 c -18.549,-10.142 -19.97,-36.466 -9.045,-45.66 v 0 c 14.507,-12.209 35.644,-25.332 50.894,-14.928 v 0 c 9.212,6.284 9.659,23.577 3.288,45.541 v 0 c -1.191,10.993 -14.363,19.18 -28.563,19.179 v 0 c -5.588,-0.001 -11.336,-1.269 -16.574,-4.132" />
          </g>
        </g>
      </g>
    </g>
    <g
       transform="translate(72,75.2)"
       id="g3625">
      <g
         clip-path="url(#clipPath3629)"
         id="g3627">
        <g
           transform="translate(394.7451,481.8687)"
           id="g3633">
          <path
             inkscape:connector-curvature="0"
             id="path3635"
             style="fill:#292929;fill-opacity:1;fill-rule:nonzero;stroke:none"
             d="m 0,0 c 0.879,-2.774 2.369,-7.843 3.371,-14.801 0.478,-3.476 0.829,-7.435 0.59,-11.774 -0.126,-2.167 -0.409,-4.429 -0.995,-6.724 -0.593,-2.286 -1.492,-4.629 -2.964,-6.747 -0.73,-1.059 -1.609,-2.049 -2.627,-2.911 -1.03,-0.868 -2.154,-1.556 -3.332,-2.197 -2.369,-1.254 -5.036,-2.091 -7.807,-2.416 -5.573,-0.67 -11.345,0.609 -16.729,2.744 -5.412,2.15 -10.548,5.163 -15.441,8.551 -2.444,1.701 -4.831,3.502 -7.156,5.381 -1.163,0.964 -2.31,1.835 -3.455,2.949 -1.1,1.109 -2.038,2.362 -2.808,3.698 -1.546,2.676 -2.468,5.639 -2.941,8.622 -0.472,2.988 -0.483,6.014 -0.137,8.962 0.702,5.898 2.91,11.506 6.288,16.053 3.358,4.575 7.94,7.949 12.742,9.938 4.804,2.03 9.792,2.806 14.381,2.727 9.244,-0.162 16.795,-3.593 21.31,-7.378 2.285,-1.892 3.846,-3.868 4.824,-5.511 C -1.897,7.519 -1.465,6.224 -1.251,5.559 -0.903,4.525 -0.76,2.997 -0.913,2.5 -0.975,2.25 -1.084,2.257 -1.252,2.675 c -0.172,0.414 -0.39,1.251 -0.942,2.574 -0.04,0.082 -0.277,0.889 -0.947,2.224 -0.682,1.322 -1.861,3.162 -3.84,5.06 -1.971,1.893 -4.729,3.836 -8.231,5.347 -3.492,1.514 -7.719,2.62 -12.398,2.852 -4.665,0.231 -9.808,-0.42 -14.758,-2.447 -2.472,-1.011 -4.887,-2.347 -7.093,-4.059 -2.205,-1.712 -4.202,-3.792 -5.874,-6.167 -3.352,-4.745 -5.41,-10.647 -5.77,-16.754 -0.18,-3.05 0.057,-6.158 0.822,-9.139 0.767,-2.971 2.066,-5.843 4.044,-8.152 0.492,-0.576 1.024,-1.117 1.598,-1.603 l 1.825,-1.515 c 1.226,-1 2.469,-1.979 3.727,-2.933 2.515,-1.907 5.092,-3.714 7.729,-5.376 5.269,-3.312 10.809,-6.098 16.512,-7.631 2.846,-0.76 5.729,-1.186 8.543,-1.134 2.812,0.042 5.543,0.593 8.006,1.623 1.234,0.51 2.393,1.148 3.479,1.865 1.074,0.7 2.006,1.543 2.807,2.491 1.602,1.902 2.636,4.162 3.318,6.422 1.345,4.558 1.439,9.071 1.289,13.027 -0.179,3.976 -0.683,7.471 -1.19,10.381 -1.048,5.823 -2.063,9.34 -2.168,9.934 C -1.763,4.062 -0.725,2.086 0,0" />
        </g>
      </g>
    </g>
    <g
       transform="translate(72,75.2)"
       id="g3637">
      <g
         id="g3639">
        <g
           id="g3645">
          <g
             id="g3647">
            <path
               inkscape:connector-curvature="0"
               id="path3655"
               style="fill:url(#radialGradient3649);stroke:none"
               d="m 334.998,483.737 c -7.128,-3.898 -10.872,-12.86 -5.542,-22.612 v 0 c 5.335,-9.753 17.184,-13.545 24.313,-9.647 v 0 c 7.131,3.898 8.588,14.964 3.256,24.717 v 0 c -3.597,6.579 -9.119,9.487 -14.521,9.487 v 0 c -2.607,0 -5.185,-0.677 -7.506,-1.945" />
          </g>
        </g>
      </g>
    </g>
    <g
       transform="translate(72,75.2)"
       id="g3657">
      <g
         clip-path="url(#clipPath3661)"
         id="g3659">
        <g
           transform="translate(358.1934,474.3364)"
           id="g3665">
          <path
             inkscape:connector-curvature="0"
             id="path3667"
             style="fill:#292929;fill-opacity:1;fill-rule:nonzero;stroke:none"
             d="m 0,0 c 1.163,-2.262 2.402,-5.541 2.594,-9.626 0.083,-2.032 -0.103,-4.264 -0.829,-6.51 -0.72,-2.231 -2.024,-4.502 -4.078,-6.187 -2.038,-1.705 -4.757,-2.643 -7.51,-2.796 -2.766,-0.168 -5.59,0.369 -8.222,1.423 -5.28,2.089 -9.793,6.389 -12.113,11.632 -1.185,2.598 -1.87,5.445 -1.807,8.268 0.049,2.818 0.863,5.567 2.261,7.856 2.808,4.635 7.668,7.214 12.044,7.696 2.203,0.26 4.307,0.026 6.128,-0.51 1.828,-0.532 3.372,-1.357 4.618,-2.228 2.498,-1.77 3.836,-3.632 4.536,-4.615 0.549,-0.767 1.107,-1.972 1.138,-2.429 0.013,-0.478 -0.33,-0.099 -1.945,1.85 -0.123,0.099 -0.995,1.509 -3.045,3.265 -1.03,0.863 -2.38,1.781 -4.081,2.472 -1.694,0.689 -3.749,1.129 -5.988,1.026 -2.233,-0.097 -4.639,-0.747 -6.857,-2.038 -2.215,-1.282 -4.232,-3.215 -5.566,-5.661 -1.346,-2.435 -1.961,-5.362 -1.686,-8.29 0.254,-2.93 1.349,-5.833 2.936,-8.411 3.17,-5.163 8.734,-8.801 14.393,-9.601 2.813,-0.41 5.654,-0.084 7.956,1.069 2.31,1.142 3.97,3.111 4.944,5.197 0.991,2.095 1.372,4.278 1.464,6.232 C 1.37,-8.952 1.162,-7.194 0.88,-5.729 0.287,-2.792 -0.539,-1.006 -0.7,-0.52 -1.398,1.322 -1.554,1.844 -1.292,1.74 -1.047,1.631 -0.457,0.854 0,0" />
        </g>
        <g
           transform="translate(354.9014,472.0718)"
           id="g3669">
          <path
             inkscape:connector-curvature="0"
             id="path3671"
             style="fill:#292929;fill-opacity:1;fill-rule:nonzero;stroke:none"
             d="m 0,0 c 1.757,-2.625 1.264,-6.038 -1.104,-7.62 -2.367,-1.584 -5.709,-0.736 -7.466,1.888 -1.754,2.624 -1.261,6.037 1.106,7.621 C -5.097,3.471 -1.756,2.625 0,0" />
        </g>
      </g>
    </g>
    <g
       transform="translate(72,75.2)"
       id="g3673">
      <g
         id="g3675">
        <g
           id="g3681">
          <g
             id="g3683">
            <path
               inkscape:connector-curvature="0"
               id="path3691"
               style="fill:url(#radialGradient3685);stroke:none"
               d="m 380.198,499.863 c -6.751,-2.701 -8.615,-10.261 -4.921,-19.498 v 0 c 3.7,-9.235 13.758,-13.851 18.153,-12.377 v 0 c 6.894,2.317 9.83,11.171 6.137,20.405 v 0 c -3.016,7.534 -9.506,12.207 -15.461,12.206 v 0 c -1.345,0 -2.664,-0.238 -3.908,-0.736" />
          </g>
        </g>
      </g>
    </g>
    <g
       transform="translate(72,75.2)"
       id="g3693">
      <g
         clip-path="url(#clipPath3697)"
         id="g3695">
        <g
           transform="translate(400.3896,486.6572)"
           id="g3701">
          <path
             inkscape:connector-curvature="0"
             id="path3703"
             style="fill:#292929;fill-opacity:1;fill-rule:nonzero;stroke:none"
             d="m 0,0 c 0.769,-2.083 1.509,-5.08 1.112,-8.654 -0.206,-1.772 -0.715,-3.684 -1.741,-5.489 -1.011,-1.799 -2.586,-3.478 -4.646,-4.53 -0.516,-0.265 -1.038,-0.488 -1.617,-0.673 -0.606,-0.186 -1.224,-0.266 -1.832,-0.27 -1.217,-0.014 -2.41,0.206 -3.561,0.552 -2.308,0.692 -4.477,1.878 -6.443,3.367 -1.958,1.501 -3.704,3.339 -5.085,5.44 -1.403,2.101 -2.332,4.473 -2.989,6.847 -0.656,2.389 -0.981,4.886 -0.746,7.338 0.239,2.438 1.106,4.85 2.678,6.659 1.557,1.825 3.638,2.978 5.752,3.534 2.137,0.537 4.279,0.373 6.14,-0.143 3.758,-1.067 6.428,-3.315 8.193,-5.249 1.774,-1.972 2.711,-3.712 3.199,-4.651 0.382,-0.729 0.736,-1.833 0.712,-2.235 -0.039,-0.416 -0.313,-0.062 -1.497,1.818 -0.089,0.108 -0.705,1.411 -2.193,3.275 -1.483,1.818 -3.96,4.293 -7.699,5.624 -1.845,0.644 -4.009,0.948 -6.166,0.475 -2.124,-0.482 -4.295,-1.708 -5.731,-3.608 -1.458,-1.902 -2.126,-4.436 -2.115,-7.012 0.004,-2.589 0.615,-5.227 1.548,-7.738 1.787,-5.025 5.749,-9.137 10.252,-11.365 1.124,-0.558 2.286,-0.995 3.448,-1.27 1.156,-0.264 2.337,-0.383 3.368,-0.172 2.101,0.53 3.971,1.901 5.161,3.49 1.23,1.596 1.921,3.401 2.275,5.065 0.356,1.672 0.397,3.213 0.331,4.512 -0.169,2.605 -0.699,4.242 -0.79,4.68 C -1.089,1.289 -1.169,1.759 -0.947,1.644 -0.744,1.524 -0.313,0.788 0,0" />
        </g>
        <g
           transform="translate(396.1172,489.3496)"
           id="g3705">
          <path
             inkscape:connector-curvature="0"
             id="path3707"
             style="fill:#292929;fill-opacity:1;fill-rule:nonzero;stroke:none"
             d="M 0,0 C 1.756,-2.624 2.472,-6.643 0.104,-8.224 -2.263,-9.808 -5,-8.356 -6.757,-5.732 -8.511,-3.108 -8.623,0.306 -6.256,1.889 -3.889,3.471 -1.757,2.625 0,0" />
        </g>
      </g>
    </g>
    <g
       id="layer1"
       inkscape:label="Layer 1"
       transform="matrix(2.2994024,0,0,-2.2994024,551.54526,1056.8677)"
       style="fill:#ffffff">
      <flowRoot
         style="font-style:normal;font-variant:normal;font-weight:normal;font-stretch:normal;font-size:40px;line-height:125%;font-family:Lato;-inkscape-font-specification:Lato;letter-spacing:0px;word-spacing:0px;fill:#ffffff;fill-opacity:1;stroke:none"
         id="flowRoot2985"
         xml:space="preserve"><flowRegion
           id="flowRegion2987"
           style="fill:#ffffff"><rect
             y="377.36218"
             x="41"
             height="188"
             width="632"
             id="rect2989"
             style="fill:#ffffff" /></flowRegion><flowPara
           id="flowPara2991" /></flowRoot>      <text
         sodipodi:linespacing="125%"
         id="text2993"
         y="401.36218"
         x="171"
         style="font-style:normal;font-variant:normal;font-weight:normal;font-stretch:normal;font-size:40px;line-height:125%;font-family:Lato;-inkscape-font-specification:Lato;letter-spacing:0px;word-spacing:0px;fill:#ffffff;fill-opacity:1;stroke:none"
         xml:space="preserve"><tspan
           style="fill:#ffffff;fill-opacity:1"
           y="438.56219"
           x="171"
           id="tspan2995"
           sodipodi:role="line" /></text>
      <g
         id="text3773"
         style="font-style:normal;font-variant:normal;font-weight:normal;font-stretch:normal;font-size:40px;line-height:125%;font-family:Lato;-inkscape-font-specification:Lato;letter-spacing:0px;word-spacing:0px;fill:#ffffff;fill-opacity:1;stroke:none">
        <path
           id="path7107"
           style="font-style:normal;font-variant:normal;font-weight:900;font-stretch:normal;font-size:64px;line-height:125%;font-family:Lato;-inkscape-font-specification:'Lato Heavy';text-align:start;writing-mode:lr-tb;text-anchor:start;fill:#ffffff;fill-opacity:1"
           d="m 35.792,260.55418 c -7.808,0 -13.568,-5.664 -13.568,-15.52 0,-8.928 5.12,-14.88 13.184,-14.88 4.352,0 6.752,0.864 10.176,2.912 0.672,0.416 1.344,0.64 1.984,0.64 0.992,0 1.824,-0.544 2.432,-1.44 l 3.136,-4.768 c -3.744,-3.584 -9.536,-6.272 -17.344,-6.272 -15.04,0 -24.64,9.888 -24.64,23.808 0,13.664 10.176,23.84 23.808,23.84 7.616,0 13.088,-1.504 17.856,-4.992 v -19.68 H 36.24 v 5.952 c 0,1.12 0.8,1.92 2.176,1.92 h 4.608 v 7.072 c -2.048,0.864 -4.256,1.408 -7.232,1.408 z"
           inkscape:connector-curvature="0" />
        <path
           id="path7109"
           style="font-style:normal;font-variant:normal;font-weight:900;font-stretch:normal;font-size:64px;line-height:125%;font-family:Lato;-inkscape-font-specification:'Lato Heavy';text-align:start;writing-mode:lr-tb;text-anchor:start;fill:#ffffff;fill-opacity:1"
           d="M 70.281,221.73818 H 59.465 v 46.624 h 28.096 v -8.64 h -17.28 z"
           inkscape:connector-curvature="0" />
        <path
           id="path7111"
           style="font-style:normal;font-variant:normal;font-weight:900;font-stretch:normal;font-size:64px;line-height:125%;font-family:Lato;-inkscape-font-specification:'Lato Heavy';text-align:start;writing-mode:lr-tb;text-anchor:start;fill:#ffffff;fill-opacity:1"
           d="m 112.107,259.81818 c -5.792,0 -9.216,-3.968 -9.216,-10.496 v -27.584 H 92.075 v 27.616 c 0,11.424 7.584,19.52 20.032,19.52 12.384,0 20.032,-8.096 20.032,-19.52 v -27.616 h -10.816 v 27.616 c 0,6.528 -3.424,10.464 -9.216,10.464 z"
           inkscape:connector-curvature="0" />
        <path
           id="path7113"
           style="font-style:normal;font-variant:normal;font-weight:900;font-stretch:normal;font-size:64px;line-height:125%;font-family:Lato;-inkscape-font-specification:'Lato Heavy';text-align:start;writing-mode:lr-tb;text-anchor:start;fill:#ffffff;fill-opacity:1"
           d="m 167.887,226.18618 c -3.328,-3.072 -8.544,-4.96 -14.272,-4.96 -10.24,0 -16,6.816 -16,13.856 0,17.408 20.736,11.04 20.736,19.808 0,3.744 -2.272,5.408 -6.208,5.408 -5.824,0 -8.224,-3.904 -10.752,-3.904 -0.992,0 -1.888,0.512 -2.368,1.28 l -3.2,5.056 c 3.648,3.648 10.208,6.144 16,6.144 10.624,0 16.704,-6.848 16.704,-15.456 0,-15.616 -20.8,-11.328 -20.8,-18.88 0,-2.944 1.952,-4.8 6.016,-4.8 4.736,0 7.136,3.008 9.088,3.008 1.12,0 1.728,-0.512 2.368,-1.536 z"
           inkscape:connector-curvature="0" />
        <path
           id="path7115"
           style="font-style:normal;font-variant:normal;font-weight:900;font-stretch:normal;font-size:64px;line-height:125%;font-family:Lato;-inkscape-font-specification:'Lato Heavy';text-align:start;writing-mode:lr-tb;text-anchor:start;fill:#ffffff;fill-opacity:1"
           d="m 207.821,221.73818 v 8.576 h -13.12 v 38.048 h -10.816 v -38.048 h -13.12 v -8.576 z"
           inkscape:connector-curvature="0" />
        <path
           id="path7117"
           style="font-style:normal;font-variant:normal;font-weight:900;font-stretch:normal;font-size:64px;line-height:125%;font-family:Lato;-inkscape-font-specification:'Lato Heavy';text-align:start;writing-mode:lr-tb;text-anchor:start;fill:#ffffff;fill-opacity:1"
           d="m 212.34,221.73818 v 46.624 h 30.016 v -8.32 H 223.22 v -11.104 h 14.656 v -8 H 223.22 v -10.88 h 19.136 v -8.32 z"
           inkscape:connector-curvature="0" />
        <path
           id="path7119"
           style="font-style:normal;font-variant:normal;font-weight:900;font-stretch:normal;font-size:64px;line-height:125%;font-family:Lato;-inkscape-font-specification:'Lato Heavy';text-align:start;writing-mode:lr-tb;text-anchor:start;fill:#ffffff;fill-opacity:1"
           d="m 262.033,251.11418 c 1.664,0 2.464,0.48 3.136,1.664 l 7.744,13.536 c 0.8,1.376 2.08,2.048 3.904,2.048 h 9.792 l -9.92,-16.224 c -0.928,-1.536 -2.24,-2.56 -3.68,-3.296 6.048,-2.304 9.376,-7.296 9.376,-13.28 0,-7.936 -5.248,-13.824 -18.752,-13.824 h -15.168 v 46.624 h 10.816 v -17.248 z m -2.752,-21.28 h 4.352 c 5.6,0 8.192,2.432 8.192,6.528 0,4.096 -2.304,7.296 -8.192,7.296 h -4.352 z"
           inkscape:connector-curvature="0" />
      </g>
    </g>
  </g>
</svg>
