<svg width="176" height="68" viewBox="0 0 176 68" fill="none" xmlns="http://www.w3.org/2000/svg">
<path d="M52.5502 17.3001C50.4802 25.1201 48.3402 31.8301 43.1402 31.8301C41.8902 31.8301 34.3202 54.2301 29.0702 57.7401C23.3502 61.5701 19.9602 46.4201 19.5502 43.7401C18.8802 39.3501 21.1902 31.8201 27.3802 16.1401C29.1102 8.31015 33.8002 1.04015 42.7402 0.480145C48.3602 0.140145 54.6102 9.55015 52.5502 17.3001Z" fill="white"/>
<path d="M27.1798 57.6999C26.1221 54.6453 25.4273 51.4768 25.1098 48.2599C24.9344 46.0176 25.2413 43.7637 26.0098 41.6499C26.0098 41.6499 27.3198 45.4399 32.2098 49.0899C37.0998 52.7399 36.8298 50.6099 37.0298 50.1899C37.2298 49.7699 36.9598 47.3699 35.9298 44.7499C34.552 41.8164 33.8221 38.6207 33.7898 35.3799C33.5198 30.0799 36.2098 26.3799 37.4498 23.9499C38.2298 22.4199 37.6998 19.9499 37.2098 18.4099C37.0505 18.0214 36.9136 17.6241 36.7998 17.2199L36.6498 16.8499L36.7198 16.9299C36.6398 16.6599 36.5698 16.3799 36.5098 16.0699C37.9298 17.5199 42.8898 21.1199 46.4098 20.7699C49.9298 20.4199 50.3298 13.8199 50.3298 13.8199C51.3298 15.3899 50.6198 18.2599 50.4398 18.9399C50.6098 18.7999 50.8798 18.5999 51.2898 18.2999C53.0798 16.9899 53.9898 13.2999 53.9898 13.2999C53.918 11.4039 53.3602 9.55822 52.3698 7.9399C51.8098 9.5499 50.5698 11.3899 49.7098 11.6399C47.8898 12.1699 43.3898 9.2999 44.1298 7.6399C44.595 6.91832 45.3053 6.38916 46.1298 6.1499C44.5098 6.4299 43.3698 6.1499 41.7398 6.4299C39.6394 6.84257 37.7162 7.88968 36.2298 9.4299C34.133 11.366 32.2582 13.5293 30.6398 15.8799C29.3098 18.2799 28.0098 20.9599 33.2398 21.7299C31.9998 22.9999 28.4198 21.3199 28.4198 21.3199C25.2863 26.9343 23.3234 33.1256 22.6498 39.5199C21.8498 49.5999 26.0798 56.6399 27.1798 57.6999Z" fill="#8A7363"/>
<path d="M52.12 5.58989C51.01 5.17989 48.12 5.45989 46.12 6.23989C45.2955 6.47915 44.5852 7.00831 44.12 7.72989C43.38 9.37989 47.88 12.2499 49.7 11.7299C50.56 11.4799 51.8 9.63989 52.36 8.02989C52.76 6.87989 52.81 5.84989 52.12 5.58989Z" fill="#382923"/>
<path d="M41.9101 6.50008C41.2283 6.47376 40.5656 6.26669 39.9901 5.90008C39.6341 5.51583 39.1837 5.23149 38.6837 5.07535C38.1837 4.9192 37.6515 4.8967 37.1401 5.01008C36.2001 5.21008 35.7001 6.30008 36.3401 7.66008C36.474 7.9598 36.5365 8.28652 36.5226 8.6145C36.5087 8.94247 36.4189 9.26275 36.2601 9.55008C36.9996 8.84584 37.8145 8.22542 38.6901 7.70008C39.6956 7.1374 40.7816 6.73267 41.9101 6.50008V6.50008Z" fill="#382923"/>
<path d="M53.99 16.34C54.1157 15.4243 54.1157 14.4957 53.99 13.58C53.994 13.5602 53.994 13.5398 53.99 13.52C53.9948 13.5899 53.9948 13.6601 53.99 13.73V13.38C53.99 13.38 53.08 17.03 51.29 18.38C50.88 18.68 50.6099 18.88 50.4399 19.02C50.6199 18.34 51.2899 15.47 50.3299 13.9C50.3299 13.9 49.93 20.5 46.41 20.9C42.89 21.3 37.93 17.65 36.51 16.2C36.57 16.51 36.6399 16.79 36.7199 17.06L36.65 16.98L36.7999 17.35C36.9138 17.7541 37.0507 18.1515 37.21 18.54C37.7 20.12 38.21 22.54 37.45 24.08C36.21 26.49 33.52 30.21 33.79 35.51C33.8223 38.7507 34.5522 41.9465 35.93 44.88C36.93 47.5 37.24 49.88 37.03 50.32C36.82 50.76 37.1 52.87 32.21 49.22C27.32 45.57 26.01 41.78 26.01 41.78C25.2414 43.8938 24.9345 46.1476 25.1099 48.39C25.4375 51.5629 26.1321 54.6872 27.18 57.7C27.18 57.7 20.78 52.51 20.43 42.13C20.11 32.58 25.7 21.54 26.6 19.84C26.7645 20.2274 27.0146 20.5727 27.3315 20.8497C27.6485 21.1268 28.024 21.3286 28.43 21.44C28.43 21.44 25.9399 20.07 27.7699 14.75C29.5999 9.42997 33.25 4.74997 36.96 2.60997C38.4865 1.65824 40.2299 1.11027 42.0265 1.01756C43.823 0.924847 45.6136 1.29044 47.23 2.07997C45.7883 0.854792 43.9872 0.131733 42.0986 0.0198931C40.2099 -0.0919466 38.3362 0.413502 36.76 1.45997C33.856 3.1325 31.3647 5.43584 29.4699 8.19997C28.2797 8.32048 27.0803 8.32048 25.89 8.19997C25.07 8.19997 23.8099 8.75997 24.3799 10.78C24.9499 12.8 26.4899 14.78 26.3799 15.88C26.2471 16.5819 26.1868 17.2957 26.2 18.01C25.41 19.26 21.72 25.28 20.59 30.06C20.59 30.06 22.7 8.94997 16.23 5.32997C9.75996 1.70997 4.53996 4.60997 2.79996 9.32997C-0.920044 19.49 4.58995 35.33 12.37 48.18C20.15 61.03 27.53 63.37 32.76 63.6C41.51 63.98 38.96 62.08 42.13 61.87C45.3 61.66 44.8199 63.6 50.0499 62.87C53.8799 62.32 54.5299 59.77 53.0499 58.6C51.5699 57.43 52.0499 54.67 53.4699 48.75C54.8899 42.83 52.8699 32.39 51.4699 29.75C50.0699 27.11 50.23 25.69 51.7 23.04C52.942 21 53.7236 18.7134 53.99 16.34ZM51.25 19.53C51.25 19.53 50.33 22.65 49.68 24.07C49.12 25.33 48.94 25.23 48.53 25.38C48.7183 24.8022 48.8752 24.2147 49 23.62C49.24 22.62 49 22.31 49 22.31C48.7711 23.4992 48.3524 24.6438 47.76 25.7C47.2198 25.9184 46.6237 25.957 46.06 25.81C45.37 25.53 45.25 22.29 45.25 22.11C46.3874 22.2304 47.5366 22.0564 48.5873 21.6046C49.6381 21.1528 50.555 20.4384 51.25 19.53V19.53Z" fill="#382923"/>
<path d="M77.8099 20H68.1099V53.87H77.8299C79.2957 53.8674 80.7007 53.2839 81.7372 52.2474C82.7737 51.2109 83.3572 49.8058 83.3599 48.34V25.53C83.3586 24.8025 83.214 24.0823 82.9343 23.4107C82.6547 22.7391 82.2455 22.1291 81.7302 21.6156C81.2148 21.1021 80.6033 20.6951 79.9307 20.4179C79.258 20.1407 78.5374 19.9987 77.8099 20V20ZM76.6499 49.8H72.6499V24.07H76.6499C78.0499 24.07 78.7599 25.07 78.7599 26.68V47.18C78.7599 48.8 78.1099 49.8 76.6499 49.8Z" fill="#D03E16"/>
<path d="M101.14 34.88C101.727 33.9889 102.043 32.9469 102.05 31.88V25.49C102.053 24.0294 101.476 22.6273 100.447 21.5908C99.4183 20.5543 98.0204 19.9679 96.5599 19.96H87.8999V24.44C87.8999 32.11 87.8999 53.83 87.8999 53.83H97.7899C99.1997 53.7414 100.523 53.1214 101.494 52.0951C102.465 51.0688 103.01 49.7125 103.02 48.3V38.81C102.997 38.0602 102.817 37.3236 102.494 36.647C102.17 35.9703 101.709 35.3685 101.14 34.88V34.88ZM97.4299 30.7C97.4299 32.51 96.7799 33.32 95.3199 33.32H92.4399V24.03H95.3199C96.6399 24.03 97.4299 25.11 97.4299 26.64V30.7ZM92.4299 37.39H95.9999C96.3346 37.3771 96.6682 37.4359 96.9783 37.5624C97.2884 37.6889 97.5678 37.8803 97.7979 38.1237C98.0281 38.367 98.2035 38.6568 98.3125 38.9735C98.4215 39.2902 98.4615 39.6265 98.4299 39.96V47.14C98.4299 48.71 97.5299 49.76 96.3199 49.76H92.4699L92.4299 37.39Z" fill="#382923"/>
<path d="M114.43 28.7H109.32C108.226 28.7079 107.18 29.1493 106.412 29.9273C105.643 30.7053 105.214 31.7564 105.22 32.85V49.7C105.22 50.7883 105.651 51.8322 106.42 52.6027C107.189 53.3732 108.231 53.8074 109.32 53.81H118.58C118.58 53.81 118.58 49.74 115.53 49.74C113.78 49.74 109.87 49.74 109.87 49.74H109.77V43.25H118.6V32.82C118.592 31.7211 118.148 30.6702 117.367 29.8978C116.585 29.1254 115.529 28.6947 114.43 28.7V28.7ZM114 32.85V39.2H109.75V32.82C109.742 32.8008 109.742 32.7792 109.75 32.76C109.75 32.76 109.81 32.76 109.81 32.76H113.92H113.97C113.97 32.76 114.03 32.78 114.03 32.82L114 32.85Z" fill="#382923"/>
<path d="M130 28.7H124.64C121.51 28.7 121.43 32.7 121.43 32.7H129.43H129.49C129.494 32.7197 129.494 32.7402 129.49 32.76V36.76H124.81C123.721 36.7626 122.677 37.1965 121.907 37.9667C121.137 38.7369 120.703 39.7807 120.7 40.8699V49.7C120.7 50.79 121.133 51.8354 121.904 52.6062C122.675 53.3769 123.72 53.81 124.81 53.81H134.07V32.81C134.06 31.73 133.629 30.6965 132.869 29.9291C132.109 29.1616 131.08 28.7207 130 28.7V28.7ZM129.57 40.8899V49.79H125.43H125.33V40.9H125.39L129.57 40.8899Z" fill="#382923"/>
<path d="M141.87 43.7899L139.04 28.6699H134.64L139.31 53.8299H144.32L149 28.6699H144.74L141.87 43.7899Z" fill="#382923"/>
<path d="M173.5 28.7001H172.64C171.33 28.7001 170.19 28.7001 169.64 28.7001C168.569 28.7438 167.556 29.1983 166.811 29.9692C166.066 30.7401 165.647 31.7682 165.64 32.8401V53.8401H170.17C170.17 53.8401 170.22 40.0001 170.17 34.2301C170.17 32.7101 170.17 32.7401 171.29 32.7101L173.23 32.6401C175.68 32.6401 175.68 28.6401 175.68 28.6401L173.5 28.7001Z" fill="#382923"/>
<path d="M125.31 48.48V49.76H126.6C126.431 49.7613 126.264 49.7292 126.107 49.6654C125.951 49.6017 125.808 49.5076 125.688 49.3886C125.569 49.2696 125.473 49.1281 125.408 48.9721C125.343 48.8162 125.31 48.6489 125.31 48.48V48.48Z" fill="#382923"/>
<path d="M109.77 48.48V49.76H111.05C110.711 49.76 110.385 49.6251 110.145 49.3851C109.905 49.145 109.77 48.8195 109.77 48.48Z" fill="#382923"/>
<path d="M126.6 40.8301H125.31V42.1101C125.313 41.7697 125.45 41.4441 125.691 41.2044C125.933 40.9646 126.26 40.8301 126.6 40.8301V40.8301Z" fill="#382923"/>
<path d="M111.05 32.7H109.77V33.9799C109.77 33.6405 109.905 33.3149 110.145 33.0749C110.385 32.8348 110.711 32.7 111.05 32.7Z" fill="#382923"/>
<path d="M114.03 34.01V32.7H112.75C112.921 32.6999 113.09 32.734 113.247 32.8002C113.404 32.8664 113.547 32.9633 113.666 33.0854C113.785 33.2075 113.879 33.3521 113.941 33.5109C114.004 33.6697 114.034 33.8394 114.03 34.01V34.01Z" fill="#382923"/>
<path d="M129.58 34.01V32.7H128.3C128.47 32.6999 128.639 32.734 128.797 32.8002C128.954 32.8664 129.096 32.9633 129.216 33.0854C129.335 33.2075 129.429 33.3521 129.491 33.5109C129.554 33.6697 129.584 33.8394 129.58 34.01V34.01Z" fill="#382923"/>
<path d="M159.23 28.7H154.12C153.577 28.7026 153.041 28.8121 152.541 29.022C152.041 29.232 151.587 29.5384 151.205 29.9238C150.824 30.3092 150.522 30.7659 150.317 31.268C150.111 31.7701 150.007 32.3076 150.01 32.85V49.7C150.01 50.2397 150.116 50.7742 150.323 51.2728C150.529 51.7715 150.832 52.2246 151.214 52.6062C151.595 52.9879 152.048 53.2906 152.547 53.4972C153.046 53.7037 153.58 53.81 154.12 53.81H163.43C163.43 53.81 163.43 49.74 160.37 49.74C158.63 49.74 154.71 49.74 154.71 49.74H154.61V43.25H163.43V32.82C163.426 32.2733 163.314 31.7328 163.101 31.2295C162.887 30.7262 162.576 30.27 162.186 29.8871C161.796 29.5043 161.334 29.2023 160.826 28.9986C160.319 28.7949 159.776 28.6934 159.23 28.7ZM158.8 32.85V39.2H154.54V32.82C154.533 32.8006 154.533 32.7794 154.54 32.76C154.54 32.76 154.59 32.76 154.59 32.76H158.7H158.76C158.778 32.7765 158.792 32.7971 158.8 32.82V32.85Z" fill="#382923"/>
<path d="M154.53 48.48V49.76H155.82C155.651 49.7613 155.484 49.7292 155.327 49.6654C155.171 49.6017 155.029 49.5076 154.909 49.3886C154.789 49.2696 154.694 49.1281 154.629 48.9721C154.564 48.8162 154.53 48.6489 154.53 48.48V48.48Z" fill="#382923"/>
<path d="M155.82 32.7H154.53V33.98C154.53 33.8111 154.564 33.6438 154.629 33.4878C154.694 33.3319 154.789 33.1903 154.909 33.0713C155.029 32.9523 155.171 32.8583 155.327 32.7945C155.484 32.7308 155.651 32.6987 155.82 32.7V32.7Z" fill="#382923"/>
<path d="M170.89 32.7H169.61V33.9799C169.612 33.6413 169.748 33.3172 169.988 33.0777C170.227 32.8383 170.551 32.7026 170.89 32.7V32.7Z" fill="#382923"/>
<path d="M158.8 34.01V32.7H157.52C157.691 32.6999 157.86 32.734 158.017 32.8002C158.174 32.8664 158.317 32.9633 158.436 33.0854C158.555 33.2075 158.649 33.3521 158.711 33.5109C158.774 33.6697 158.804 33.8394 158.8 34.01V34.01Z" fill="#382923"/>
</svg>
