<?xml version="1.0" encoding="utf-8"?>
<!-- Generator: Adobe Illustrator 26.5.0, SVG Export Plug-In . SVG Version: 6.00 Build 0)  -->
<svg version="1.1" id="Layer_1" xmlns="http://www.w3.org/2000/svg" xmlns:xlink="http://www.w3.org/1999/xlink" x="0px" y="0px"
	 viewBox="0 0 1000 300" style="enable-background:new 0 0 1000 300;" xml:space="preserve">
<style type="text/css">
	.st0{fill:#010101;}
	.st1{fill:#0EBAE9;}
	.st2{fill:#191B4E;}
</style>
<g>
	<g>
		<path class="st0" d="M264.5,239.4v-28.2h5.3v39.6H267l-23.7-28.1v28.1H238v-39.6h2.4L264.5,239.4z"/>
		<path class="st0" d="M291.8,251.4c-4.4,0-8-1.4-10.9-4.3c-2.8-2.9-4.2-6.5-4.2-10.8c0-4.3,1.4-7.8,4.2-10.7
			c2.8-2.9,6.5-4.4,10.9-4.4c4.4,0,8,1.5,10.8,4.4c2.9,3,4.3,6.5,4.3,10.7c0,4.2-1.4,7.8-4.3,10.8
			C299.7,250,296.2,251.4,291.8,251.4z M301.7,236.3c0-2.8-1-5.2-2.9-7.2c-1.9-2-4.3-3.1-7-3.1c-2.8,0-5.1,1-7,3.1
			c-1.9,2-2.9,4.4-2.9,7.2c0,2.9,1,5.3,2.9,7.3c1.9,2,4.3,3.1,7,3.1c2.8,0,5.1-1,7-3.1C300.8,241.6,301.7,239.2,301.7,236.3z"/>
		<path class="st0" d="M323.1,250.7h-4.2L309,222h5.4l6.8,21.5l7.8-21.5h3.6l8.1,21.5l6.5-21.5h5.4l-9.6,28.7h-4.3l-7.9-21.5
			L323.1,250.7z"/>
		<path class="st0" d="M386,221.3c4.1,0,7.5,1.5,10.2,4.4c2.8,3,4.1,6.5,4.1,10.7c0,4.2-1.4,7.8-4.1,10.7c-2.7,2.9-6.1,4.3-10.3,4.3
			c-4.2,0-7.6-1.6-10.2-4.9v16h-5.1V222h5.1v4.3C378.4,223,381.9,221.3,386,221.3z M395.2,236.3c0-2.9-0.9-5.3-2.7-7.3
			c-1.8-2-4.2-3-7.1-3c-2.9,0-5.3,1-7.1,3c-1.8,2-2.7,4.4-2.7,7.3c0,2.9,0.9,5.4,2.7,7.4c1.8,2,4.2,3,7.1,3c2.9,0,5.3-1,7.1-3
			C394.3,241.7,395.2,239.3,395.2,236.3z"/>
		<path class="st0" d="M429.3,226.2V222h4.9v28.7h-4.9v-4.1c-2.6,3.2-6,4.8-10.1,4.8c-4.1,0-7.6-1.5-10.3-4.4
			c-2.7-2.9-4.1-6.6-4.1-10.9c0-4.3,1.4-7.9,4.1-10.6c2.7-2.8,6.1-4.2,10.3-4.2C423.2,221.3,426.6,222.9,429.3,226.2z M429.6,236.3
			c0-2.9-0.9-5.3-2.7-7.3c-1.8-2-4.2-3-7.1-3c-2.9,0-5.3,1-7.1,3c-1.8,2-2.7,4.5-2.7,7.3c0,2.9,0.9,5.3,2.7,7.3c1.8,2,4.1,3,7.1,3
			c2.9,0,5.3-1,7.1-3C428.7,241.7,429.6,239.3,429.6,236.3z"/>
		<path class="st0" d="M447.3,250.7h-5.1V222h4.9v4.2c1.7-3.3,4.4-5,8.3-5c1,0,2.2,0.1,3.4,0.4l-0.5,5c-1-0.3-2-0.5-3-0.5
			c-2.4,0-4.3,0.8-5.7,2.4c-1.4,1.6-2.2,3.9-2.2,6.9V250.7z"/>
		<path class="st0" d="M480.7,245l1.9,4c-2.1,1.6-4.6,2.4-7.7,2.4c-3,0-5.3-0.9-6.8-2.8c-1.6-1.9-2.3-4.5-2.3-8v-14.3h-5.1V222h5.1
			v-10.2h5V222h10.2v4.4h-10.2V241c0,3.8,1.6,5.7,4.7,5.7C477.3,246.7,479,246.2,480.7,245z"/>
		<path class="st0" d="M513.4,251.4c-4.4,0-8-1.4-10.9-4.3c-2.8-2.9-4.2-6.5-4.2-10.8c0-4.3,1.4-7.8,4.2-10.7
			c2.8-2.9,6.5-4.4,10.9-4.4c4.4,0,8,1.5,10.8,4.4c2.9,3,4.3,6.5,4.3,10.7c0,4.2-1.4,7.8-4.3,10.8
			C521.3,250,517.7,251.4,513.4,251.4z M523.3,236.3c0-2.8-1-5.2-2.9-7.2c-1.9-2-4.3-3.1-7-3.1c-2.8,0-5.1,1-7,3.1
			c-1.9,2-2.9,4.4-2.9,7.2c0,2.9,1,5.3,2.9,7.3c1.9,2,4.3,3.1,7,3.1c2.8,0,5.1-1,7-3.1C522.3,241.6,523.3,239.2,523.3,236.3z"/>
		<path class="st0" d="M547.7,214.2c-4.2,0-6.2,2-6.2,6v1.8h9.2v4.4h-9.2v24.3h-5.1v-24.3h-5V222h5v-1.9c0-3.4,1-6,2.9-7.9
			c1.9-1.9,4.5-2.8,7.8-2.8c2.3,0,4.4,0.5,6.4,1.6l-1.6,4.2C550.3,214.6,548.9,214.2,547.7,214.2z"/>
		<path class="st0" d="M578.8,251.4c-3.1,0-6-0.6-8.6-1.9c-2.6-1.3-4.8-3.1-6.4-5.5l4.6-5.5c2.6,3.7,6.1,5.5,10.5,5.5
			c1.6,0,3-0.4,4.1-1.2c1.1-0.8,1.6-1.8,1.6-3.1c0-1.6-1.2-3-3.6-4.1c-0.3-0.1-1.6-0.7-3.9-1.6c-1.8-0.7-3.4-1.4-4.7-2.1
			c-4.2-2.4-6.3-5.7-6.3-9.9c0-3.3,1.3-6.1,3.8-8.3c2.5-2.2,5.8-3.3,9.8-3.3c5.1,0,9.5,1.8,13,5.4l-4.2,5.8c-1.1-1.1-2.4-2-4-2.7
			c-1.6-0.7-3.2-1-4.7-1c-1.6,0-2.8,0.3-3.7,1c-0.9,0.7-1.4,1.6-1.4,2.8c0,1.5,1.1,2.8,3.2,3.9l3.9,1.7c2.2,0.9,3.8,1.6,4.8,2.1
			c4.5,2.2,6.8,5.5,6.8,9.9c0,3.5-1.3,6.4-4,8.7C586.6,250.2,583.1,251.4,578.8,251.4z"/>
		<path class="st0" d="M615.3,220.8c4.1,0,7.5,1.5,10.3,4.5c2.7,2.9,4.1,6.6,4.1,10.9c0,4.3-1.4,7.9-4.1,10.9
			c-2.8,3-6.2,4.5-10.3,4.5c-3.6,0-6.7-1.4-9.2-4.1v15.4h-7.6v-41.2h7.5v3.6C608.5,222.2,611.6,220.8,615.3,220.8z M614,244.5
			c2.4,0,4.3-0.8,5.8-2.4c1.5-1.6,2.3-3.6,2.3-5.9s-0.8-4.3-2.3-5.9c-1.5-1.6-3.5-2.4-5.8-2.4c-2.4,0-4.3,0.8-5.8,2.4
			c-1.5,1.6-2.3,3.6-2.3,5.9s0.8,4.3,2.3,5.9C609.7,243.7,611.6,244.5,614,244.5z"/>
		<path class="st0" d="M633.5,236.1c0-4.3,1.5-8,4.4-10.9c3-3,6.7-4.5,11.3-4.5c4.5,0,8.3,1.5,11.3,4.5c2.9,2.9,4.4,6.6,4.4,10.9
			c0,4.4-1.5,8-4.4,10.9c-3,3-6.7,4.5-11.3,4.5c-4.5,0-8.3-1.5-11.3-4.5C634.9,244.1,633.5,240.5,633.5,236.1z M643.3,242
			c1.5,1.6,3.5,2.4,5.8,2.4c2.3,0,4.2-0.8,5.7-2.4c1.6-1.7,2.4-3.7,2.4-5.9c0-2.3-0.8-4.3-2.4-5.9c-1.6-1.6-3.5-2.4-5.7-2.4
			c-2.3,0-4.3,0.8-5.8,2.4c-1.5,1.6-2.3,3.5-2.3,5.9C641,238.4,641.8,240.4,643.3,242z"/>
		<path class="st0" d="M688.5,243.1l2.3,5.9c-2.4,1.6-5.3,2.4-8.6,2.4c-3.4,0-5.9-1-7.6-2.9c-1.7-1.9-2.6-4.8-2.6-8.6v-12.1h-4.8
			v-6.3h4.8v-10.3h7.5v10.3h9.6v6.3h-9.6v11.6c0,3.4,1.4,5.1,4.1,5.1C685.1,244.6,686.7,244.1,688.5,243.1z"/>
		<path class="st0" d="M724,220.8c4.1,0,7.6,1.5,10.4,4.5c2.8,2.9,4.2,6.6,4.2,10.9c0,4.4-1.4,8-4.2,10.9c-2.8,2.9-6.3,4.3-10.4,4.3
			c-3.7,0-6.7-1.4-9.1-4.3v3.6h-7.3V210h7.6v14.9C717.6,222.1,720.5,220.8,724,220.8z M714.8,236.1c0,2.3,0.8,4.3,2.3,6
			c1.5,1.6,3.4,2.4,5.8,2.4c2.4,0,4.3-0.8,5.8-2.4c1.5-1.6,2.3-3.6,2.3-6c0-2.4-0.8-4.3-2.3-5.9c-1.5-1.6-3.4-2.4-5.8-2.4
			c-2.4,0-4.3,0.8-5.8,2.5C715.5,231.8,714.8,233.8,714.8,236.1z"/>
		<path class="st0" d="M755.8,240.5l6.6-19h8.3l-11.7,30.7c-1.4,3.7-3.1,6.5-5.1,8.3c-2,1.8-4.4,2.7-7.3,2.7c-2.2,0-4.1-0.5-5.6-1.4
			l1.3-6.3c1.3,0.6,2.6,1,3.7,1c2.3,0,4.2-1.5,5.7-4.6l0.6-1.3l-12.8-28.9h8.7L755.8,240.5z"/>
		<path class="st0" d="M814.3,235.6v-24.5h7.8v39.6h-5.4l-20.5-24.3v24.3h-7.8v-39.6h5L814.3,235.6z"/>
		<path class="st0" d="M857.9,235.5c0,0.9-0.1,2-0.3,3.3h-21.9c1.1,4.1,3.9,6.2,8.5,6.2c3.4,0,6.5-1,9.4-2.9l3,5.3
			c-3.7,2.7-8,4-12.8,4c-5.1,0-9-1.5-11.8-4.5c-2.7-2.9-4.1-6.5-4.1-10.8c0-4.5,1.4-8.1,4.2-11c2.8-2.9,6.5-4.3,11-4.3
			c4.3,0,7.8,1.3,10.5,4C856.5,227.4,857.9,230.9,857.9,235.5z M843.2,227c-1.9,0-3.5,0.5-4.8,1.6c-1.3,1.1-2.2,2.6-2.7,4.5h14.8
			c-0.4-1.9-1.2-3.4-2.5-4.5C846.8,227.6,845.2,227,843.2,227z"/>
		<path class="st0" d="M881.5,243.1l2.3,5.9c-2.4,1.6-5.3,2.4-8.6,2.4c-3.4,0-5.9-1-7.6-2.9s-2.6-4.8-2.6-8.6v-12.1h-4.8v-6.3h4.8
			v-10.3h7.5v10.3h9.6v6.3h-9.6v11.6c0,3.4,1.4,5.1,4.1,5.1C878.1,244.6,879.8,244.1,881.5,243.1z"/>
		<path class="st0" d="M920.8,250.7h-8.4l-2.9-8.6h-13.8l-3.1,8.6h-8.3l15.1-39.6h6.5L920.8,250.7z M907.2,235.1l-4.6-13.2
			l-4.7,13.2H907.2z"/>
		<path class="st0" d="M941.4,220.8c4.1,0,7.5,1.5,10.3,4.5c2.7,2.9,4.1,6.6,4.1,10.9c0,4.3-1.4,7.9-4.1,10.9
			c-2.8,3-6.2,4.5-10.3,4.5c-3.6,0-6.7-1.4-9.2-4.1v15.4h-7.6v-41.2h7.5v3.6C934.7,222.2,937.8,220.8,941.4,220.8z M940.1,244.5
			c2.4,0,4.3-0.8,5.8-2.4c1.5-1.6,2.3-3.6,2.3-5.9s-0.8-4.3-2.3-5.9c-1.5-1.6-3.5-2.4-5.8-2.4c-2.4,0-4.3,0.8-5.8,2.4
			c-1.5,1.6-2.3,3.6-2.3,5.9s0.8,4.3,2.3,5.9C935.8,243.7,937.7,244.5,940.1,244.5z"/>
		<path class="st0" d="M977.9,220.8c4.1,0,7.5,1.5,10.3,4.5c2.7,2.9,4.1,6.6,4.1,10.9c0,4.3-1.4,7.9-4.1,10.9
			c-2.8,3-6.2,4.5-10.3,4.5c-3.6,0-6.7-1.4-9.2-4.1v15.4h-7.6v-41.2h7.5v3.6C971.2,222.2,974.3,220.8,977.9,220.8z M976.6,244.5
			c2.4,0,4.3-0.8,5.8-2.4c1.5-1.6,2.3-3.6,2.3-5.9s-0.8-4.3-2.3-5.9c-1.5-1.6-3.5-2.4-5.8-2.4c-2.4,0-4.3,0.8-5.8,2.4
			c-1.5,1.6-2.3,3.6-2.3,5.9s0.8,4.3,2.3,5.9C972.3,243.7,974.2,244.5,976.6,244.5z"/>
	</g>
	<g>
		<rect x="9.9" y="30" class="st1" width="32.8" height="27.8"/>
		<rect x="9.9" y="69.6" class="st2" width="32.8" height="27.8"/>
		<rect x="9.9" y="109.4" class="st2" width="32.8" height="27.8"/>
		<rect x="9.9" y="149" class="st2" width="32.8" height="27.8"/>
		<g>
			<path class="st2" d="M149.1,79.1c-3-3.9-7.2-7-12.3-9.4c-5.1-2.2-11.7-3.3-19.5-3.3c-6.2,0-12.5,1.4-18.6,4.4
				c-4.4,2-8.3,5.1-11.4,8.9V69.3H55.8v107.8h32.8v-56.3c0-10,1.6-17.2,4.7-21.4c3.1-4.1,8-6.1,15-6.1c6.1,0,10.1,1.7,12.3,5.3
				c2.5,3.7,3.6,9.8,3.6,17.9v60.5h32.8v-65.8c0-6.6-0.6-12.5-1.7-17.9C154.2,87.8,152,83,149.1,79.1"/>
			<path class="st2" d="M255.6,119.5c-3.3-2.3-7-4.2-11.1-5.6c-4.1-1.4-8.1-2.5-12.3-3.4c-4.1-0.9-8.1-1.9-11.9-2.7s-7.2-1.7-10-2.7
				c-2.7-0.9-5-2-6.6-3.4c-1.4-1.2-2-2.7-2-4.5c0-1.6,0.3-2.8,1.1-3.7s1.9-1.7,3.1-2.3c1.2-0.6,2.8-0.9,4.5-1.1
				c1.7-0.2,3.4-0.3,5-0.3c4.7,0,8.7,0.9,12.2,2.7c3,1.6,4.7,4.7,5,9.4l0.2,2h31.5l-0.2-2.3c-0.6-6.7-2.3-12.5-5.3-16.8
				c-3-4.5-6.6-8.1-10.9-10.8c-4.4-2.7-9.4-4.5-14.8-5.6c-5.5-1.1-11.1-1.7-16.7-1.7c-5.8,0-11.4,0.5-16.8,1.6
				c-5.6,1.1-10.6,2.8-15.1,5.5c-4.5,2.7-8.3,6.2-11.1,10.9c-2.8,4.5-4.2,10.5-4.2,17.5c0,5,1.1,9.2,3.1,12.6c2,3.4,4.7,6.2,8.1,8.4
				c3.3,2.2,6.9,3.9,11.1,5.3c3.9,1.2,8.1,2.3,12.3,3.4c10,2,17.8,4.2,23.4,6.2c7,2.7,7,6.2,7,7.5c0,2-0.5,3.7-1.4,5
				c-0.9,1.4-2.2,2.5-3.7,3.4s-3.4,1.6-5.3,2c-2,0.5-4.1,0.6-5.8,0.6c-2.7,0-5.1-0.3-7.5-0.9c-2.3-0.6-4.4-1.6-6.2-2.8
				c-1.7-1.2-3.1-2.8-4.2-4.7l0,0c-1.1-1.9-1.6-4.1-1.6-6.7v-2.2h-32l0.2,2.3c0.3,7.3,2,13.4,5,18.4c3,4.8,7,8.9,11.7,11.9
				s10,5,16.1,6.2c5.9,1.2,11.9,1.9,18.1,1.9c5.9,0,11.9-0.6,17.8-1.7c5.9-1.2,11.2-3.3,15.9-6.2s8.4-7,11.4-11.9
				c3-5,4.4-11.1,4.4-18.3c0-5.1-1.1-9.5-3.1-13.3C261.5,125,258.9,122,255.6,119.5"/>
			<path class="st2" d="M318.3,38.4h-32.8v30.9h-17.2v23.4h17.2v58.7c0,5.6,0.9,10.1,2.8,13.6c1.9,3.6,4.5,6.4,8,8.3
				c3.3,1.9,7,3.1,11.2,3.7c4.1,0.6,8.3,0.9,12.8,0.9c2.8,0,5.6,0,8.7-0.2c3-0.2,5.8-0.5,8.3-0.8l1.9-0.3v-26.5l-2.7,0.5
				c-1.2,0.3-2.7,0.5-3.9,0.6c-1.4,0.2-2.8,0.2-4.4,0.2c-5.5,0-9.8-1.7-9.8-10.6v-48h20.7V69.3h-20.7V38.4H318.3z"/>
			<path class="st2" d="M628.9,167.1c3,3.9,7.2,7,12.3,9.4c5.1,2.2,11.7,3.3,19.5,3.3c6.2,0,12.5-1.4,18.6-4.4
				c4.4-2,8.3-5.1,11.4-8.9v10.5H722V69.1h-32.8v56.3c0,10-1.6,17.2-4.7,21.4c-3.1,4.1-8,6.1-15,6.1c-6.1,0-10.1-1.7-12.3-5.3
				c-2.5-3.7-3.6-9.8-3.6-17.9V69.1H621v65.7c0,6.6,0.6,12.5,1.7,17.9C623.8,158.3,625.9,163.2,628.9,167.1"/>
			<path class="st2" d="M820.6,119.5c-3.3-2.3-7-4.2-11.1-5.6c-4.1-1.4-8.1-2.5-12.3-3.4c-4.1-0.9-8.1-1.9-11.9-2.7
				c-3.7-0.8-7.2-1.7-10-2.7c-2.7-0.9-5-2-6.6-3.4c-1.4-1.2-2-2.7-2-4.5c0-1.6,0.3-2.8,1.1-3.7c0.8-0.9,1.9-1.7,3.1-2.3
				c1.2-0.6,2.8-0.9,4.5-1.1c1.7-0.2,3.4-0.3,5-0.3c4.7,0,8.7,0.9,12.2,2.7c3,1.6,4.7,4.7,5,9.4l0.2,2h31.5l-0.2-2.3
				c-0.6-6.7-2.3-12.5-5.3-16.8c-3-4.5-6.6-8.1-10.9-10.8c-4.4-2.7-9.4-4.5-14.8-5.6s-11.1-1.7-16.7-1.7c-5.8,0-11.4,0.5-16.8,1.6
				c-5.6,1.1-10.6,2.8-15.1,5.5c-4.5,2.7-8.3,6.2-11.1,10.9c-2.8,4.5-4.2,10.5-4.2,17.5c0,5,1.1,9.2,3.1,12.6c2,3.4,4.7,6.2,8.1,8.4
				c3.3,2.2,6.9,3.9,11.1,5.3c3.9,1.2,8.1,2.3,12.3,3.4c10,2,17.8,4.2,23.4,6.2c7,2.7,7,6.2,7,7.5c0,2-0.5,3.7-1.4,5
				c-0.9,1.4-2.2,2.5-3.7,3.4s-3.4,1.6-5.3,2c-2,0.5-4.1,0.6-5.8,0.6c-2.7,0-5.1-0.3-7.5-0.9c-2.3-0.6-4.4-1.6-6.2-2.8
				c-1.7-1.2-3.1-2.8-4.2-4.7l0,0c-1.1-1.9-1.6-4.1-1.6-6.7v-2.2H732l0.2,2.3c0.3,7.3,2,13.4,5,18.4c3,4.8,7,8.9,11.7,11.9
				s10,5,16.1,6.2c5.8,1.2,11.9,1.9,18.1,1.9c5.9,0,11.9-0.6,17.8-1.7c5.9-1.2,11.2-3.3,15.9-6.2c4.7-3,8.4-7,11.4-11.9
				c3-5,4.4-11.1,4.4-18.3c0-5.1-1.1-9.5-3.1-13.3C826.7,125,823.9,122,820.6,119.5"/>
			<path class="st2" d="M883.3,38.4h-32.8v30.9h-17.2v23.4h17.2v58.7c0,5.6,0.9,10.1,2.8,13.6c1.9,3.6,4.5,6.4,8,8.3
				c3.3,1.9,7,3.1,11.2,3.7c4.1,0.6,8.3,0.9,12.8,0.9c2.8,0,5.6,0,8.7-0.2c3-0.2,5.8-0.5,8.3-0.8l1.9-0.3v-26.5l-2.7,0.5
				c-1.2,0.3-2.7,0.5-3.9,0.6c-1.4,0.2-2.8,0.2-4.4,0.2c-5.5,0-9.8-1.7-9.8-10.6v-48h20.7V69.3h-20.7V38.4H883.3z"/>
			<path class="st2" d="M416.3,134.8c0,1.4-0.2,3.6-0.5,6.1c-0.3,2.3-1.1,4.7-2.5,7c-1.2,2.2-3.3,4.2-6.1,5.9
				c-2.7,1.7-6.7,2.5-11.9,2.5c-2.2,0-4.2-0.2-6.2-0.6c-1.9-0.3-3.4-0.9-4.8-1.9c-1.2-0.8-2.3-1.9-3-3.3c-0.8-1.4-1.1-3.1-1.1-5.3
				c0-2.3,0.3-4.2,1.1-5.6c0.8-1.4,1.9-2.7,3.1-3.6c1.4-0.9,3-1.7,4.8-2.3c2-0.6,4.1-1.1,5.9-1.6c2.2-0.3,4.4-0.8,6.7-0.9
				c2.3-0.3,4.5-0.6,6.7-1.1c2.2-0.5,4.2-0.9,6.1-1.6c0.6-0.2,1.1-0.3,1.6-0.6L416.3,134.8L416.3,134.8z M449.8,164.9
				c-0.5-4.2-0.8-8.6-0.8-13.1V98c0-6.7-1.6-12.2-4.7-16.4c-3-4.1-6.9-7.3-11.5-9.5c-4.5-2.2-9.7-3.7-15.3-4.5
				c-5.5-0.8-10.8-1.1-16.1-1.1c-5.8,0-11.7,0.6-17.5,1.7c-5.9,1.2-11.2,3.1-15.9,5.9c-4.8,2.8-8.7,6.6-11.9,11.2
				c-3.1,4.7-5,10.6-5.3,17.6l-0.2,2.3h32.8l0.2-2c0.5-5,2-8.4,4.7-10.5c2.8-2,6.7-3.1,11.9-3.1c2.3,0,4.7,0.2,6.7,0.5
				c1.9,0.3,3.6,0.9,5,1.7c1.4,0.8,2.3,1.9,3.3,3.4c0.8,1.4,1.2,3.6,1.2,6.2v0.2c0.2,2.2-0.5,3.7-1.7,4.8c-1.6,1.2-3.9,2.3-6.7,3.1
				c-3.1,0.8-6.7,1.4-10.6,1.7c-4.2,0.5-8.4,0.9-12.8,1.6c-4.4,0.6-8.7,1.6-12.9,2.8c-4.4,1.2-8.4,3-11.9,5.5
				c-3.6,2.5-6.4,5.8-8.7,9.8c-2.2,4.1-3.4,9.4-3.4,15.6c0,5.6,0.9,10.6,3,14.7c1.9,4.2,4.7,7.6,8.1,10.5c3.4,2.7,7.5,4.7,12,5.9
				c4.4,1.2,9.2,1.9,14.4,1.9c6.6,0,13.1-0.9,19.5-3c5-1.6,9.7-4.1,13.7-7.3c0,0.3,0.2,0.6,0.2,0.9c0.3,1.7,0.8,3.4,1.4,5.1l0.5,1.6
				h34.3l-2.2-3.4C451.2,171.8,450.3,168.8,449.8,164.9"/>
			<path class="st2" d="M533.6,133.1l-0.3,1.9c-0.9,5.9-3,10.6-6.2,14c-3.3,3.4-7.8,5-14,5c-3.9,0-7.3-0.9-10-2.7
				c-2.8-1.7-5-4.1-6.6-6.9c-1.7-3-3-6.2-3.6-9.8c-0.8-3.7-1.1-7.3-1.1-10.9c0-3.7,0.3-7.5,1.1-11.2c0.8-3.7,2-7,3.9-10.1
				c1.7-3,4.1-5.5,6.9-7.3c2.7-1.9,6.1-2.7,10.1-2.7c10.9,0,17.2,5.1,18.7,15.9l0.3,1.9h32l-0.2-2.3c-0.5-7-2.2-13.1-5.1-18.3
				c-3-5.1-6.9-9.4-11.5-12.9c-4.7-3.4-10-5.9-15.9-7.6c-5.8-1.7-12-2.5-18.3-2.5c-8.6,0-16.5,1.4-23.2,4.4c-6.9,3-12.6,7-17.3,12.2
				c-4.7,5.1-8.3,11.4-10.8,18.6c-2.3,7-3.6,14.8-3.6,22.9c0,8,1.4,15.4,3.9,22.2c2.7,6.7,6.4,12.6,11.1,17.5
				c4.7,4.8,10.5,8.7,17.3,11.4c6.7,2.7,14.2,4.1,22.2,4.1c14.2,0,26.1-3.7,35.1-11.2c9.2-7.5,14.8-18.6,16.8-32.8l0.3-2.5H533.6z"
				/>
		</g>
		<polygon class="st2" points="575.1,38.4 575.1,100.8 575.1,114.4 575.1,176.8 607.9,176.8 607.9,114.4 607.9,100.8 607.9,38.4 		
			"/>
		<g>
			<path class="st2" d="M990.7,67.6c-3.6-0.8-7.8-1.1-12.3-1.1c-6.2,0-12.5,1.4-18.6,4.4c-4.4,2-8.3,5.1-11.4,8.9V69.3H917v107.8
				h32.8v-53.8c0-10,1.6-17.2,4.7-21.4c3.1-4.1,8-6.1,15-6.1c13.9,0,21.1,3.3,21.1,3.3V67.6H990.7z"/>
		</g>
	</g>
</g>
</svg>
