<?xml version="1.0" encoding="UTF-8" standalone="no"?>
<svg
   xmlns:dc="http://purl.org/dc/elements/1.1/"
   xmlns:cc="http://web.resource.org/cc/"
   xmlns:rdf="http://www.w3.org/1999/02/22-rdf-syntax-ns#"
   xmlns:svg="http://www.w3.org/2000/svg"
   xmlns="http://www.w3.org/2000/svg"
   xmlns:sodipodi="http://sodipodi.sourceforge.net/DTD/sodipodi-0.dtd"
   xmlns:inkscape="http://www.inkscape.org/namespaces/inkscape"
   height="425px"
   width="525px"
   version="1.1"
   id="svg1914"
   sodipodi:version="0.32"
   inkscape:version="0.44.1"
   sodipodi:docname="WWW balloon.svg"
   sodipodi:docbase="E:\SVG">
  <metadata
     id="metadata1921">
    <rdf:RDF>
      <cc:Work
         rdf:about="">
        <dc:format>image/svg+xml</dc:format>
        <dc:type
           rdf:resource="http://purl.org/dc/dcmitype/StillImage" />
      </cc:Work>
    </rdf:RDF>
  </metadata>
  <defs
     id="defs1919" />
  <sodipodi:namedview
     inkscape:window-height="573"
     inkscape:window-width="909"
     inkscape:pageshadow="2"
     inkscape:pageopacity="0.0"
     guidetolerance="10.0"
     gridtolerance="10.0"
     objecttolerance="10.0"
     borderopacity="1.0"
     bordercolor="#666666"
     pagecolor="#ffffff"
     id="base"
     inkscape:zoom="0.89647059"
     inkscape:cx="262.5"
     inkscape:cy="212.5"
     inkscape:window-x="22"
     inkscape:window-y="22"
     inkscape:current-layer="svg1914" />
  <path
     style="stroke:black; stroke-linejoin:round; stroke-width:14px; stroke:#000000; fill:white"
     d="M 72.140014,391.37082 L 113.90529,296.44975 C 87.508191,275.83832 40.499658,243.29395 41.222865,182.54446 C 40.834139,90.934537 165.68205,33.400040 263.06697,34.467593 C 392.52123,34.286792 490.51593,101.90676 490.33513,182.00206 C 490.15433,290.48329 338.64222,360.99608 183.87568,323.57006 z "
     id="path1916" />
  <path
     style="font-size:112.82167816px;font-style:normal;font-weight:normal;fill:black;fill-opacity:1;stroke:none;stroke-width:1px;stroke-linecap:butt;stroke-linejoin:miter;stroke-opacity:1;font-family:Cafe Noiré BV"
     d="M 167.04333,223.55187 C 165.35386,223.55186 163.86647,223.07443 162.58114,222.11956 C 161.11204,221.01778 160.37752,219.65893 160.37759,218.043 C 158.68814,213.59918 157.62309,209.98169 157.18245,207.19052 C 156.74167,204.39937 155.291,196.48497 152.83044,183.44729 C 150.95736,173.56809 149.70868,165.63532 149.08441,159.64896 C 145.81575,171.76853 142.30844,182.03338 138.56246,190.44355 C 134.22877,200.17591 131.41925,207.79651 130.13389,213.30537 C 130.57456,214.15007 130.79491,214.9764 130.79496,215.78436 C 130.79491,217.43702 130.0604,218.79588 128.59141,219.86092 C 127.26924,220.85252 125.76348,221.34832 124.07413,221.34832 C 119.11612,221.34832 116.63713,219.12641 116.63716,214.68259 L 114.92941,207.68632 L 108.92474,180.69285 C 106.53754,171.5849 102.46098,158.52889 96.695044,141.52478 C 96.437955,140.71689 96.309415,139.98237 96.309423,139.32123 C 96.309415,135.90581 98.237518,134.19806 102.09374,134.19798 C 104.4809,134.19806 106.31719,135.50183 107.60261,138.10928 C 108.26365,139.43149 109.60414,143.2326 111.62408,149.51264 C 113.79088,156.16007 115.9577,164.16629 118.12455,173.53132 L 123.46816,197.88053 C 127.39778,188.77256 131.30907,177.68138 135.20205,164.60695 C 137.58918,156.63751 139.40711,151.11028 140.65583,148.02525 C 143.9611,139.90892 147.17461,135.85072 150.29636,135.85064 C 152.8671,135.85072 154.68503,137.15449 155.75014,139.76194 C 157.0722,142.92043 158.41269,150.44922 159.77162,162.34831 C 160.50606,168.37139 161.75474,175.60637 163.51765,184.05326 L 168.25528,205.70313 C 173.17645,193.87744 179.32802,177.88337 186.71,157.72086 C 187.11388,156.61915 188.03203,153.14856 189.46443,147.30909 C 190.52938,143.01225 191.83314,139.6702 193.37573,137.28295 C 194.69775,135.26311 196.42386,134.25315 198.55407,134.25307 C 202.26326,134.25315 204.11791,136.08944 204.11803,139.76194 C 204.11791,140.38636 203.5303,142.22264 202.35519,145.27081 L 200.15164,151.22039 L 197.12176,161.02618 L 180.76042,200.80023 C 179.25457,205.17061 176.6654,211.52417 172.99291,219.86092 C 171.67069,222.32155 169.6875,223.55186 167.04333,223.55187 L 167.04333,223.55187 z M 284.2721,223.55187 C 282.58264,223.55186 281.09524,223.07443 279.80992,222.11956 C 278.34081,221.01778 277.6063,219.65893 277.60637,218.043 C 275.91691,213.59918 274.85186,209.98169 274.41122,207.19052 C 273.97044,204.39937 272.51978,196.48497 270.05921,183.44729 C 268.18614,173.56809 266.93746,165.63532 266.31318,159.64896 C 263.04453,171.76853 259.53722,182.03338 255.79124,190.44355 C 251.45755,200.17591 248.64803,207.79651 247.36267,213.30537 C 247.80333,214.15007 248.02369,214.9764 248.02373,215.78436 C 248.02369,217.43702 247.28917,218.79588 245.82018,219.86092 C 244.49801,220.85252 242.99226,221.34832 241.30291,221.34832 C 236.34489,221.34832 233.8659,219.12641 233.86593,214.68259 L 232.15818,207.68632 L 226.15351,180.69285 C 223.76632,171.5849 219.68976,158.52889 213.92382,141.52478 C 213.66673,140.71689 213.53819,139.98237 213.5382,139.32123 C 213.53819,135.90581 215.46629,134.19806 219.32251,134.19798 C 221.70967,134.19806 223.54596,135.50183 224.83138,138.10928 C 225.49243,139.43149 226.83292,143.2326 228.85286,149.51264 C 231.01966,156.16007 233.18648,164.16629 235.35333,173.53132 L 240.69693,197.88053 C 244.62655,188.77256 248.53785,177.68138 252.43083,164.60695 C 254.81796,156.63751 256.63588,151.11028 257.88461,148.02525 C 261.18988,139.90892 264.40338,135.85072 267.52513,135.85064 C 270.09588,135.85072 271.9138,137.15449 272.97892,139.76194 C 274.30098,142.92043 275.64147,150.44922 277.00039,162.34831 C 277.73484,168.37139 278.98351,175.60637 280.74642,184.05326 L 285.48405,205.70313 C 290.40523,193.87744 296.55679,177.88337 303.93877,157.72086 C 304.34266,156.61915 305.2608,153.14856 306.69321,147.30909 C 307.75815,143.01225 309.06192,139.6702 310.6045,137.28295 C 311.92653,135.26311 313.65264,134.25315 315.78284,134.25307 C 319.49204,134.25315 321.34669,136.08944 321.3468,139.76194 C 321.34669,140.38636 320.75908,142.22264 319.58396,145.27081 L 317.38042,151.22039 L 314.35054,161.02618 L 297.98919,200.80023 C 296.48334,205.17061 293.89417,211.52417 290.22168,219.86092 C 288.89947,222.32155 286.91628,223.55186 284.2721,223.55187 L 284.2721,223.55187 z M 401.50088,223.55187 C 399.81141,223.55186 398.32402,223.07443 397.03869,222.11956 C 395.56959,221.01778 394.83507,219.65893 394.83514,218.043 C 393.14569,213.59918 392.08064,209.98169 391.64,207.19052 C 391.19922,204.39937 389.74855,196.48497 387.28799,183.44729 C 385.41491,173.56809 384.16623,165.63532 383.54196,159.64896 C 380.2733,171.76853 376.76599,182.03338 373.02001,190.44355 C 368.68632,200.17591 365.8768,207.79651 364.59144,213.30537 C 365.03211,214.15007 365.25246,214.9764 365.25251,215.78436 C 365.25246,217.43702 364.51795,218.79588 363.04896,219.86092 C 361.72679,220.85252 360.22103,221.34832 358.53168,221.34832 C 353.57367,221.34832 351.09468,219.12641 351.09471,214.68259 L 349.38696,207.68632 L 343.38229,180.69285 C 340.99509,171.5849 336.91853,158.52889 331.15259,141.52478 C 330.89551,140.71689 330.76697,139.98237 330.76697,139.32123 C 330.76697,135.90581 332.69507,134.19806 336.55129,134.19798 C 338.93845,134.19806 340.77474,135.50183 342.06016,138.10928 C 342.7212,139.43149 344.06169,143.2326 346.08163,149.51264 C 348.24843,156.16007 350.41525,164.16629 352.5821,173.53132 L 357.92571,197.88053 C 361.85533,188.77256 365.76662,177.68138 369.6596,164.60695 C 372.04673,156.63751 373.86466,151.11028 375.11338,148.02525 C 378.41865,139.90892 381.63216,135.85072 384.75391,135.85064 C 387.32465,135.85072 389.14258,137.15449 390.20769,139.76194 C 391.52975,142.92043 392.87024,150.44922 394.22917,162.34831 C 394.96361,168.37139 396.21229,175.60637 397.9752,184.05326 L 402.71283,205.70313 C 407.634,193.87744 413.78557,177.88337 421.16755,157.72086 C 421.57143,156.61915 422.48958,153.14856 423.92198,147.30909 C 424.98693,143.01225 426.29069,139.6702 427.83328,137.28295 C 429.1553,135.26311 430.88141,134.25315 433.01162,134.25307 C 436.72081,134.25315 438.57546,136.08944 438.57558,139.76194 C 438.57546,140.38636 437.98785,142.22264 436.81274,145.27081 L 434.60919,151.22039 L 431.57931,161.02618 L 415.21797,200.80023 C 413.71212,205.17061 411.12295,211.52417 407.45046,219.86092 C 406.12825,222.32155 404.14505,223.55186 401.50088,223.55187 L 401.50088,223.55187 z "
     id="text1927" />
</svg>
