<?xml version="1.0" encoding="UTF-8" standalone="no"?>
<!-- Created with Inkscape (http://www.inkscape.org/) -->

<svg
   xmlns:dc="http://purl.org/dc/elements/1.1/"
   xmlns:cc="http://creativecommons.org/ns#"
   xmlns:rdf="http://www.w3.org/1999/02/22-rdf-syntax-ns#"
   xmlns:svg="http://www.w3.org/2000/svg"
   xmlns="http://www.w3.org/2000/svg"
   xmlns:sodipodi="http://sodipodi.sourceforge.net/DTD/sodipodi-0.dtd"
   xmlns:inkscape="http://www.inkscape.org/namespaces/inkscape"
   version="1.1"
   width="1600"
   height="450"
   id="svg2855"
   sodipodi:docname="centos-logo.svg"
   viewBox="0 0 1600 450"
   inkscape:version="0.92pre1 r">
  <metadata
     id="metadata6281">
    <rdf:RDF>
      <cc:Work
         rdf:about="">
        <dc:format>image/svg+xml</dc:format>
        <dc:type
           rdf:resource="http://purl.org/dc/dcmitype/StillImage" />
        <dc:title />
      </cc:Work>
    </rdf:RDF>
  </metadata>
  <sodipodi:namedview
     pagecolor="#000000"
     bordercolor="#666666"
     borderopacity="1"
     objecttolerance="10"
     gridtolerance="10"
     guidetolerance="10"
     inkscape:pageopacity="0"
     inkscape:pageshadow="2"
     inkscape:window-width="2560"
     inkscape:window-height="1376"
     id="namedview6279"
     showgrid="false"
     inkscape:pagecheckerboard="false"
     inkscape:zoom="0.7160325"
     inkscape:cx="673.13319"
     inkscape:cy="189.28486"
     inkscape:window-x="1920"
     inkscape:window-y="27"
     inkscape:window-maximized="1"
     inkscape:current-layer="svg2855"
     showguides="true"
     inkscape:guide-bbox="true"
     inkscape:snap-global="false">
    <sodipodi:guide
       position="888.92614,40.500955"
       orientation="0,1"
       id="guide7798"
       inkscape:locked="false" />
  </sodipodi:namedview>
  <defs
     id="defs2857" />
  <g
     transform="matrix(6.0427887,0,0,6.0427887,4292.0155,-13358.847)"
     id="layer1"
     inkscape:label="Layer 1">
    <g
       inkscape:export-ydpi="90"
       inkscape:export-xdpi="90"
       inkscape:export-filename="/home/tigert/git/cosmos-web/static/images/use5531.png"
       id="text12404"
       style="font-style:normal;font-weight:normal;font-size:52.86945343px;line-height:832.99999237%;font-family:Sans;letter-spacing:0px;word-spacing:0px;fill:#ffffff;fill-opacity:1;stroke:none"
       transform="matrix(0.69485395,0,0,0.69485395,-221.43917,698.53492)"
       xml:space="default">
      <path
         inkscape:connector-curvature="0"
         id="path4186"
         style="font-variant:normal;font-stretch:normal;font-family:Denmark;-inkscape-font-specification:Denmark;fill:#ffffff;fill-opacity:1"
         d="m -594.03802,2270.3323 h -16.33666 q -2.48486,0 -4.91686,-0.6873 -4.70538,-1.4275 -7.45459,-6.5558 -2.48486,-4.6526 -2.48486,-10.8383 0,-5.9742 2.22051,-10.5739 2.432,-5.0754 6.9259,-6.9259 3.48939,-1.4274 7.13738,-1.4274 h 14.80344 v 7.0845 h -15.38501 q -3.75373,0 -5.44555,4.0709 -1.32174,3.1722 -1.32174,8.3005 0,4.3353 1.69183,7.3489 1.95617,3.5422 5.49842,3.5422 l 15.06779,-0.053 v 6.7144 z"
         xml:space="default" />
      <path
         sodipodi:nodetypes="cscscsccscccccccccscc"
         xml:space="default"
         inkscape:connector-curvature="0"
         id="path4188"
         style="font-variant:normal;font-stretch:normal;font-family:Denmark;-inkscape-font-specification:Denmark;fill:#ffffff;fill-opacity:1"
         d="m -566.21051,2270.4909 h -12.90015 c -3.13692,0 -5.86851,-1.3394 -8.19476,-4.0181 -2.29101,-2.7139 -3.43652,-5.8332 -3.43652,-9.3579 0,-3.8419 1.25124,-7.155 3.75373,-9.9394 2.53773,-2.8197 5.35744,-4.2296 8.45912,-4.2296 h 12.26571 v 5.657 h -8.98781 c -1.12788,0 -2.09715,0.1057 -2.90782,0.3172 -0.77542,0.1763 -1.49797,0.5464 -2.16765,1.1103 -1.23362,1.0574 -1.85043,2.6397 -1.85043,4.4372 h 15.86084 v 5.7099 h -15.80797 c 0,0.8459 0.0881,1.4137 0.26435,2.0129 0.21148,0.5639 0.61681,1.1455 1.216,1.7447 0.59919,0.5639 1.30411,0.9516 2.11478,1.1631 0.84591,0.1762 1.86805,0.2643 3.06642,0.2643 h 9.25216 z" />
      <path
         xml:space="default"
         inkscape:connector-curvature="0"
         id="path4190"
         style="font-variant:normal;font-stretch:normal;font-family:Denmark;-inkscape-font-specification:Denmark;fill:#ffffff;fill-opacity:1"
         d="m -535.44214,2270.3323 h -7.34885 v -18.0285 q 0,-0.6873 -0.31722,-1.216 -0.31722,-0.5816 -0.89878,-1.1103 -1.05739,-0.8987 -2.432,-0.8987 h -7.19024 v 21.2535 h -7.34886 v -27.3864 h 14.06328 q 3.75373,0 5.44555,0.423 2.64347,0.6344 4.22956,2.802 1.79756,2.5378 1.79756,5.5513 z" />
      <path
         sodipodi:nodetypes="ccscsccsccsccccccccc"
         xml:space="default"
         inkscape:connector-curvature="0"
         id="path4192"
         style="font-variant:normal;font-stretch:normal;font-family:Denmark;-inkscape-font-specification:Denmark;fill:#ffffff;fill-opacity:1"
         d="m -513.2161,2248.6558 h -7.13738 v 12.4243 c 0,1.1279 0.38771,2.0619 1.16313,2.8021 0.88116,0.7402 2.04429,1.1103 3.48939,1.1103 h 2.16764 v 5.3398 h -6.82016 c -2.04428,0 -4.28897,-0.7402 -5.73407,-2.2205 -0.84591,-0.8812 -1.39223,-1.8505 -1.63895,-2.9079 -0.24673,-1.0573 -0.37009,-2.3086 -0.37009,-3.7537 v -12.7944 h -4.65251 v -5.7099 h 4.65251 v -9.6222 h 7.74311 v 9.6222 h 7.13738 z" />
      <path
         xml:space="default"
         inkscape:connector-curvature="0"
         id="path4194"
         style="font-variant:normal;font-stretch:normal;font-family:Denmark;-inkscape-font-specification:Denmark;fill:#ffffff;fill-opacity:1"
         d="m -469.40911,2251.7751 q 0,10.7854 -5.97424,15.4379 -4.86399,3.7537 -14.16902,3.7537 -10.30954,0 -15.2264,-4.3353 -5.39268,-4.7582 -5.39268,-15.2793 0,-8.6177 4.81112,-13.4288 5.23407,-5.2341 15.64935,-5.2341 11.47268,0 16.17806,5.0226 4.12381,4.4411 4.12381,14.0633 z m -9.41076,-0.2115 q 0,-5.4455 -2.5906,-8.6706 -2.90782,-3.5951 -8.61772,-3.5951 -5.60416,0 -8.45912,3.8595 -2.37912,3.225 -2.37912,8.4062 0,5.9743 1.9033,8.8292 2.64347,3.9652 9.78085,3.9652 6.02712,0 8.45911,-3.8594 1.9033,-3.0136 1.9033,-8.935 z" />
      <path
         xml:space="default"
         inkscape:connector-curvature="0"
         id="path4196"
         style="font-variant:normal;font-stretch:normal;font-family:Denmark;-inkscape-font-specification:Denmark;fill:#ffffff;fill-opacity:1"
         d="m -426.26351,2258.8596 q 0,4.864 -3.22503,8.1948 -3.22504,3.3307 -8.19477,3.3307 l -26.17038,-0.053 v -6.6616 h 21.57074 q 2.16765,0 3.64799,-1.0045 1.69183,-1.1631 1.69183,-3.1722 0,-4.7053 -6.66156,-4.7053 h -10.8911 q -4.70538,0 -8.24764,-2.9079 -3.54225,-2.9078 -3.54225,-7.4017 0,-4.9697 3.43651,-8.0361 3.48939,-3.1193 9.14642,-3.1193 h 25.00725 v 6.3443 h -22.04656 q -1.48035,0 -3.01356,1.2689 -1.48035,1.216 -1.48035,2.9078 0,1.9033 1.42748,3.225 1.48034,1.2689 3.54225,1.2689 h 12.00137 q 5.60416,0 8.77633,2.9078 3.22503,2.855 3.22503,7.6132 z" />
    </g>
    <rect
       xml:space="default"
       transform="matrix(-0.71249676,0.7016754,-0.71249676,-0.7016754,0,0)"
       y="-1127.9958"
       x="2096.5435"
       height="14.086009"
       width="14.086009"
       id="rect4180"
       style="color:#000000;clip-rule:nonzero;display:inline;overflow:visible;visibility:visible;color-interpolation:sRGB;color-interpolation-filters:linearRGB;fill:#932279;fill-opacity:1;fill-rule:nonzero;stroke:#ffffff;stroke-width:1.00005853;stroke-miterlimit:4;stroke-dasharray:none;marker:none;color-rendering:auto;image-rendering:auto;shape-rendering:auto;text-rendering:auto;enable-background:accumulate"
       inkscape:transform-center-x="12.562506" />
    <rect
       xml:space="default"
       inkscape:transform-center-y="-12.450121"
       inkscape:transform-center-x="-0.00019222452"
       style="color:#000000;clip-rule:nonzero;display:inline;overflow:visible;visibility:visible;color-interpolation:sRGB;color-interpolation-filters:linearRGB;fill:#efa724;fill-opacity:1;fill-rule:nonzero;stroke:#ffffff;stroke-width:1.0000093;stroke-miterlimit:4;stroke-dasharray:none;marker:none;color-rendering:auto;image-rendering:auto;shape-rendering:auto;text-rendering:auto;enable-background:accumulate"
       id="rect4182"
       width="14.023519"
       height="14.023519"
       x="-1105.6205"
       y="-2081.5786"
       transform="matrix(-0.70494576,-0.70926121,0.70494576,-0.70926121,0,0)" />
    <rect
       xml:space="default"
       inkscape:transform-center-x="12.562506"
       style="color:#000000;clip-rule:nonzero;display:inline;overflow:visible;visibility:visible;color-interpolation:sRGB;color-interpolation-filters:linearRGB;fill:#9ccd2a;fill-opacity:1;fill-rule:nonzero;stroke:#ffffff;stroke-width:1.00005853;stroke-miterlimit:4;stroke-dasharray:none;marker:none;color-rendering:auto;image-rendering:auto;shape-rendering:auto;text-rendering:auto;enable-background:accumulate"
       id="rect4184"
       width="14.086009"
       height="14.086009"
       x="2096.6753"
       y="-1144.9683"
       transform="matrix(-0.71249676,0.7016754,-0.71249676,-0.7016754,0,0)" />
    <rect
       xml:space="default"
       transform="matrix(-0.70494576,-0.70926121,0.70494576,-0.70926121,0,0)"
       y="-2081.5288"
       x="-1122.5913"
       height="14.023519"
       width="14.023519"
       id="rect4186"
       style="color:#000000;clip-rule:nonzero;display:inline;overflow:visible;visibility:visible;color-interpolation:sRGB;color-interpolation-filters:linearRGB;fill:#262577;fill-opacity:1;fill-rule:nonzero;stroke:#ffffff;stroke-width:1.0000093;stroke-miterlimit:4;stroke-dasharray:none;marker:none;color-rendering:auto;image-rendering:auto;shape-rendering:auto;text-rendering:auto;enable-background:accumulate"
       inkscape:transform-center-x="-0.00019222452"
       inkscape:transform-center-y="-12.450121" />
    <rect
       xml:space="default"
       y="2247.0137"
       x="-703.53033"
       height="13.437353"
       width="13.499309"
       id="rect4188"
       style="color:#000000;clip-rule:nonzero;display:inline;overflow:visible;visibility:visible;color-interpolation:sRGB;color-interpolation-filters:linearRGB;fill:#fce94f;stroke:none;stroke-width:0.99999994;marker:none;color-rendering:auto;image-rendering:auto;shape-rendering:auto;text-rendering:auto;enable-background:accumulate" />
    <rect
       xml:space="default"
       style="color:#000000;clip-rule:nonzero;display:inline;overflow:visible;visibility:visible;color-interpolation:sRGB;color-interpolation-filters:linearRGB;fill:#efa724;fill-opacity:1;stroke:none;stroke-width:0.99999994;marker:none;color-rendering:auto;image-rendering:auto;shape-rendering:auto;text-rendering:auto;enable-background:accumulate"
       id="rect4190"
       width="13.400747"
       height="13.499937"
       x="-686.03027"
       y="2264.5391" />
    <rect
       xml:space="default"
       y="2247.1069"
       x="-685.97626"
       height="13.431926"
       width="13.445917"
       id="rect4192"
       style="color:#000000;clip-rule:nonzero;display:inline;overflow:visible;visibility:visible;color-interpolation:sRGB;color-interpolation-filters:linearRGB;fill:#932279;fill-opacity:1;stroke:none;stroke-width:0.99999988;marker:none;color-rendering:auto;image-rendering:auto;shape-rendering:auto;text-rendering:auto;enable-background:accumulate" />
    <rect
       xml:space="default"
       style="color:#000000;clip-rule:nonzero;display:inline;overflow:visible;visibility:visible;color-interpolation:sRGB;color-interpolation-filters:linearRGB;fill:#9ccd2a;fill-opacity:1;stroke:#ffffff;stroke-width:1;stroke-miterlimit:4;stroke-dasharray:none;marker:none;color-rendering:auto;image-rendering:auto;shape-rendering:auto;text-rendering:auto;enable-background:accumulate"
       id="rect4168"
       width="13.999353"
       height="13.917932"
       x="-704.03033"
       y="2246.5391" />
    <rect
       xml:space="default"
       y="2264.5391"
       x="-686.03027"
       height="13.999938"
       width="13.91354"
       id="rect4170"
       style="color:#000000;clip-rule:nonzero;display:inline;overflow:visible;visibility:visible;color-interpolation:sRGB;color-interpolation-filters:linearRGB;fill:none;stroke:#ffffff;stroke-width:0.99999988;stroke-miterlimit:4;stroke-dasharray:none;marker:none;color-rendering:auto;image-rendering:auto;shape-rendering:auto;text-rendering:auto;enable-background:accumulate" />
    <rect
       xml:space="default"
       style="color:#000000;clip-rule:nonzero;display:inline;overflow:visible;visibility:visible;color-interpolation:sRGB;color-interpolation-filters:linearRGB;fill:none;stroke:#ffffff;stroke-width:1;stroke-miterlimit:4;stroke-dasharray:none;marker:none;color-rendering:auto;image-rendering:auto;shape-rendering:auto;text-rendering:auto;enable-background:accumulate"
       id="rect4172"
       width="13.949519"
       height="13.917932"
       x="-685.97986"
       y="2246.6208" />
    <rect
       xml:space="default"
       y="2264.5396"
       x="-704.02917"
       height="13.998755"
       width="13.99878"
       id="rect4174"
       style="color:#000000;clip-rule:nonzero;display:inline;overflow:visible;visibility:visible;color-interpolation:sRGB;color-interpolation-filters:linearRGB;fill:#262577;fill-opacity:1;stroke:#ffffff;stroke-width:1;stroke-miterlimit:4;stroke-dasharray:none;marker:none;color-rendering:auto;image-rendering:auto;shape-rendering:auto;text-rendering:auto;enable-background:accumulate" />
    <rect
       xml:space="default"
       inkscape:transform-center-x="12.562506"
       style="color:#000000;clip-rule:nonzero;display:inline;overflow:visible;visibility:visible;color-interpolation:sRGB;color-interpolation-filters:linearRGB;fill:none;stroke:#ffffff;stroke-width:1.00005853;stroke-miterlimit:4;stroke-dasharray:none;marker:none;color-rendering:auto;image-rendering:auto;shape-rendering:auto;text-rendering:auto;enable-background:accumulate"
       id="rect4208"
       width="14.086009"
       height="14.086009"
       x="2096.5435"
       y="-1127.9958"
       transform="matrix(-0.71249676,0.7016754,-0.71249676,-0.7016754,0,0)" />
    <rect
       xml:space="default"
       transform="matrix(-0.70494576,-0.70926121,0.70494576,-0.70926121,0,0)"
       y="-2081.5786"
       x="-1105.6202"
       height="14.023519"
       width="14.023519"
       id="rect4210"
       style="color:#000000;clip-rule:nonzero;display:inline;overflow:visible;visibility:visible;color-interpolation:sRGB;color-interpolation-filters:linearRGB;fill:none;stroke:#ffffff;stroke-width:1.0000093;stroke-miterlimit:4;stroke-dasharray:none;marker:none;color-rendering:auto;image-rendering:auto;shape-rendering:auto;text-rendering:auto;enable-background:accumulate"
       inkscape:transform-center-x="-0.00019222452"
       inkscape:transform-center-y="-12.450121" />
    <rect
       xml:space="default"
       transform="matrix(-0.71249676,0.7016754,-0.71249676,-0.7016754,0,0)"
       y="-1144.9683"
       x="2096.6753"
       height="14.086009"
       width="14.086009"
       id="rect4212"
       style="color:#000000;clip-rule:nonzero;display:inline;overflow:visible;visibility:visible;color-interpolation:sRGB;color-interpolation-filters:linearRGB;fill:none;stroke:#ffffff;stroke-width:1.00005853;stroke-miterlimit:4;stroke-dasharray:none;marker:none;color-rendering:auto;image-rendering:auto;shape-rendering:auto;text-rendering:auto;enable-background:accumulate"
       inkscape:transform-center-x="12.562506" />
    <rect
       xml:space="default"
       inkscape:transform-center-y="-12.450121"
       inkscape:transform-center-x="-0.00019222452"
       style="color:#000000;clip-rule:nonzero;display:inline;overflow:visible;visibility:visible;color-interpolation:sRGB;color-interpolation-filters:linearRGB;fill:none;stroke:#ffffff;stroke-width:1.0000093;stroke-miterlimit:4;stroke-dasharray:none;marker:none;color-rendering:auto;image-rendering:auto;shape-rendering:auto;text-rendering:auto;enable-background:accumulate"
       id="rect4214"
       width="14.023519"
       height="14.023519"
       x="-1122.5912"
       y="-2081.5288"
       transform="matrix(-0.70494576,-0.70926121,0.70494576,-0.70926121,0,0)" />
  </g>
</svg>
