<?xml version="1.0" encoding="UTF-8" standalone="no"?>
<!-- Created with Inkscape (http://www.inkscape.org/) -->

<svg
   xmlns:dc="http://purl.org/dc/elements/1.1/"
   xmlns:cc="http://creativecommons.org/ns#"
   xmlns:rdf="http://www.w3.org/1999/02/22-rdf-syntax-ns#"
   xmlns:svg="http://www.w3.org/2000/svg"
   xmlns="http://www.w3.org/2000/svg"
   xmlns:sodipodi="http://sodipodi.sourceforge.net/DTD/sodipodi-0.dtd"
   xmlns:inkscape="http://www.inkscape.org/namespaces/inkscape"
   width="1600"
   height="450"
   viewBox="0 0 1600 449.99999"
   id="svg4179"
   version="1.1"
   inkscape:version="0.91 r13725"
   sodipodi:docname="pulp-logo.svg">
  <defs
     id="defs4181" />
  <sodipodi:namedview
     id="base"
     pagecolor="#000000"
     bordercolor="#666666"
     borderopacity="1.0"
     inkscape:pageopacity="0"
     inkscape:pageshadow="2"
     inkscape:zoom="1.0900648"
     inkscape:cx="430.99955"
     inkscape:cy="255.60408"
     inkscape:document-units="px"
     inkscape:current-layer="layer1"
     showgrid="false"
     fit-margin-top="0"
     fit-margin-left="0"
     fit-margin-right="0"
     fit-margin-bottom="0"
     inkscape:showpageshadow="false"
     inkscape:window-width="1920"
     inkscape:window-height="1016"
     inkscape:window-x="0"
     inkscape:window-y="27"
     inkscape:window-maximized="1"
     units="px" />
  <metadata
     id="metadata4184">
    <rdf:RDF>
      <cc:Work
         rdf:about="">
        <dc:format>image/svg+xml</dc:format>
        <dc:type
           rdf:resource="http://purl.org/dc/dcmitype/StillImage" />
        <dc:title></dc:title>
      </cc:Work>
    </rdf:RDF>
  </metadata>
  <g
     inkscape:label="Layer 1"
     inkscape:groupmode="layer"
     id="layer1"
     transform="translate(141.93771,-1050.5837)">
    <g
       transform="matrix(2.4003459,0,0,2.4003459,-737.71488,255.12491)"
       id="g4236"
       inkscape:export-filename="/home/mleonova/Pictures/office hours/Pulp/final/pulp_word.png"
       inkscape:export-xdpi="90"
       inkscape:export-ydpi="90">
      <path
         style="opacity:1;fill:#04ae19;fill-opacity:1;stroke:none;stroke-width:4.40485716;stroke-linecap:round;stroke-linejoin:round;stroke-miterlimit:4;stroke-dasharray:none;stroke-dashoffset:0;stroke-opacity:1"
         d="m 383.20655,396.36429 c -10.55376,8.96535 -25.43828,12.42625 -35.99006,11.10505 0.84945,-6.86243 6.3978,-24.04396 17.24056,-33.1762 10.59473,-8.9233 29.20367,-14.6293 36.97027,-12.71365 1.98655,10.78842 -7.66683,25.81927 -18.22077,34.7848 z"
         id="path4432"
         inkscape:connector-curvature="0"
         sodipodi:nodetypes="scscs" />
      <g
         style="fill:#04ae19;fill-opacity:1;stroke:none"
         id="g4434"
         transform="matrix(0.92204773,0,0,0.92204773,-554.11752,-1234.7469)">
        <path
           style="opacity:1;fill:#04ae19;fill-opacity:1;stroke:none;stroke-width:4.40485716;stroke-linecap:round;stroke-linejoin:round;stroke-miterlimit:4;stroke-dasharray:none;stroke-dashoffset:0;stroke-opacity:1"
           d="m 959.85401,1770.4306 c 4.5637,6.2171 12.18287,10.0092 18.07028,10.6524 0.42358,-3.8278 -0.36983,-13.8518 -5.06864,-20.1965 -4.59133,-6.1993 -13.93929,-11.6878 -18.39418,-11.6502 -2.46584,5.5898 0.82883,14.9773 5.39254,21.1943 z"
           id="path4436"
           inkscape:connector-curvature="0"
           sodipodi:nodetypes="scscs" />
      </g>
      <path
         style="color:#000000;font-style:normal;font-variant:normal;font-weight:normal;font-stretch:normal;font-size:medium;line-height:normal;font-family:sans-serif;text-indent:0;text-align:start;text-decoration:none;text-decoration-line:none;text-decoration-style:solid;text-decoration-color:#000000;letter-spacing:normal;word-spacing:normal;text-transform:none;direction:ltr;block-progression:tb;writing-mode:lr-tb;baseline-shift:baseline;text-anchor:start;white-space:normal;clip-rule:nonzero;display:inline;overflow:visible;visibility:visible;opacity:1;isolation:auto;mix-blend-mode:normal;color-interpolation:sRGB;color-interpolation-filters:linearRGB;solid-color:#000000;solid-opacity:1;fill:#347dbe;fill-opacity:1;fill-rule:nonzero;stroke:none;stroke-width:23;stroke-linecap:round;stroke-linejoin:round;stroke-miterlimit:4;stroke-dasharray:none;stroke-dashoffset:0;stroke-opacity:1;color-rendering:auto;image-rendering:auto;shape-rendering:auto;text-rendering:auto;enable-background:accumulate"
         d="m 330.20774,416.25032 c -45.16376,0 -81.93835,36.7746 -81.93835,81.93833 0,0.16361 0.008,0.32604 0.008,0.48942 l 15.04819,0 c 0,-0.16338 -0.008,-0.32575 -0.008,-0.48942 0,-37.03108 29.85907,-66.89012 66.89016,-66.89012 37.0311,0 66.8888,29.85904 66.8888,66.89012 0,0.16367 -0.008,0.32604 -0.008,0.48942 l 15.04827,0 c 6.5e-4,-0.16338 0.008,-0.32581 0.008,-0.48942 0,-45.16373 -36.77331,-81.93833 -81.93707,-81.93833 z"
         id="path4438"
         inkscape:connector-curvature="0" />
      <path
         inkscape:connector-curvature="0"
         id="path4440"
         transform="translate(83.355629,246.70606)"
         d="m 246.85156,194.8125 a 56.014499,56.014499 0 0 0 -39.24414,16.11523 l 43.30664,27.83594 5.53125,-3.23047 0,-39.89062 a 56.014499,56.014499 0 0 0 -9.59375,-0.83008 z m 19.07813,3.40234 0,35.81836 7.83789,4.47266 21.35547,-15.97852 a 56.014499,56.014499 0 0 0 -29.19336,-24.3125 z m -64.53125,19.9961 a 56.014499,56.014499 0 0 0 -10.5625,32.61523 56.014499,56.014499 0 0 0 0.041,1.14649 l 56.14453,0 -0.0234,-4.46875 a 4.7433303,4.7433303 0 0 1 -0.35938,-0.21094 l -45.24023,-29.08203 z m 97.87109,13.06054 -21.25391,15.9004 0.0254,4.80078 24.76757,0 a 56.014499,56.014499 0 0 0 0.0586,-1.14649 56.014499,56.014499 0 0 0 -3.59766,-19.55469 z"
         style="opacity:1;fill:#ff9507;fill-opacity:1;stroke:none;stroke-width:23;stroke-linecap:round;stroke-linejoin:round;stroke-miterlimit:4;stroke-dasharray:none;stroke-dashoffset:0;stroke-opacity:1" />
    </g>
    <g
       style="fill:#ffffff;fill-opacity:1"
       id="g4458"
       transform="matrix(2.9525358,0,0,2.9525358,-3305.6483,-707.77321)"
       inkscape:export-filename="/home/mleonova/Pictures/office hours/Pulp/final/pulp_word.png"
       inkscape:export-xdpi="90"
       inkscape:export-ydpi="90">
      <path
         inkscape:connector-curvature="0"
         id="path4448"
         style="font-style:normal;font-variant:normal;font-weight:bold;font-stretch:normal;font-size:106.77455902px;line-height:125%;font-family:Cabin;-inkscape-font-specification:'Cabin Bold';text-align:end;writing-mode:lr-tb;text-anchor:end;fill:#ffffff;fill-opacity:1;stroke:none;stroke-width:4;stroke-linecap:round;stroke-linejoin:round;stroke-miterlimit:4;stroke-dasharray:none;stroke-dashoffset:0;stroke-opacity:1"
         d="m 1277.6647,718.79432 c 13.9359,0 21.3394,-10.36487 21.3394,-22.55884 0,-12.19396 -7.4035,-22.55883 -21.3394,-22.55883 -4.7905,0 -7.7519,1.2194 -10.7133,3.22269 l -0.871,-2.52589 -9.4068,0 0,64.62801 10.8004,0 0,-23.16853 c 2.8743,1.9162 5.6615,2.96139 10.1907,2.96139 z m -0.6968,-36.2335 c 6.968,0 10.9745,5.57439 10.9745,13.67466 0,8.10028 -4.0065,13.67467 -10.9745,13.67467 -6.968,0 -10.0165,-5.57439 -10.0165,-13.67467 0,-8.10027 3.0485,-13.67466 10.0165,-13.67466 z" />
      <path
         inkscape:connector-curvature="0"
         id="path4450"
         style="font-style:normal;font-variant:normal;font-weight:bold;font-stretch:normal;font-size:106.77455902px;line-height:125%;font-family:Cabin;-inkscape-font-specification:'Cabin Bold';text-align:end;writing-mode:lr-tb;text-anchor:end;fill:#ffffff;fill-opacity:1;stroke:none;stroke-width:4;stroke-linecap:round;stroke-linejoin:round;stroke-miterlimit:4;stroke-dasharray:none;stroke-dashoffset:0;stroke-opacity:1"
         d="m 1344.2395,717.92332 0,-43.54987 -10.8004,0 0,31.7043 c -2.0033,2.3517 -4.6163,3.6582 -8.1873,3.6582 -6.097,0 -8.6229,-3.83239 -8.6229,-11.93267 l 0,-23.42983 -10.8004,0 0,23.42983 c 0,12.28106 4.8776,20.99104 18.4652,20.99104 3.3968,0 7.1421,-1.5678 9.668,-3.48399 l 0.1742,2.61299 10.1036,0 z" />
      <path
         inkscape:connector-curvature="0"
         id="path4454"
         style="font-style:normal;font-variant:normal;font-weight:bold;font-stretch:normal;font-size:106.77455902px;line-height:125%;font-family:Cabin;-inkscape-font-specification:'Cabin Bold';text-align:end;writing-mode:lr-tb;text-anchor:end;fill:#ffffff;fill-opacity:1;stroke:none;stroke-width:4;stroke-linecap:round;stroke-linejoin:round;stroke-miterlimit:4;stroke-dasharray:none;stroke-dashoffset:0;stroke-opacity:1"
         d="m 1369.2449,709.91015 c -4.2678,0 -5.2259,0 -5.2259,-6.96799 l 0,-50.34364 -10.8004,0 0,54.78573 c 0,6.27118 3.3969,11.41007 11.1488,11.41007 l 3.9195,0 0.958,-8.88417 z" />
      <path
         inkscape:connector-curvature="0"
         id="path4456"
         style="font-style:normal;font-variant:normal;font-weight:bold;font-stretch:normal;font-size:106.77455902px;line-height:125%;font-family:Cabin;-inkscape-font-specification:'Cabin Bold';text-align:end;writing-mode:lr-tb;text-anchor:end;fill:#ffffff;fill-opacity:1;stroke:none;stroke-width:4;stroke-linecap:round;stroke-linejoin:round;stroke-miterlimit:4;stroke-dasharray:none;stroke-dashoffset:0;stroke-opacity:1"
         d="m 1399.2183,718.79432 c 13.936,0 21.3395,-10.36487 21.3395,-22.55884 0,-12.19396 -7.4035,-22.55883 -21.3395,-22.55883 -4.7905,0 -7.7519,1.2194 -10.7132,3.22269 l -0.871,-2.52589 -9.4068,0 0,64.62801 10.8004,0 0,-23.16853 c 2.8742,1.9162 5.6614,2.96139 10.1906,2.96139 z m -0.6968,-36.2335 c 6.968,0 10.9746,5.57439 10.9746,13.67466 0,8.10028 -4.0066,13.67467 -10.9746,13.67467 -6.968,0 -10.0164,-5.57439 -10.0164,-13.67467 0,-8.10027 3.0484,-13.67466 10.0164,-13.67466 z" />
    </g>
  </g>
</svg>
